<mxfile host="app.diagrams.net" modified="2021-03-11T20:51:50.780Z" agent="5.0 (Windows NT 10.0; Win64; x64) AppleWebKit/537.36 (KHTML, like Gecko) Chrome/88.0.4324.190 Safari/537.36" etag="oAzcOstXE_ndP0iL8aee" version="14.4.7" type="github">
  <diagram id="gQ_9v4CdiexItw4zU6r-" name="Page-1">
    <mxGraphModel dx="1422" dy="762" grid="1" gridSize="10" guides="1" tooltips="1" connect="1" arrows="1" fold="1" page="1" pageScale="1" pageWidth="827" pageHeight="1169" math="0" shadow="0">
      <root>
        <mxCell id="0" />
        <mxCell id="1" parent="0" />
        <mxCell id="YsZGYLzwbfZRXPLkO7Gu-5" value="" style="edgeStyle=orthogonalEdgeStyle;rounded=0;orthogonalLoop=1;jettySize=auto;html=1;" parent="1" source="YsZGYLzwbfZRXPLkO7Gu-1" target="YsZGYLzwbfZRXPLkO7Gu-2" edge="1">
          <mxGeometry relative="1" as="geometry" />
        </mxCell>
        <mxCell id="YsZGYLzwbfZRXPLkO7Gu-1" value="" style="aspect=fixed;html=1;points=[];align=center;image;fontSize=12;image=img/lib/azure2/databases/Azure_Cosmos_DB.svg;" parent="1" vertex="1">
          <mxGeometry x="200" y="310" width="64" height="64" as="geometry" />
        </mxCell>
        <mxCell id="YsZGYLzwbfZRXPLkO7Gu-4" value="" style="edgeStyle=orthogonalEdgeStyle;rounded=0;orthogonalLoop=1;jettySize=auto;html=1;" parent="1" source="YsZGYLzwbfZRXPLkO7Gu-2" target="YsZGYLzwbfZRXPLkO7Gu-3" edge="1">
          <mxGeometry relative="1" as="geometry" />
        </mxCell>
        <mxCell id="YsZGYLzwbfZRXPLkO7Gu-2" value="pay for Troughput Unit (TU)" style="rounded=0;whiteSpace=wrap;html=1;fillColor=#dae8fc;strokeColor=#6c8ebf;" parent="1" vertex="1">
          <mxGeometry x="320" y="312" width="120" height="60" as="geometry" />
        </mxCell>
        <mxCell id="YsZGYLzwbfZRXPLkO7Gu-3" value="Offer a limited Request Units (RU)" style="whiteSpace=wrap;html=1;rounded=0;fillColor=#dae8fc;strokeColor=#6c8ebf;" parent="1" vertex="1">
          <mxGeometry x="490" y="312" width="120" height="60" as="geometry" />
        </mxCell>
        <mxCell id="YBjTQArVUFeNYg_c9qIM-5" value="0..many" style="edgeStyle=orthogonalEdgeStyle;rounded=0;orthogonalLoop=1;jettySize=auto;html=1;" edge="1" parent="1" source="YBjTQArVUFeNYg_c9qIM-3" target="YBjTQArVUFeNYg_c9qIM-4">
          <mxGeometry relative="1" as="geometry" />
        </mxCell>
        <mxCell id="YBjTQArVUFeNYg_c9qIM-3" value="Cosmos DB Acount" style="rounded=0;whiteSpace=wrap;html=1;fillColor=#dae8fc;strokeColor=#6c8ebf;" vertex="1" parent="1">
          <mxGeometry x="172" y="390" width="120" height="60" as="geometry" />
        </mxCell>
        <mxCell id="YBjTQArVUFeNYg_c9qIM-7" value="1..many" style="edgeStyle=orthogonalEdgeStyle;rounded=0;orthogonalLoop=1;jettySize=auto;html=1;" edge="1" parent="1" source="YBjTQArVUFeNYg_c9qIM-4" target="YBjTQArVUFeNYg_c9qIM-6">
          <mxGeometry relative="1" as="geometry" />
        </mxCell>
        <mxCell id="YBjTQArVUFeNYg_c9qIM-4" value="Database" style="rounded=0;whiteSpace=wrap;html=1;fillColor=#dae8fc;strokeColor=#6c8ebf;" vertex="1" parent="1">
          <mxGeometry x="172" y="500" width="120" height="60" as="geometry" />
        </mxCell>
        <mxCell id="YBjTQArVUFeNYg_c9qIM-9" value="Contains" style="edgeStyle=orthogonalEdgeStyle;rounded=0;orthogonalLoop=1;jettySize=auto;html=1;" edge="1" parent="1" source="YBjTQArVUFeNYg_c9qIM-6" target="YBjTQArVUFeNYg_c9qIM-8">
          <mxGeometry relative="1" as="geometry" />
        </mxCell>
        <mxCell id="YBjTQArVUFeNYg_c9qIM-6" value="Collection" style="rounded=0;whiteSpace=wrap;html=1;fillColor=#dae8fc;strokeColor=#6c8ebf;" vertex="1" parent="1">
          <mxGeometry x="172" y="620" width="120" height="60" as="geometry" />
        </mxCell>
        <mxCell id="YBjTQArVUFeNYg_c9qIM-8" value="document&lt;br&gt;unstructured&lt;br&gt;key/value pair" style="rounded=0;whiteSpace=wrap;html=1;fillColor=#dae8fc;strokeColor=#6c8ebf;" vertex="1" parent="1">
          <mxGeometry x="172" y="720" width="120" height="60" as="geometry" />
        </mxCell>
        <UserObject label="Each account has an endpoint:&lt;br style=&quot;font-size: 14px;&quot;&gt;https://cosmosparisa.documents.azure.com:443/" link="https://cosmosparisa.documents.azure.com:443/" id="YBjTQArVUFeNYg_c9qIM-10">
          <mxCell style="text;whiteSpace=wrap;html=1;fontSize=14;fillColor=#f5f5f5;strokeColor=#666666;fontColor=#333333;" vertex="1" parent="1">
            <mxGeometry x="300" y="405" width="420" height="55" as="geometry" />
          </mxCell>
        </UserObject>
        <UserObject label="- Each collection has a &lt;b style=&quot;font-size: 14px;&quot;&gt;Partition Key&lt;/b&gt;&lt;br style=&quot;font-size: 14px;&quot;&gt;- Any of these properties, or a combination of them, can be a partition key." link="https://cosmosparisa.documents.azure.com:443/" id="YBjTQArVUFeNYg_c9qIM-11">
          <mxCell style="text;whiteSpace=wrap;html=1;fontSize=14;fillColor=#f5f5f5;strokeColor=#666666;fontColor=#333333;" vertex="1" parent="1">
            <mxGeometry x="300" y="630" width="420" height="60" as="geometry" />
          </mxCell>
        </UserObject>
        <mxCell id="YBjTQArVUFeNYg_c9qIM-13" value="- Documents are grouped in a partition based on the value of the partition key&lt;br style=&quot;font-size: 14px&quot;&gt;&lt;br style=&quot;font-size: 14px&quot;&gt;-&amp;nbsp;An effective partitioning strategy distributes data and access evenly across partitions, and across time. Querying documents from within the same partition is less expensive than querying across partitions.&lt;br&gt;&lt;br&gt;-&amp;nbsp;Unlike partitioning, you can change indexing at runtime.&lt;br&gt;&lt;br&gt;-&amp;nbsp;he HTTP 429 error code indicates that there are too many requests. Future requests will be rate-limited." style="text;whiteSpace=wrap;html=1;fontSize=14;fillColor=#f5f5f5;strokeColor=#666666;fontColor=#333333;" vertex="1" parent="1">
          <mxGeometry x="300" y="735" width="420" height="215" as="geometry" />
        </mxCell>
        <mxCell id="YBjTQArVUFeNYg_c9qIM-14" value="" style="shape=image;verticalLabelPosition=bottom;labelBackgroundColor=#ffffff;verticalAlign=top;aspect=fixed;imageAspect=0;image=data:image/png,iVBORw0KGgoAAAANSUhEUgAABjcAAARECAYAAAA5l0N5AAAgAElEQVR4Aey9e7BcZbnnv/+ZqplzflbNUFNmc2ZOUTh6OPxGDlIOCFqoXERPVBSGOMoRvHATY6AggxdyclQIiBguRxG5hBzBhJuEixAQTEAPmIiJQQz3SAJECIZLICGGcNnP1Ld7P7ufvfZaq1d3r+7da+/Prtq1ulev9a73/b6f913dz3e97zuwefNm4x8NYAAGYAAGYAAGYAAGYAAGYAAGYAAGYAAGYAAGYAAGYAAGqsLAQFUySj5pVDAAAzAAAzAAAzAAAzAAAzAAAzAAAzAAAzAAAzAAAzAAA2IAc4ORK4zcgQEYgAEYgAEYgAEYgAEYgAEYgAEYgAEYgAEYgAEYgIFKMYC5AbCVAhZXFlcWBmAABmAABmAABmAABmAABmAABmAABmAABmAABmAAcwNzA3MDBmAABmAABmAABmAABmAABmAABmAABmAABmAABmAABirFAOYGwFYKWBxZHFkYgAEYgAEYgAEYgAEYgAEYgAEYgAEYgAEYgAEYgAHMDcwNzA0YgAEYgAEYgAEYgAEYgAEYgAEYgAEYgAEYgAEYgAEYqBQDmBsAWylgcWRxZGEABmAABmAABmAABmAABmAABmAABmAABmAABmAABjA3MDcwN2AABmAABmAABmAABmAABmAABmAABmAABmAABmAABmCgUgxgbgBspYDFkcWRhQEYgAEYgAEYgAEYgAEYgAEYgAEYgAEYgAEYgAEYwNzA3MDcgAEYqAADTz/9tD344IP2u9/9zlauXMk/GsAADMBAiQyob1Ufq76WH0j8QIIBGIABGIABGIABGIABGICBajCAuVGBoCaNqRqNiXqinrrFwAMPPEAQs8QgJuYQ5hgMwEAeA+pzu9Wfky7fFWAABmAABmAABmAABmAABmCgPAYwNzA3+AEPAzDQxwzoKWIPwm3cuNHeeOMN4w8FUAAFUKBcBdS3qo/1/pYRHOX92OCHG1rCAAzAAAzAAAzAAAzAAAx0iwHMjT4Oanar0kmXDgUGqsOApklRsE1BN/5QAAVQAAW6q4AbHOp7uVdW515JXVFXMAADMAADMAADMAADMDA5GcDcwNzgxzsMwEAfM+BrbDBio7sBTVJHARRAASmgvlaGsvpefhxNzh9H1Dv1DgMwAAMwAAMwAAMwAAPVYQBzo4+DmjSk6jQk6oq66hYDPkUKYUcUQAEUQIHeKOD9brf6ddLlOwMMwAAMwAAMwAAMwAAMwAAMlMMA5gbmBk8mwgAM9DEDHmTrTUiPq6AACqAACni/y4+Ncn5soCM6wgAMwAAMwAAMwAAMwAAMdIsBzI0+Dmp2q9JJlw4FBqrDgAfZCDeiAAqgAAr0RgHvd7lXVudeSV1RVzAAAzAAAzAAAzAAAzAwORnA3MDc4Kl9GICBPmbAg2y9CelxFRRAARRAAe93+XE0OX8cUe/UOwzAAAzAAAzAAAzAAAxUhwHMjT4OatKQqtOQqCvqqlsMeJCNcCMKoAAKoEBvFPB+t1v9OunynQEGYAAGYAAGYAAGYAAGYAAGymEAcwNzg6f2YQAG+pgBD7L1JqTHVVAABVAABbzf5cdGOT820BEdYQAGYAAGYAAGYAAGYAAGusUA5kYfBzW7VemkS4cCA9VhwINshBtRAAVQAAV6o4D3u9wrq3OvpK6oKxiAARiAARiAARiAARiYnAxgbmBu8NQ+DMBAHzPgQbbehPS4CgqgAAqggPe7/DianD+OqHfqHQZgAAZgAAZgAAZgAAaqwwDmRh8HNWlI1WlI1BV11S0GPMhGuBEFUAAFUKA3Cni/261+nXT5zgADMAADMAADMAADMAADMAAD5TCAuYG5wVP7MAADfcyAB9l6E9LjKiiAAiiAAt7v8mOjnB8b6IiOMAADMAADMAADMAADMAAD3WIAc6OPg5rdqnTSpUOBgeow4EE2wo0ogAIogAK9UcD7Xe6V1blXUlfUFQzAAAzAAAzAAAzAAAxMTgYwNzA3eGofBmCgjxnwIFtvQnpcBQVQAAVQwPtdfhxNzh9H1Dv1DgMwAAMwAAMwAAMwAAPVYQBzo4+DmjSk6jQk6oq66hYDHmQj3IgCKIACKNAbBbzf7Va/Trp8Z4ABGIABGIABGIABGIABGICBchjA3MDc4Kl9GICBPmbAg2y9CelxFRRAARRAAe93+bFRzo8NdERHGIABGIABGIABGIABGICBbjGAudHHQc1uVTrp0qHAQHUY8CAb4UYUQAEUQIHeKOD9LvfK6twrqSvqCgZgAAZgAAZgAAZgAAYmJwOYG5gbPLUPAzDQxwx4kK03IT2uggIogAIo4P0uP44m548j6p16hwEYgAEYgAEYgAEYgIHqMIC50cdBTRpSdRoSdUVddYsBD7IRbkQBFEABFOiNAt7vdqtfJ12+M8AADMAADMAADMAADMAADMBAOQxgbmBu8NQ+DMBAHzPgQbbehPS4CgqgAAqggPe7/Ngo58cGOqIjDMAADMAADMAADMAADMBAtxjA3OjjoGa3Kp106VBgoDoMeJCNcCMKoAAKoEBvFPB+l3tlde6V1BV1BQMwAAMwAAMwAAMwAAOTkwHMDcwNntqHARjoYwY8yNabkB5XQQEUQAEU8H6XH0eT88cR9U69wwAMwAAMwAAMwAAMwEB1GMDc6OOgJg2pOg2JuqKuusWAB9kIN6IACqAACvRGAe93u9Wvky7fGWAABmAABmAABmAABmAABmCgHAYwNzA3eGofBmCgjxnwIFtvQnpcBQVQAAVQwPtdfmyU82MDHdERBmAABmAABmAABmAABmCgWwxgbvRxULNblU66dCgwUB0GPMhGuBEFUAAFUKA3Cni/y72yOvdK6oq6ggEYgAEYgAEYgAEYgIHJyQDmBuYGT+3DAAz0MQMeZOtNSI+roAAKoAAKeL/Lj6PJ+eOIeqfeYQAGYAAGYAAGYAAGYKA6DGBu9HFQk4ZUnYZEXVFX3WLAg2yEG1EABVAABXqjgPe73erXSZfvDDAAAzAAAzAAAzAAAzAAAzBQDgOYG5gbPLUPAzDQxwx4kK03IT2uggIogAIo4P0uPzbK+bGBjugIAzAAAzAAAzAAAzAAAzDQLQYwN/o4qNmtSiddOhQYqA4DHmQj3IgCKIACKNAbBbzf5V5ZnXsldUVdwQAMwAAMwAAMwAAMwMDkZABzA3ODp/ZhAAb6mAEPsvUmpMdVUAAFUAAFvN/lx9Hk/HFEvVPvMAADMAADMAADMAADMFAdBjA3+jioSUOqTkOirqirbjHgQTbCjSiAAiiAAr1RwPvdbvXrpMt3BhiAARiAARiAARiAARiAARgohwHMDcyNEp7aX2KzBwZsYGDADp6/poT0yoGbTgIdJwIDHmTrTUiPq4yrAs89ZIvnz7Lp0/a3XQfrfar61cF37m+HHj/L5t36kG16fVxzODEuvmGxzdp7wA69csPEKM84lUL9a6t/7ZzT6jXKON773YlwD6EMfBeCARiAARiAARiAARiAARiYyAxgbmBulGBGYG5M5E6Cso3vTdCDbGUE7EijTxXY8pAtPGl/Gxw2iWVoZP6//VCbe/emPi1Iv2drkz105Uzbf9g4wtxov77WrVtn6puef/75wonoWJ2jc/v9z/td7n/je/9Df/SHARiAARiAARiAARiAARhoxgDmBuZGT8yNjQ8vsctOP9YO3vMMW4LmJWhO59asc5son3uQrd+DgeSvTQXWLbbpezfMjMF3Hm5zrlxsyx7eYJs2bbJNm9baqjsX2bxTDg+jOQZt6rmrbFubl5yMp21YPs9m7jc4yjTC3GiPBPWt3i9pW8TgcGNDx69YscK2b9/e3sV7dJaXb6LcRygH35lgAAZgAAZgAAZgAAZgAAYmKgOYGwTaSwi0Nx+5sWb+wcNBpdmYGzBXAnOT56bkQbYexfS4TC8V2LLM5owYG/vY9CsfstwxGZsesnlf2Hm4Lx20w69c28vcVvBa22zVlTPt8Hc2TI3B/fa3fYZHxmButF+l0axoZnDEY++9917bunVr+xfu0Zne707UL/+Ua/J8h6CuqWsYgAEYgAEYgAEYgIGJzgDmBoHmEgLNmBsTvaOgfON3M/QgW49ielymZwpss6WneNB9H5uzvOg4jLW28Ag/71BbuL5nGa7ghTbYwmnDo2IGd7XDz15qG15fZnMwN0qpy2haZBkc8ZiqGBsSx/td7n3jd+9De7SHARiAARiAARiAARiAARgowgDmBuYG5gYMlMAAHW6RDredYzzIVko0kkT6R4H75o6MINjn3FWt5eu5xTZ9eN2IwW8sZXqqTPU22KJjptr07y+2tSNDYjA3MuVq44NoXiQNjvhZlYwNyeD9bjt9NufwfQAGYAAGYAAGYAAGYAAGYAAGescA5gaB7RIC21kjNxr7MxfHnbUk/frr7rYFtTU6dhqegmWK7fL+I232/CW25sWMBvLwZXZw7Yncg+2yh3XMeluxcLYd+f5dbIr2T9nFDjp6rt28ZvT5a26Za8cespftNPw07057HmmzF66w9XlsvLjGlsw/Y9R5Sv8Dhxxrc29aYxvzzuWz9DpHl1RdPMjWRtyRU/pYgWWnDY++GJxpS7e0ntFVZ+8x3DfOtKWjBn00gvdzluel2zgud3qm1zfZquvn2vRp+9jOw33k4Dv3t6NOW2jLNmSl30i7nof6Qt5Th6eHGvzCIvuF539wViL/KWneN9f2qF17qs1bk/J5S7saecstd0tpTu6Do4nhBkdyn9aPqdKf97v8IBn9fQk90AMGYAAGYAAGYAAGYAAGYKDfGMDcIKCaGlBtDdSGiXHw/DUhvcb+VsyN1dfMsA9MaSywO+bcPU+xm9eldCbR3HhgtS34rBsjibSmHGRz79lomzdvtCWz9hoOECaOGRiwKZ++zFan8fHAAjvybWOPH8nnIZfZmrTz2BfYSKk/9EnVx4NsVQoMktdmCqyyue+q9yFtj7xYPscGawH/QZuzIl6vEbzv2NxYt3jMItwj/Vzt2vvYrDvSgtYxD9ts2Wn7jO5npy20DWvm2dTh/M+6c5Q7EwtTez1iBH1hUf6aJGPOTNvRyBvmRpo+7e1Lmhneb7nZ0V6q43eW57+170Lc19ALBmAABmAABmAABmAABmAABnrNAOYGAdXUgGprIDZMjNHmRqNBF11QfP2iY4dHUEyxg755na1YJxNis21+caOtXnqBHbvnsKlwSIrxEMyNY4/ey6a8/xRbsHJ94/xbZttBbpp86AK7ef40mzKg69xsazbW87px3QpbMNMNjyl27DXD549wcredMZyHKf84225+YDh/mzfbxvVrbMUtF9iMExdgbozo1WCgNaY4z/XyINv4hfm4cukKbFhkh9cC+wN2+LWZwx/yLxvSGB2kbwTvOzI3NPXV24cNmI/PscUPbxqZ/mrbumU2b4YbFofawnXJrDbyMPO0ObbH4FSbc+eGkfPrR4f1ME7JmVpr21KbVZuCa9CamSDJXKS/b+RttG7pR7O3uAJpBof2VfHP+13vh9lyT4YBGIABGIABGIABGIABGICB/mQAc4MgbP+YG+uus2Nr5sMUmzZ/dXq+1iwYOeaUWxrGQq2DGTE3NAXVDLt5w9hGt/GmGfUpqoYDi3vNWpIyhdRqu+BDwybK0deNnp7qV7OHzz/SFqSNHoGn9HpDl7Z18SBbFQOE5DlDgTXzbP/hPijfgMg4v7a7EaTfY9SaHY39+Wk3jhsb5N9ki4+vT5s1eMRCW5uajQ22yI8Zs+5HI+3BwX1s1t3pIzM2XX/U8IiO6bY4bQCImW27Y2b9mHfNtRZXJknNtVkjb2PLnXEKuwspgLkx9jsHP37QBAZgAAZgAAZgAAZgAAZgAAa6ywDmBkHXtoOujcZZzsiN1RceVA9iNZnWacmsKfXjTrx5tDERzI2DLswwRzYvsdk+emPKKXbz8IiNRlnqDW719z9Qv8aU2XZ3ZGTp7Pr+gWPtuvXdbZzJPPF+cuqNuVEorlqtg5bPGe5HBizfgMgrViNIP3DasnBgY39+2o3jxgT5R6aMOtQWrg9JJ1+OTI2Vve7HQN5UUiOjMgZs+s/S3I1NtugLdaN5j7PLsTYwN5KVWM77aGxo8XDvt7St4ugNzz/33cl536XeqXcYgAEYgAEYgAEYgAEYqA4DmBsxcM3rNo2OMsyN1XbZx+tBrKyprbxjGZni6uOJqalGzI3d7Yx7shrhGrvskOFRGUlzJNS/RnjU55afbUvC/s3rFtiRPurjuAW2OsMc8byyzaoH9hdlw4Ns5YQgSaUvFFjh62WUY24cekUcW9EwLdo1N9ZecWi9/9PaGHmCrV9oh9b6w+TUVI08jM7b2MRGFkZPM0GeW2RH1dIvYyFxv3bI25W5pfMT2DZRIGlsbN26tWZoeN9VRYPD8160n+Y47ukwAAMwAAMwAAMwAAMwAAMwMD4MYG7EwDWvx9HcaBgkoxesHTYihg2F0Z8ljIcRc+Ngu+zhrAYVzI1ZS7LLOzJCI3GNzZttdW2tjuF8TdnFps26zG72tT1gKFtTtGlLGw+yNYkv8nGVFBgxBbJGLBQoTFhzY/S6HY3gfbvmxrLT8vrd9M9GX6uRh1l3NynLfXNtj1r/fpQtem70sWvnT62bLGnGx+hDW3jXyNuYESstpMKhdQXSjA3XJn6mfkymR1X+vN/lx0nWdyn2wwYMwAAMwAAMwAAMwAAMwEB/MIC5QcC1rYDr6AbcMCayRl2MjLYYGGsW1NNqpDHawEgPpKWOquiRuaH8rv/NZTbjQzuNTC2j/Ex5/5E29/bkAuT90dBH1xd5qpIeHmSrSlCQfBZRYJnNGjZsB0dNKVXk3OFjRqaE2sPm3hfPawTvRxsO8Ri9bhyXDPKXaW7k50H5WGvz/rHez4/Oh+8vayFxL392uf0ItsUUiOaFpqJKMy+KHFPsar09yvvdKt0ryCvfbWAABmAABmAABmAABmAABiYjA5gbmBt9Z27MXtpmZ9RDc8M7i40PL7HLZk2zXXwdj4EpdtB37h69FgiMlcBYm0xMAO09yNbb0B5X664C22zpKcPG7eAsW5q+3nZuFkamcxqcY3HFjWha5BsL2UH+EXOjXeMlGCf5eagXcWRh8TgNli+63qY+2eJllzv7HD5JKtCKadHKscnrjNd773f9Xs928t6DqXvqHgZgAAZgAAZgAAZgAAb6mwHMjQkQ/Bz/RtYYddH+yI3VdsF+9WDfwZdkLQbepDGNg7kxov2Lq23BcXsNj+Q4yC74fZO8wh2GR0EGPMg2XkE+rtsdBbbdOcsGh0dvTL0krplR4HphWqt9zk0utN0I3qcv0j2c/ralNnP4+qNHTJitvWT/el92yEJrMWfDiTfyUMTcsE2LbXotL421Ndy8KW8hcde1kbdkuf0ItvkK6L7n/VLWiI1kCtHgWLFihW3fvj15SF+99/KN3OML9tccz3cfGIABGIABGIABGIABGIABGOgtA5gb/GAtIchchrmx2ZbMmlIPqH3oAlvdTr2Mp7lRy+8SO2U4WDjt8jUl6NrbzoDOtz/19iBbX0X+yEwJCmywhdN82r19bM7yosM31trCIwbrfeXgdFucWKfCbJXNfVc93TxjIJorY4L8I1NeNcyG1grcMBAKmRu2zZZ+o16mqfNlp3gZ2r1+Xm4beRtT7rzT+GyUAuvWrTOZFGlTUY06MLxxg0Pn9vuf97vcF/vzvki9UC8wAAMwAAMwAAMwAAMwAAPOAOZGO0F0zkkE7guYG5dPGx7VMMNu3pjRAO85w3avmQNTbFru6I31dvd3LrC7k/XQR+bGjJs2JjTKKHOyDLxHtwQDHmTr92Ag+WtDgXUL7fBBn55qf5t164b8RDYstTkfHzY2BrIMkYZRMDA405ZuSUlyyzKbs7cbKwM2Nsjv5sKADR6x0Na+npLG8K5NK+bavBXJzxsGQjFzw8x8YfEPzbNVPqql1IXEPY+NvI0ttx/DtogC7Yy+0JfPKvx5v+tfltnyHQYGYAAGYAAGYAAGYAAGYAAG+pMBzI1EIBFQ2wG1ubmxecS4GLCDz73b1r+42Ta/uMauu2VFCGZvtCWzfGqnKfaB6RfYkgfWN9av2LDGViyaa0e+XyM8UhYm74G5sebyI23arMvs5pVrbH0waTauW2ELZg7nfcoMu3lDOzpyDu1vLAMeZKtCQJA8tq7Atvvm2lQ3OAYGbOd/nG5zr1xsq9Ztsk2bNtmmDQ/ZslsX2tzjp9rOwyPDBgZ2tqOuzZkwyo2CgQEb/PgcW7rOR4Vss00PL7JZ+w3a4BGH26HD6aUF+bctn2P7DH8+uN9Mm7d8rW3yZF7fZhseXmwXHLN/bWqtsQZGw0AY+1mWRm6oHGqHD49MyZ1WKyuZpvsbeUsrd9PTOWBSKOD9LveksfckNEETGIABGIABGIABGIABGICBfmIAcwNzI5gL7TbOAubG5jW24NPD006NBOgGbGDWksT1V9t1I2tXNJ4sHojnDAzYXsddZ2uSddcLc2P+wcMjUDLyNuUgO+MeRm30UydX9bx4kG1SRBQnayGfW2Zzp+2c37eEPnDXI+bZqk15Ym2zZWfWjYdk31l7v/csW/pc8yD/2p9NHzE4UtNRnvaebovXJ/PSSLu4uWG2dv7UhgalLyTueWzkDXPDNWGbVMD73arfP8h/u99rOQ92YAAGYAAGYAAGYAAGYKAqDGBuJAPkvE+YDUUacxFzQyM1Vtt1s460vd5WNwam/P8H2bGXpy8evv6eBXbG0QePHKvA2k57fsCOPPECu+7369Pz2ANzY7NGaFw4w47cby/baSTYuJPttd+RNuPC62z1+iJ6cUxVOsh+yKcH2ZLBN95PPAU2rVlqC8+ebod+aJ8wSmPQdt1vfzvqlFl21H4+JdWADQw2n8Zqw50X2PRpjbQG3znVpn9/sa2tTVVVMMj/3CpbpDztHcyXt+9j+39hps27da2leyyNtFsxN+y5RXbUcL+at15IZzXfyBvmRmdKTuSzvd/th3sAeeA7EwzAAAzAAAzAAAzAAAzAAAxkM4C5gZmRbhSgC7rAQF8w4EG2iRxIpGxFFdhkD1050/aP01hNm2tLmyzVUTT1cT9uxNzoxkLi4146MlAhBbzf5QdE9g8ItEEbGIABGIABGIABGIABGICBfmAAc4MAbl8EcPuhMZAHOuV+ZMCDbBWKC5LVbiuw6SFbeFKcdmpnO/TspbYhZ+HvbmepjPTXXjI8LdU/zrOcFUXKuBRpoECuAt7v9uM9gTzxXQUGYAAGYAAGYAAGYAAGYAAGGgxgbmBuYG7AAAz0MQMeZMuNxPEhClRdgW1LbdbwiJSjrk+f7KrqRST/1VHA+11+MDR+MKAFWsAADMAADMAADMAADMAADPQjA5gbfRzU7EdgyBMdGQz0lgEPslUnLEhOUaB1BdZecWh9MfF3zbVVrZ/OGShQqgLe73K/6+39Dr3RGwZgAAZgAAZgAAZgAAZgoFUGMDcwN3hqHwZgoI8Z8CBbqZE7EkOBflFg2yZbdeV026e2kPigzbxjW7/kjHxMYgW83231SzXH80MMBmAABmAABmAABmAABmAABnrLAOZGHwc1aQy9bQzojd79yIAH2SZxnJGiT0QFls+pj9SomRoDNjAwaFPPXWVYGxOxsqtXJu93+/GeQJ74rgIDMAADMAADMAADMAADMAADDQYwNzA3eGofBmCgjxnwIFv1woPkGAVyFFgx13YeHq2x68en2wV3bsg5mI9QoLcKeL/LD4bGDwa0QAsYgAEYgAEYgAEYgAEYgIF+ZABzo4+Dmv0IDHmiI4OB3jLgQbbehva4GgqgAApMXgW83+V+19v7HXqjNwzAAAzAAAzAAAzAAAzAQKsMYG5gbvDUPgzAQB8z4EG2yRtmpOQogAIo0FsFvN9t9Us1x/NDDAZgAAZgAAZgAAZgAAZgAAZ6ywDmRh8HNWkMvW0M6I3e/ciAB9l6G9rjaiiAAigweRXwfrcf7wnkie8qMAADMAADMAADMAADMAADMNBgAHMDc4On9mEABvqYAQ+yTd4wIyVHARRAgd4q4P0uPxgaPxjQAi1gAAZgAAZgAAZgAAZgAAb6kQHMjT4OavYjMOSJjgwGesuAB9l6G9rjaiiAAigweRXwfpf7XW/vd+iN3jAAAzAAAzAAAzAAAzAAA60ygLmBucFT+zAAA33MgAfZJm+YkZKjAAqgQG8V8H631S/VHM8PMRiAARiAARiAARiAARiAARjoLQOYG30c1KQx9LYxoDd69yMDHmTrbWiPq6EACqDA5FXA+91+vCeQJ76rwAAMwAAMwAAMwAAMwAAMwECDAcwNzA2e2ocBGOhjBjzINnnDjJQcBVAABXqrgPe7/GBo/GBAC7SAARiAARiAARiAARiAARjoRwYwN/o4qNmPwJAnOjIY6C0DHmTrbWiPq6EACqDA5FXA+13ud72936E3esMADMAADMAADMAADMAADLTKAOYG5gZP7cMADPQxAx5km7xhRkqOAiiAAr1VwPvdVr9Uczw/xGAABmAABmAABmAABmAABmCgtwxgbvRxUJPG0NvGgN7o3Y8MeJCtt6E9roYCKIACk1cB73f78Z5AnviuAgMwAAMwAAMwAAMwAAMwAAMNBjA3MDd4ah8GYKCPGfAg2+QNM1JyFEABFOitAt7v8oOh8YMBLdACBmAABmAABmAABmAABmCgHxnA3OjjoGY/AkOe6MhgoLcMeJCtt6E9roYCKIACk1cB73e53/X2fofe6A0DMAADMAADMAADMAADMNAqAwOPP/648Y8GMAADMNCfDCjI9tRTT03eKCMlRwEUQIEeK6A+V30v98X+vC9SL9QLDMAADMAADMAADMAADMCAM4C5gbnDj3cYgIE+ZgBjo8dRTS6HAiiAAmY1U9m/LLPlhxMMwAAMwAAMwAAMwAAMwAAM9CcDA/yCRQEUQAEUQAEUQAEUQAEUQAEUQAEUQAEUQIdu6KIAACAASURBVAEUQAEUQAEUQIEqKYC5UaXaIq8ogAIogAIogAIogAIogAIogAIogAIogAIogAIogAIogAKGuQEEKIACKIACKIACKIACKIACKIACKIACKIACKIACKIACKIAClVIAc6NS1UVmUQAFUAAFUAAFUAAFUAAFUAAFUAAFUAAFUAAFUAAFUAAFMDdgAAVQAAVQAAVQAAVQAAVQAAVQAAVQAAVQAAVQAAVQAAVQoFIKYG5UqrrILAqgAAqgAAqgAAqgAAqgAAqgAAqgAAqgAAqgAAqgAAqgAOYGDKAACqAACqAACqAACqAACqAACqAACqAACqAACqAACqAAClRKAcyNSlUXmUUBFEABFEABFEABFEABFEABFEABFEABFEABFEABFEABFMDcgAEUQAEUQAEUQAEUQAEUQAEUQAEUQAEUQAEUQAEUQAEUQIFKKYC5UanqIrMogAIogAIogAIogAIogAIogAIogAIogAIogAIogAIogAKYGzCAAiiAAiiAAiiAAiiAAiiAAiiAAiiAAiiAAiiAAiiAAihQKQUwNypVXWQWBVAABVAABVAABVAABVAABVAABVAABVAABVAABVAABVAAcwMGUAAFUAAFUAAFUAAFUAAFUAAFUAAFUAAFUAAFUAAFUAAFKqUA5kalqovMogAKoAAKoAAKoAAKoAAKoAAKoAAKoAAKoAAKoAAKoAAKYG7AAAqgAAqgAAqgAAqgAAqgAAqgAAqgAAqgAAqgAAqgAAqgQKUUwNyoVHWRWRRAARRAARRAARRAARRAARRAARRAARRAARRAARRAARRAAcwNGEABFEABFEABFEABFEABFEABFEABFEABFEABFEABFEABFKiUApgblaouMosCKIACKIACKIACKIACKIACKIACKIACKIACKIACKIACKIC5AQMogAIogAIogAIogAIogAIogAIogAIogAIogAIogAIogAKVUgBzo1LVRWZRAAVQAAVQAAVQAAVQAAVQAAVQAAVQAAVQAAVQAAVQAAUGzIaM/8mrwYsvvmj8owEMwAAMwAAMwAAMwAAMwAAMwAAMwAAMwAAMwAAMwECVGMDcmOTmTpVgJa90rjAAAzAAAzAAAzAAAzAAAzAAAzAAAzAAAzAAAzAAA2IAcwNzg5EbjF6BARiAARiAARiAARiAARiAARiAARiAARiAARiAARioFAOYG5gblQIWVxZXFgZgAAZgAAZgAAZgAAZgAAZgAAZgAAZgAAZgAAZgAHMDcwNzA0cWBmAABmAABmAABmAABmAABmAABmAABmAABmAABmCgUgxgbmBujAGWBeYn7wLz1D11DwMwAAMwAAMwAAMwAAMwAAMwAAMwAAMwAAMwUAUGMDcwNzA3JjkDVeioyCM3VBiAARiAARiAARiAARiAARiAARiAARiAARiAgcgA5sYkD2ynzU0XAeE1HQYMwAAMwAAMwAAMwAAMwAAMwAAMwAAMwAAMwAAMwEC/MYC5gbnByI1JzkC/dUrkhxslDMAADMAADMAADMAADMAADMAADMAADMAADMBAMwYwNyZ5YJuRG3QSzToJPi+XkfsefMy+cfaldsEVN9j27dsNfcvVFz3REwZgoFMGXn/9NVu06Do77LDD7Ec/utD+8petpfTVp532bRsYGLDjjjuutDRzy3rZPLOBgfr/jBlmr79WSjlyr5n2vfrNN8yW/MLs0EPNBgcbedp5Z7Np08zWPzU++UrLK/uoCxiAgTwGfnlXvQ/baSezhx5Eqzyt+v2zra+YHX54vT6/9jXqst/rq4r5e26j2XveU2fsrW81W/U7OKtiPZLnSnCLuTHJQcXcIAjUcpBikreZTvV6bO1TNvucy+yyaxZX4ibRaXk5nz4GBqrBwBNPrLMLL/yhfepTn7JHHnl4UvdP9977G9txxx1rRoTMiJtuurEUPcbV3BivwM2WzWZHHdUwNNxs8S0BwlLYop+tRj9LPU2AesLcmDh9FubGxKnLfo1PRHOD7zvw1q+cTpB8TThzY2joTXvw0aftuFMW2n9+x8n21zufaHf/Zg0NKQPYpLnxpz9tsquuGrJPf9psl10av0X1+pOfNDvjjCF74on0L6YLFgyNPCDov1mztvfck57GaafV0/jwh82efz79mLwfBmXkwdN//fUhUz5POMFsjz0aWuj15z9vdvvtQ/aXvzTy+MgjQ7b77o3jssqe3K8y+zU73Zadh1dfHbLbbhuyT33KTPdj5V3bz33O7K67hkwapeU5Lx86X+nNmzfUVh2nXa/IvpdffcXO/PX19jfnH2v/6azDbf8F37KXXy3nady86y/73QN27eK77NXhURp/fPJP9i/nzrcf//S2Ee3+8MjjNv/aW23L1u7kp9N2kXf+3nub/fM/mz300JANDaXzEPV58skhO/30IdN53hY+8AGzuXOH7Jln0s9XO/RjDzvM7KWX0o8TU37cccfZqPYZ81DF166B+hi1ryJl8HpzLdRf6bU0atbvxDac7K/VN6uPdq3ztn7tmN+8871/0H3olVeyy5mXRjI/aXmI+any6wULfjISgFcQPu//wx/+sD3//HOZ7Hhau++++6Q3N5Ys+YW95S1vGdHz6quvytStFX762tyIP8CTjSjrvZ5G1HkZ3zFt6E2z75zZ6Cz0RfLX99TP0Xkrfmt24w1mT/8pOw0d992zGiM+ipg0eprav7Rk5V37dUyRJ6818mT1H8y+9S2z977X7L/8l0aZ9NSvAmRJDXTO7+8z+/rXzd79brP/8B/q52jkytSp9XIXGRH0yhaz+ZeZ7buv2X/8j400jj3W7LFHraZx8trJ97rOgp+MTkOjZr7xDbN1a8fmPXl+2e81gkjXjnWjgHHWdVTn8dis10XYyLpGP+/vRttst7xl18VLm8yuX1Qf1fX3fz+6nvOYaDf/fp76psf/WOcwXldtW19wrrrSLKt9lmluqO87/TSzf/iHetnVT+yzj9kFPzCTNp7fft5KJ/Xj0i32jdL1pJOy+6k4sjCrTSf365wytSjL3FBdqY+NoxNVl7vtVmdMrIm5vLzrc91n1Lerf1bZnQelncVjXpqdftZqX63rqRy6N8Vy6N510EFmP7vJ7NVt2TqUcd8soy5cN+Xn339l9tGP1uuj6HcGP1/b2H+3c35Mi9fZ7KAN2tiQTRhz480337R/X/6YTT38gpqhIVPD/zE3sgNEbm688MKL9vOfb7Y99ni96e+HZKDLb9QeSEt+D0l7n5VGv5gbDz88ZB/72Ojv2GnlUJm9/DEYmHZs1r5mQUZPv8i2zDzIxDrkkHwNvvhFs40bGxp4HovmQ/f4a68dsjffHJuGp9Xp9unNL9jxt15i//l7n6uZGjI2emVuvLzlFTv74qvsa2ddbGdc8BN79PEn7flNL9npP7jCfrbk1zXD4+qfLbWvf/eS2v/SX3dnqGqnbbPI+W95i9nZZ2cbXjLCfvzjIdthh2ymZKJef/1Yk+SmmxqmxY47mt1771heFAiX6ejtTN9DX3xx7HGd8jRe599//5C94x1WM1DVvork46KL6rp985tWM56qYG54/Wn7vvdlGzmYG3UG3JDIMzX8M8yNYu1GbeuVV7bYN7/5zdrojWOOOcY2bvxzoTbXrF323NzwIJwaVLOgUPwBHhti3utm5oZ0U6BOaeipGY3iKPoDVEH36dMbAX3PR5EAdpnmhoJSMmX8+sltlrlRJA977WWWNUpKAaJf/dLs7W/PvrYCRpf/OD9otvZxs/33z05DwUgFcpsF3orWW5HjxGUMgkrTvEB22QH1Innsp2O60TbbLV9ZdaEAp0y7OE1dsm3lMdFu/nWeArbfO7thOCav6++z2qf3q50EKhU0VcA62Q782tr+z/9pdv/vi/eZnWjS7rnqv6RTzHfytQL00js5LeJEMjeatYssDVz3l18yO/HEfCZlDjzzdG95aLWvVh1f9KOx9+3IxCc+YfbnZ9PL0el9U3p2WhdKQ/3TDdfXzamY93bafDTQmn1nch7YpvOBLujShIHKmxuvv/GG3XzHH2yvj5w1Ymbs9sHT7fDj54+8x9zI/kHv5sZtt222v/3bN2vfTfbc02pBSD2JrQCS/teuHbJbbhkyBclWrUpPzwOgBxxgtmZN41xPI263b09Poyxzo5M8qNw+NaLuZ3pY7rzzhmzJkqHaaIWFC4fsy1+uj2yJ5oaCtwqmxnLq9SWX1AOMWXnasiVdi8IBgNDIy8rDs88Omb57qPy6j597bp0BlUeB5SOPbHyPlRbJJ6yjuaHyR01WrhyqPTWudJW+guI33lieBq7bYy88Y4f89Gz7/7772ZqZ8dff/Sfb9/LZNuW8o3tmbigvL2/eYjIwZs2dVzMwLr/u5/at839sl159i33nwoUjxsdv7nvQ3tSPnVCfZb32tqkHiH7729H1EetGr9PaZtb56hdkWKjPyKtLjehQu1Fd6zhNsa6RPzLG1q8fqo3i8ZFi4uKXvxzNg1/fR1Cdc85YA0RcyfhQ+vpvd/RXWZqXnY63KWm4fPlofbKu5f2pG6jdMDeS7TvJk0bZJEf06Bgf+XHqqfVRetonHmR8f+Ur9X7BWUkzqWIa7eQhS7Oq7ddaEBqN4f9r1jxmBxxwQG3EwSWXXDyyX5+/+OILuX2MGyWM3CjWvtphpa/NDf2Yv/vfzX5xR/7/bbc2nmL80IfMNr2Yfd+KgYqfXpt9XLzvPfiA2f/+340gjwL4MkY0V7U6BQUu4vFpr/26f/u3Zst+3RgpoiBx/H/h+bEBt5ientj0LyvKh4ataoqyJ59opKPypxkDyoMcWo32+M3y+vEK6ChYJCdewS6VR0/6ppk+99zdKLO+lEo/Bbb0r6Cg50vB0awgsI7V0EhdR0FkjYBR3rVf6b3rXfXPlIbWRIll79ZraeBmy6671q+v/GWVQfnwYJWGUsf6S77e/HJvytAtbbLS7UbbzLpWs/1l1IV4V12q3vWvL6fnnlMfyRXrdPur3anPa69ptD89CXPH7fVgq66tkWWxfWrop/SPuohV5VttUO08flb0dczDl75k9tST9X5EwWH1WW4YqA/JG9lW9HrdOE79pwLu0kL9yxlzzP64pt5G1c9ceknDnFUfs3zZaK1kvDa73+jzH15g9ld/Vb9O0ftI0fLGwHORe0tWuvoyqx/Oyp/fH6SFAv1uUKvP1/0zmca2v5gdc0y9fLrPfPWrdVNLPP5updlnP1v/TDqLzbSRgsk0y3jfal+t+6AMS7+3qW3ddWedB5l0J5/c+EyBhLT7Xqf3TZW7k7rQ6JiLLzLTdwfprX8Fgvw+2k6bj4xhbozlvwxWSQNdhxmYEObG1+fcUDMy3rbXP9ulC+62V7a+apdfuxxzo0BDl7nxzDOb7POff7XWfx900Gu2YUN7P+w9ANlJUNGDce2m0WkeYlBfT5jPnz9kmpppzBcRqz+hnjU9Tjy+0zzFtNp93UoeVN6ZM+v3c93Dk4Fm5UEmyllnNZ6mV/oxbx6I1XeC5Gd+3OrVDRNJI0TSAph+bDvbe9Y/bP/1nC/UjIx9/u1UW7b+EVv/8nP2dxfO6Km54XmXybHgxl/YqWdfWjM0fDRHN00Nv7bXfytTGvm52jY7X4agT8kms2vbttE8rFgxNBKHSTPDdI1oKh58sNmf/9xIw69/yin1kQsf+YjZc881PlfwXIaHePu//7fObrt9SCx3P72WYayZTVTGrJFvyfx6fypzUp91w9zIat/JvMT30Zhw4yV+rv5FU5eprFlmTkyjnTzE602k1zIxNEJDozVkVrRSNsyNRp/Sim6tHNtzc0NmhQcaygoKuXGgBqon/vO+a3oQUMfmBa9jGgr+KM/6V9BPIzjiNYsEoPz4dgIRnhcFpvTktPKuII1GcPhnRbZ6WCHN9NC5CmDqKV2lnbXAqI75l38x040vbToSBQr9qW8FxpKBYF3bpwTLMi+i+aHRKd2eBifmSUHbn1xR16AZHx5QL1L3Repmoh7j3EvPZm2zXQ06rYvIgLiUUZc0D9rNW5HzFFCVoSiNspiP7VMGnILwMW3v19rtX2RW/K//Vc+D+gFdL6av15qeSOkrn2rHWX1J8rxevo999S03jy2D8qLg/N/8Tb0cMj9azZ+00dy30kGmqAyVVtPIOz4GnjvpX9Lq0K8bNZgxI72+H1hdD6DLCPfzfKv24XPK6ktx2jF+bFnb2E6L9tXxnplmXihNNz90f09jptP7psrfSV3E/kGmlEZvSH/v99pp8zKv/KnQZg+ElFV/pDO2HaHJpNCk8uaGbgC/+d1a++rp19ufn2s8sYO5UexHusyN++9/yfbaqz4d1Rln/KVt8D0A2UlQ0YNx7abRSR4UIPVRFvruoCfNk08cj/nCUaCj7CRP7Vwv7ZxW8hAD0eefn62BzAiftiq5DkIRc0P59Glz9MS9nrxPy3u7+7a+9qp95obz7Io//NLeGKqPiNAUVeNlbryy9S92w+132z+fc1nN3NBUVOdceo09/tTTNlSAo3Z10Hle/90yN2LQPNl2o1mm78fr1mXX86JFDcNMU1F5mS+/vL7/Rz+qTz2l9qmRVP65jA4ZHh/8oNmtt9anb9Lrp59uHOPHlrXVKJtly35tJ5xwgu2yyy61YLLm6NdT8z/4wfftz1lDrtus6xjML2JuvPHG0MiU5qp/lTvWU5qpELWJbTh5vZgXTzue2+x1PD8rH7qmfsvqP+0aMY20z5vloezPe81DVv5bMTfczPBpq4psFZzPurZrcNRRR9lOO+1UaxPa6r3aStrItHvuubt2nNJ9/fXX7KKLflQ7V+ddc83VpnXUXnjheTv11FNthx12sH333deWJ5/+bLNNJcvhxkOaDspn8vis96++us3uuON2+9znPjeig/cNe+65Z628xx13nGnUTVYape2Pwc6i5kKenq0GmjwIqIZc9PoKXimQ89t7GwG9WI4iASg/vp1AhMofy6knNmUC5OnSzmcK7Hgnl6VNXqAnBuXSngaNAdQ5pze0TOZVIzZ0U1WwKSsfyXPafe9BPl3v57fVr9dMA13LA0tF6j4vbwpSac53PW2uJ6R1bT1xrrnhFUzOCyCLCfU9WkMlrrsi3fTkwdnfrT+hnHf9bn4WmW0WBO5Eh07rwtumdFOgM0/zbuilp+F9eH4eTz5lUlof4v2af6Z2evvPG1ypbPvtV9+nz5LlkNEs9rKMTR2v+tST7jquWUBUBrDWsEmu0yB9tWZP8vplvc/TyK9RVG8/Prl1XqRDEcNOWmi0nK9hovOki9q41kBK1kfsR52HZzeYzZ7d0FN9hN5rfzJ/Rd5rRJlPh5A1jaHSUZ1npSfmxJXKI92zjvP9rerg5/m2nb5aI2yUv7/7u/oIHk8rbqPeeVrEc+LrIvfNeHzydZG60KgqGXGx7Xi/520+mW6z935+O2VuljafN28PaDRpNJoQ5kZaB4+5USyoJ3Nj5cqX7F3veqN2P/ra17a1HdBXgEn3tGRwM61+svaNp7nhAVKVQQb7yy8X0zCrLL6/DF08rXa3reRBT3lLA33317RDedfMMidiYDQv8BgDmMkAat512/1sPMyNaGrI0PjRgpvsX877N/vBj6+vrcPhJscjf3yyayaH138vzI0jjjDbvLnBjdZuURxATKVNJxXrUmaETAkdqzUIfYos7xdUDmdOvzMUwNf5MjoUK9FvuwcfrI8iabesMT9ZrzdseMa++MUv1oKUaYFQ7Ss7eNlqMD8aGd4G474sU8HLHNtwsm22mhdP07fx/Kx8xL7hjjsaPKWl4eXzz3q9HQ8esso4XuaG1qiQAZHVHrR/xowZtjkxbYybG9/+9rds4cIFoxbx1vRY9923yr7yla+MSvfAAw+0Z7oQbC7D3HjiiXV2yCGHjMpvmiZl9w9ZPJS+PwaakgEWBY1kTCiY5f8KJKtD179e+/64zZrWKf4Yjdf1AFT8PPnaj283EKEntfXEtoJJaU+XJq/XznsP0uQFOJul6wGTNHOjSPrJ6YHaebK6WR79c40K8bVL/Gl1DxKLjzxjxctZpO79esmtHjjwAKMzGbeqawVFFfhPnqv3HsiN5yRfK6inJ7DTzu/2PmdeeUq2zXjtTnXotC7EmPKYNWoi5rUbr4sEN2W4yBBUPrVmUHLNJedW/cu9vzE76qhGPxeZEFNpBo5rmNZuY5mbmSDKpwL+PoIrXttfd3PdDu9j9AU8a1o7Pc2vdqH85HEZy+2vo2H3/vebbXgmu22p3c79XsO09PLHbdr9IAbbVS8qh8yMeJ6/btfojsxljdzwMmdti7bvdnWI122nry5axjjVY9qoqJiPtNfOXLv3zaL5TF7b22waQ8ljeZ/dTtEGbbrMAOZGlwUely+4LZRJ5sYTT2yygw/eXruPa90NPfnczogFD6BW1dyIc/bPmzc2mNZuXZahS7vX9vOK5kFBaQWn9T3u6KPNtm7N10Fz/+s7rY6/+urGsTEwmhd4/NWvGk9nJwOonvcyt702NzQV1XcvunJkXY0/PPL4qAXFZXwsuOGOkQXF71q+qis3Pa//dgP+zc6P01IlDQwFpv13geo7rz41nZWmrdLxcUHwaG488MBQLebkIzNkgMgIqf22WjJkzl67Zc3Lnz579tkN9olPfGIkePmZz3zG7rrrztqCw1p0WMHaWbNm1QK5ZT6ZrbaoNiltYptywyK50Lrv1/Gue9yXZSp4+V1HnZ9sm9GciHnxc5tt4/lp+YjTUmWZrDGNdvLQLI9FPx8vHrLy14q5kVyvQ2t0KBC/22672W9/e++o9TqUrv63pMyRrBEXZ531ndq5MiRuu+1W2z48RY7W+Tj33HNqoy6U9umnn1YboeH5d3NDhsD73vc+O/744+2hhx60T3/607X0Zs6caW9961tNebv33t+Y0lc6v9JCyy181ylyrMrm5dRW5XBjosjIjciCRnOp3GvXPl5LU9srrrjcPvjBD9bSrKS50SzQJMNCDVadRiv/RZ5kjIEdBRma1b0f324gwgMoWpPiT+ubX69ZfpKfqx1pHRHpVKT8yfP1XvWhQJnSSAuSehBZQybTpnLRyI5ksF9P9mgKjbTrdbJPQdh5l9bzqsWztL6A0vMgscrQTXNDevu0IFrLQGsaSD/lS3nRwvX+VLTyqf3J8iowqxEaZ55htnRJfTSPmFfwVk9b+EgQjQpJ0zuZXpnvm7VNv1YZOniQr0g79Ov6NgYWzz9vrMZ+XLe3l/+4Ud+ayzQ+oS2T9vpFdcMgy5xwbvXF00dLqA3eeEN97Q4FyH3NDBkPydGGrmFau41l1/RD/iMrzTzQPqWvfGpUpXOn+6/6MF/rQX1AN9btiGsyyMBQu4ptRyMdvJ9rxxjwflz9Q54xIv41hZ+O07/KrfU+fO0LGY5a00WjaZRm1DiaG7pfSE9f9+LRR+ppKG3vH9LWYInppb3WKDXVY+2HSptrG636XWMNpiwtOtHB891uX+0PBEj/Ky4frbHSVrvSVKnRiJOmmjrTr91sW8Z9s9268Dbb7neKZmXj8+IcoBVa5TCAuZEjTuHOtsJpyNzQ/803NxYU171X3/U0fUwrJocHQLMWzlYwSv+azujNN9ODnB7EbNcg6SQPfm7ZUyR5uu2WqQwOi+ZBC/oeeGD9u2Fa0DGZlxgA9Xn9dUzcr2snz9N7seXrJOjJfj3hn3Zcmft6bW4o70vuWWnX3Hynvbp9e618j619ymafc5ldds3i2ntNSXX/Q3+0+dfealu2dmeaEq//dgP+WedrIflbbmksKK44idatiXXmU0oVvbb3AZEJ36d86JpaT0/fn2Wc+MgQX4fD2St6vZjXZq/feON1O/PMM2rBSU0zM2/epaMCtfH8117bXptSJ+7r5HU0JqSpp+XllR7RWIpGpZsTMY24kLf3zXGrhee1xqfS9fP9mjpO/Zk+a7aYt67p5/k2nh/7Gd0XHn98qHb/8d+BWdMDxjTayYPnpZPtePKQlW8F5Xu95saSJb+ojbjYdddd7X4tGpn4TqSppX7ykytq7UbHPBCebHZzQybCfvvtZ38aDiTHURRuBGzd+oodffTRtXRaXU8kmaci72PempkbKuM558yt5e0973mPrdYUNwkd9N7L5WWKx2x5ZWvN/H5+00uFti9t3tK10X4xXyOvY6BJ008kyzeRzA03BrSwuaYk01RECmx7gEsBGs3LqeBicpqTpC7xvYJPCpj54rEKOibn84/H571WINMX5k6uuaHgpl8jzTzRlF++noi2yoc69CwjJC8fRT57+KH609vST1N++DkeJNa1u2lu+HQp0VjxPGiretHQT+VDayGkBYJf2z46cBvPjwFB3bx6MSd+vH6ztunHlqGDB/naMTdiAPS6n9aDnVr/Ij4pr+mETj+t/SmAvKx5W9X3t7/VaM9aPFjBb9Wbjy4Sq987O32qoMitmPnCF8xefqnBta4d18zQ9FK6pufJ+5dmT67Hek0GtOO0c9//13Q2Yx7S+mzPTyfbBx9o9CXSTPrp6fwLf9ioVxk9jzzcKH+R60kvX2sjq016OuqH1e5UFzJTnn8u/VpvvG6mfz9P22hu6HyxqAXmo0kT+wetH5LyPWdUmp6+RiWKcwXEpY3qIHLgxxXZaoSO8pfXv3Sig+eh3b46GnHJvlxTcKp/lQb61w82jbxQedKMEM+Lb6VZp/fNTuvC+z3MjdHtx+uILbr0CQOYG31SEak3xR7kzc2NF1540X760y329rfXp6fS/Ub/H/uY2VVX1QOKzfLoAVA/N2ubF+T3IGbeMXn56CQPZ55Zf8K87KCo56ndMuWVt+hnRfMQA6Wa/qdZ+jHAGIOUMR1dOy0djZTxhzzjFENpx5a1bzzMjWTek+ZG8vNuvPf6V7BaQWvVW9r/Sy+lG5p+flab1n49FPnUU2Pr2tu0j7RoVj6/lrfDOJrDWfK1OTRi49pr6+3WA/uRvWRQvtm1/5w5NQAAIABJREFUm32up68VuFQgVk+Ua279ZueU9XlcQyO2NddCdaBYm8xjXdPbZjRro7mRV5fJz5I6etrJ49Lee51FHYqcv8suZldeOWQaxRHP9ddF0vD8pOXB0+lkO548ZOW71+aGRmicdNJJtTYxe/Zsk+GTlrenn/7TyKgFravhx0QDQWah73cTYMcdd6yN2NB+jTSRKaD212/mRizfhRf+MNPY9HKlmRsyvL921sWF/8+ff51t3dajPqiVQFP87hqDgMmARzyu2esY5CsSVI3He0egrQJXU6eaXfCD7PURVFYfERHPzXp9wglmeqI0qwwKSibP/au/qgd79CR71nl5+5PBdAW14vExYKenlTxQl3x6VqMMNHJBT9Erj82eJI/XKPpaefEnEpJPPRflwwNLUUcFyfSlRnWlYGqWyaSgltYs0Ll5Ad74ZLSeei9aPj8uMtcJ655e0W3RtlmWDp3URdQ41mXaawURVa9FdWj1OPFy6+LG6IaYB5lgmm7K200y7citvvymtf/YjyRNQ1+IW9fMGimka+pBABkvOi5pbviUVXmB/5gHPX3Ubn+TLH/yvUZoxNFPUctvfnP0yJjkuVnvY3vKa7f6Hv7FL9Y1klGrkVRZaabtj32lTOtkX+rnRHazAvJZBr94+vU92Tz5NbK2MrLcgE4zq3VepzoojU76am8T4jU8wFIzin2EoEbEaJo23XM0KjKNa9eg0/tm2XXh/R7mRmvty+uTLbr1iAHMjR4J3dKNtod5cnPDt3/84yb7/veHTIGl+N1EfbmezNdT01ll8aBkPC/tdV6Q3wOhecdkXV/7O8mDX9uDqnnXaeUzz1O7ZWrlWlnHFs1DDAzrnKz0fH8MMMaAa0wnPlWtkSGayurb3x6yHXaoM5b2tL+nX/a2H8yN+x58zL5x9qV2wRU32Pbh0RxllzOZntd/WnuM+xR3SHvSPu/8t72t/mR/1igvb1dF+fdreTuMAXlnUmvBKAajh970fT8G8OO6HcmgfFKXVt/fdNONtcBqDLi2mkYnx7uW3tZ8Si6vQz3Q5WX2tuk66rpRSz+nyNbT9Lx72kXO9Trzc7Vtdr5Mq7huSzzXXzdLI+YtLQ+eTifb8eYhLe+9NjdiUF96pOVJ++KoCwX4/Tg3NzRdk9Ly/W4CnHDCCSMmYj+bG5omS6aL+oaVK1eMlMPL41svV+XMjRhoynpKOO27qwc81CA7CfjG63dibsSOQYEsTZORDIrHYJeO33dfMwUSNe++gp06fs1jZp/5TOOLcp4maUEaz4fSzuHFuRmzjU9k+/oVUf9YBtdLwS+tKSFTQNf/ylcaT5t7HtPMDZVZgXEFi7L+NYokqaPnRyM1dE1NW6Ongn2/tkX58MCS65a21ZfJ0IeMXMeDknlPPCsvmmJHgWKlnQwkxzxnvY6MZrGuETVZGvp+1V3WNdL2x+vmcViWDp3URaxvtT+lpafgh6cxrJkEekLdR3JkjbTplEnpmGduiFcF67NGAHg5koHcZP14u/of/6P+5Ll/Htc0kA4a5eBTSsmQUID+O2c2jI0kk9G0SI7a8mv49pKL60yntW0dUwaTeeaGpojSVEBZRpHnM25VPh+1kcWAHx9HA2mdlFauozRiXxmNYE/ft2qf0lB1obz5/riNxyT7KAX2NWJHoxjiOc1eSwsfVaZRI1roO+2cTnVQmp301d4mYvBfbdtHCGq/jlH9RJ2y+lpvO0kd9b7IfTNeI5lGO3Xh/V4sX1o9sC+dT3RBlx4xgLnRI6FTb0R9cG03NeJWeVUQTGtvaHSpj/TUvUEPeT32WHrQ24OSRYOYaZp48K7dNDrJg187BgPT8tjqvk7y1Oq1so4vmodoSpQ1ciP5nSK+18M2Gzak85RVlk7294O50Un+2z3X6z9qn/a6mbkR28YzzzTWx5DBoGns0vLn7ardkRsxIO/ruiSD+noo1I3XGPROBuXT8tfKPp+SKhmIbSWNTo710WX6naORHD4ll0Zs6OFh1enpp9dH37jJE+ssaukGSVZ+Yl+Q1DFqLLay0sjaH8/3fGiEhqY4c2P9/PPTRxF5mjGNdvLg6XSyHW8e0vLea3Pj4Ycfqq3RocB+0f8Y2HdzQ1NpKe9eJjcBohHSz+aGRpKo/O9973tNi4p7OZJbL1fUIHlM371vJdCU/F7rAQ91Tnqd/Lzo+xjAVZCh2XnKs4KFCnD4vxah13Qj6iwV3FCeFMSM0yQp3Rjs+j//J/up4xigTFt0OC2PCuzIJFEA1+fDz3taOC0NPRXrC/RmzWMfyyC91LZ8zQmVXaOnpJGnnxcAjWmlfXHQvqzAqZ7QVXBSOmudA7+eb4vyoSfOvR59Kx00r74HHJWPtPUu9CR2Vr6z9mcxpmv/6/lmWtxY9ZZ1fhbrsbxZ52YF+1yzuG2lbZalQyd1Ecuf9YS8yqeRM2JGGqXp0QmTSj9Ok6Nr6MeuDAVN16bAqddN1nRKXo5mgc684+J0Tn69vG3US2uEqG/KOz75WVZePY/J4+P7tDpwDuMUdzKl9GS++l4F8mM/mzXFl6cTt7G/zzPsdI7WbHBW2hlxFVnKave6TtHjYjlkHCnA/6UvNfKYNdInnuev1b59LRGVMW1xej+2Ux067audI3Emtn92U8Ok1PSJcfrFVo3kMu6bndaF2FCbyGpHXg9sx97n0QRNesgA5kYPxR7zpb4Prh1NDX8d86mnsTUHuv8mUr+uQJqewI/H6bUHUNs1JpSGB0LbTaOTPCiYr/LFp8CTZWznfSd5aud6aecUzYMHRKWDBx3T0vN9MQAazZC4X2nF/733rj/0snp19tornn7Z28lubsRAdyvaOj/J8zUF0rRp9frNmlrM21Xy3Kzrex/gZkja2hE6d8mSxmL28+Y1+qMY9L7ppsb+rOu1st8Dk8lAbCtpdHKs14ObUCqf2pam5NL6IzKik2uPxL60n80N1+XGG+vl0KgcLR7v+5PbWM/SJfl5L96PNw9pZey1ueHmRFFjQ8d94xvfGJm+ys9PtinXVlsvZxXMjWQ5PO++9XJVytyIgSY9TdzKk7Ee8FBHpdftfu+NecgLQBVN/75V9SCF8pWcriUGsbKmAPHr+NOlmj9cT8b7/iJbmS0yJ5SHtKB8Whqat94XKtZTBTFgFI/XouD+xV3X8HMUmFE9JOvQAzeavkmjNGJaUQ/lNe0/zdxQYE6jSnS85sFPm7qnDD40IkVroni+kgFOryP/vMg2bbFrBZd9REGzNLJYj+XNSiMvkBzrRa9ju2jWNsvSIZmH+L5ZXcTyZ2mk9GQAyjCURpp2LBpx+rxdJnWu2JdWSlsBY41mUr69HEnjI61tejmaBTqbHSeTQlPkqaweoJdppi9u2q+F63WN5KgjmWzR1MtiKe7XNEDDa1qNlFVl9jzGY5Ovs5iUIeRP5mubXIsiGh8qX9JIds3jNhp2RaaZivnX65hWkdeRpbx7S9Hj0q4p5mRMSINWdJAh5Oc0W6+jEx3K6KvdXNG9UD8MlW9xFEcIujax39KoSN9fZNvOfTOm205d6Hy/RzZr8/FavG6tbtELvUpgAHOjBBFb6pT77HpuaMRtWnn0VO1ZZ9UDabpXpQUNPfAWg2lpaeXt88Bmu2l0kgcPFKp8msc+L5+tfNZJnlq5Tt6xRfOgNRcOO6z+feToo822bs3XQU90+8geBVc9D9Hc0LV9/3hvMTestth7q/Xg/KQZFB6M1u8sTReVTDu2q1/9auzn8fgYfD/iiPrURDGIHUcQaOTIgQfWf9/F68bjy2bPA5PNApixTGW+9nqQuSHTRyM41P6ki+vh770Nxr406tvMvPTz1R9G3VWeTjWO5yfzEQ0zX0clTcOYRtn1nHa9tH3jzUNannptbmgB8Xe84x21UQuamiktT3n7Jpq5ceCBB9pGBeYyvus5M5UxN2KgSaMFWp3PvJOAS9QwBkPyAlDxnLzXKpevq5Fc1DcaA3kjN5R+p+XzERNFAibxSe+sJ8pjmT0Yo05c/1nnxPI2m+Impt/stcwA3ZA0lYp08hEXcaunez1/eu2fKZDYLP34uU+5pLT0xHj8TGaH9jebQiiek3zti+y6jiqbT6Xkx0ZGVV7f361tq22zDB2KlCWvLjwAKh3jSIRkujGQ3MxgTJ7b7H2cvicr7RjsVZBWa2TEdL3dN2u3rnmz42La8bWfnzQmNHrG1zHIm0opptWN174wutp5Vn1qGiX1AapzLR6fZnLGvMV2VGSaKa8Lpd9Ou4us5d1bouZ5x8WyxNdxtEKz88WfL3gv/oqMeulEhzL66lhvqou8fHs/IG60EHnUqcjrVu6baem1Uhd+vt9P223Lng7b1usbzdCsBQYwN1oQq+XOtwJpR1PDX2eV8+GHh2pr9+mepelRksd54C0G05LHNHs/nuZGDOZp1oJXXx1bxmb5T/u8DF3S0m1lX9E8xEWL3/teq017k3UdjepR8FE8JAPbUcvxCjym5Rtzo3xzQ8FojeYSB2lTCd1//5C94x31z7VuT1q9+D5fS0NpeWA7BrGTQXY/L27j8WWzd/nlP64FcRXMVVA3XrcXr2UOSRsZkA89NGQa3SKDR8aG2q5Gz+hzbVetquuuY2VaKn9VMDeUT18kPW+6s27Wc9G6HG8e0vLZa3NjzZrH7N3vfnetXUiPtDzl7Zso5sbVV19V02D33Xe3R/R0fcr3v9dff82++tWv1o5LMzf6ckHxGLAoEmhKlruTgEtMK+ajWWAonpf32oMVSXND5/h878mgYjI9BYXU6SqQo4BN8vNm7/1p+mYBkzgVVd6IjXg9X3BY+dMojjDt26h86mluX9w1bcRCTLOV1142Xb/V/6wnxbOuH/lImhseSFMesgKwWen6fl9wPW/O+5iHdoKsfq2i23i9Im2zDB2K5C3mK1kXjz5ipvUnVBd5rMVpl8SuDLgi1y5yTOyT8p4aV9BVwde0vHoazdqtc6O1XBRQLZI/P0YB7pNPrl9fW733z6Ih2cyA9XPK3kZTIG3El19PJqBMU+nYrD9VGb3vLWqmq2/0RdfzmPL8JLexHHn3lthPKrieTKfZ+zjaJu860iBORdVsxIZftxMdyuirNeJPHKieNcJNZnVyhKDn1dtFMx78+OTW89us/SXP8/dF68KP19a/L7R7zZgWr1tvP2iGZgUZwNwoKFTLN7GKpOuGRtxmlTWaG5dfPjZIWTSAnpW+9o+nuSEzw+et1/fZ228fW8a8vGd9VoYuWWkX3d9KHuKT9nnB4T/9acj226/+PSZpBmFulMNO0fptdpzXf9rIi2bn6vNm52taKH2fTQtGx9FABx9s9uc/p2sjs0yLzysdTQ13773142IQu4i5EaexyuO3SLmTxygQ+5a3vKUWnLzkkottKOuLe5f6f5Vf+shAvv76+qipOB2YT9Ulw+Oaa+rH+hRWKktVzA0fhaKyphlmKkvkoux6TtZ71vuyeXj11W123XU/tU9+8pP2ne+caS/4AqMt8NSJueEB+t122820lkZWueP+l17aZIcddlitTRx55JH28ssvFTrP0+iGuaF2+fvf32dHH3107f8Pf7i/pTwl86aptJRP35+2Xb582UjfcIfWdUjUmfK0cOGCkWMqYW7E4FrRQFOi3B2PbPD0YsA0LzDkxzfb6ulhPUWsTiY5LZXO9SemZVrkBao9SJNmkDTLg+4fCkorDwp+pi2GrTRkpPsaG5oiR9NyNEtbn0fNtMZH1jn6THlo9ynarHQ9AKW0W/1v1dzQk/WqK11HdRfzFJ/UT1t8PR6b9doDW2nTb/k5moJHU7IoD3nM+PGdbNtpm2XoUCTPeXURn37PGjWha8RActIgKZKHvGPcmGhWT7H9JIPmnkZeoDP2MWlTa+XlUZ/JiNMUVWqXv75nNNP63EdN5Bluza7RyefRFMirS13D20+zYLb6Oh/lUcSwU9pxCjOtnaK1kFopVyxH3r3FuW5nCkLlR6MevR+XYZGWR02P5uaO1ivRAyNFf2d0okMZfbXy6Qufa42NrO+v2q/P1f7aGSlY9L6Zpq/vK1IXfqxvneG8Nu/Hsk3nG13QpQcMYG70QOTUG1ifXDeaGv46Lb9xWqoYeIzHegC0qiM3VBYFD3Xf0j1XC9tqgds330wPxkoTfyI66pB8XYYuyTRbfd9KHhR8VhBaGuh3nNbGSF5Pizd/+cv1Y6TXihWjj8HcGK1HUr9ev/f675a5kTbiIpbRry+mNOorbVTUL3/ZaHszZzZGTkWWipgbrQTwYx6LvH7xxRds2rRptUDuTjvtZEuXLsk0OF57bXvmZ0WulXbMypVDNeNH5oU00m9eGRp+rJsC2u/fw6tobuSNCvOy9oO5UTYPvii1r18xc+ZMk+HhZS6y7cTcWLlyhe244441vn/ykysK8ztv3qW1c2T8/eAH3zeNUMjKqz578803Rj7vhrmhkRMaQeE6vu9977N169aOXDMrb8n9nrci5sYzzzxtmpJKxx5zzDH2ip48Hv6eJ2Pj1lsXm/oMz1OaubHlla32/KaXCv+/tHmLDXXzu2QMNCngklOvXtYxWw8CqvPvJOAbA415AagieqhNaT57BcP1nzbiSEaDDAfl+/Ofr8/xn0zbF2DVMcknq5PHJt8rQPPz2xqLUmetl6Cnxz0gJhOmlae/VU7dAJQ/fZlLm1IsjgjRsS32N2PqO1nOZu/L4OOxR+tPVqicCpolNYpGgILFMnPyAoavbR/7ud9Q00w+paUp+XyBeOWjE9abaabP22mbZejQLG/N6kLnK7ArjVQXaTpJTy0irWMU6FZZm123lc/jiAwFY9P6NeVh3qX1PKiPaHVaKp3vayzUvqj9ongZdH9cfEtjTSA9xZ+Wx8hAs75Baaal0YpuyWPjiAz9EFz9h/Qyqi/Vk0+qz7xpqSKfrQSQpbWvoaJr6F6V1Y+98bqZ/mNZipgbcZ2HZkZOTNtf66GPz362rkHWOiJa6+WUU+rHFOmnPG3fdqqDp5O1LdJXL1/WuKepDSeZ03sflaIy6vis66XtVxmL3DfTzvV9RerCj41bvwe0wmY8n9et1TV6oVebDEwIc2PdU8/Znfc8Mur/1DNvtL/e+cTa/w8uu2vUZw8+WvCppzZFbamjHudryNC4/fbN9tGPvmbnnrvVFi/ebOvX15+KVfBIr/Ukvy8arO8Np55qpsB+spwewDzgALM1axppKJ3k//btY89Xej5yo0gaCmKWnQeV6+yzG+tIqLzKy3nn1RcwvuuuIVu4cMiOP77+vVNlTuYh+d516cT0SabZ6vtW8xADzTJ59GS+WNBC8tLAedB3dumhYGTMUwxIF9EonlvW662vvWo3P7bCrn7wnpH/H/3udvtv/3qs/aezDrfdLj7Z/u3+O0c+W/TwcnvhL5tHlaOsvIx3Ol7/3TI3mgWjoxmmNqVZBjQyQ/2CjBFNV6Xvi/pMv9GefbbBk7Okqa00xVUzLbtpbujav/zlXSNByh122MFOPPFEu/fe35iCypprXwHRWbNm2YwZM0wLIDfLbyufuxZqd3p4zBdd9zTi1FTSUv9xTYtWtPFrKY2kqaR6U3+mzzTaJtm/x/cygJP9Qzw/5s/LoW0zwyym0U4e4rU6eV0WD9u2/cW+/OUvjwS/FQQvsraLGBN7/q9pog444IBaOhpd5Pu1lRkTjYVkufX5IYccUjtXbGv0yNq1j49KY0vKfNnPPrvBPvGJT4zk/TOf+YzdfvvPTft1XaVxyy0319qEjtM+v7YbCMmy+toU2vqxRRcU9xEobiRoq+t4OmlbmS4qf9TrtttuHSmTXsfPkjrIwDj//PNGjj/ppJNMdaH/2bNn10ZsvOc977GTTz65dkyauZGWr3HbFwNNnQQYiwREkt+DFXy4606zX9zR+NeTpf5UvBanjp9pup1kMEsBK1+/wbcK7l96ST3Q7x2khp2mMF0LfntwU8d+6UtmMjMUXJE2y37dWKQ7LVil4zRNh1/bt08+YXbTjWb/9E+NkQZZozF0Db8xamTIwgWjyx010Gtplhw5Fc0LBd9VfuVBwToFXz0gr6C9jk3WRbffF+FDgVk97esaaisDQ+eq/vSEs+pIWv37r9LLEHVQsFqGlc5XOkpPn199Vf0LiL6giJ9Y9usXNerrox810zoCOlejtPS0uNJ0prRV2vH8Ml930jY71aGMuojBbtWZpq/x9UtUz+rzXc8s068TPVW3qn+vL9Wn6tFZkPnx1a82uBIPyT7CudWXsfPOrfcNqhflS2XQPucyy5yIfZTao9I89xwbmf9Z+TvqqLHX9rLreh4o1rFqyxf9qG5iimmlqQXJtWC62nc3mFSaClLr+pqKSKNJ1M/q+upn1KZkrOpzHZc3LVw0a1o1i6P5oGvtu6+ZphzTfm/f0lbTDcgodw21VT3IsNB5mlZJo2Q0wkifSeOVKxojDbL6SfGr6yT/V/y2Xqfez2aNxlAeNKpMedC/RvqIyWQfH9+nmUmd6BA1SXvtzCt/WSxFJr2flZ7SRX2m2p237bR2UcZ9s9O6UNmlbdRar/W9Q2XX9xB9H4mfa1RcmmbsQxcY6DkDE8LcuPza5SNGhhsaedvZ3/1Zz4Xu105P5sZtt20euZ/6fTVtq+9weiBCgcq08ngANe3c5L5ksMzTc3MjeXza+7SgeRl5kMGhgL3/pky7tu9Ly4OXxbeepyqZGwpGat77PA122MHswguHUo2uGBgtopFrVeY2rq8hM6PZ/5TzjrbfPr0mle0y8zUeaTmD3TI3VKYHHhgyxV/UNny9jFhWGWNaJNzbTtr2Yx8ze+yx0f2Ls1Q0760E8GP+ir5WEFOBzl122WUkkBmDqP66G8FL18K100OHMjRi3n1qKj8mmgetaBOvleyvo7Hg18naxpEjns94fsyff65tNGr021hmR/w8ppF1bd+floeYVievy+Th3HPPGcXU5z//+VEjANLymRzt4fylbZMGQlp6WhQ8j+1oNsTzH3vsUfvYxz42Kv9pefjoRz9aMxH83G6YG3EEivKw66672gNNArfJ0R5peY/70nTQaI2kQeXnyNhQvjRllfZ1o39wTUvZdhJoij/migRE4vF6HUdpeCPO26qDUPAkptNsmg0F2hTsSpoiMQ2Z0+pkPRiTlgcF0dLWWIkBs7TztE/pTp+evRZGszIk09UXtmTgTuVRwD/vy5wCb+2sFxK1avd1ET5Utx4gTZbZ32vERpM2XiujBxn9vLRt2hoPCm5rf9rx2qfA7hWXm+lLjN5nBf/a1Sme12nbVF23q0NZdaEpvGQKZumpILDapxsGsfxlvFYQWKZi1vV9v57kkumRvGbk1o9NbtW+1X9kPeSS177Fk8zHvP5JeRKXJ52U30cpX8pLN9q4gtEa+eZGTlIDf6/yyOjQ8Ukt9V717OuLtGumK8Ds0x35dZPbtD6ySF+tdMSruE3LfxEe1OY06iBNgyLtKlmWrBGM7eqQVq64L5Yxr38Tkz7HdzLPei8WxWzSMNS1itRFs/tmzGfa9bUvry6UDx+lkXV+cr/actSK1+gBA+PGAObGJIdP5sajj75k3/veVjv88O22776vm4LW3m/re4CmKFIQ+6mnxj6BGztzD6D6uXnbZLDM0+kHc8PzouCZRix86lOjfxfuvXf9vq0RDAoW+vFZW9elSuaGl0XT3MydO2Qf+ECDCb3+7neH7Mkns8seA6OYG9k6uc7d3jqDRQ2CZH6KnB/XrEkLRitNGYdqN5/7XKNNqY/R+zvuSJ+uyqdiKpr3GMDX9+esUWLJMrb6Xk9xX3zxRbWArp5yV8BSWwV4tT8+nd5q2lnHJwP60ix57HPPDdlHPtJorxdd1DgmapNlKnh6sQ0n++tkPvL6+jRjIZ6flw+N7tE0iEo/aZjFNPKur8/S8uDlLGtbBg9aY+PUU0+tcaQRFDIMmuWvbHND13vyySfs9NNPs7333nuMWZEW1Pc8agotBe9lykSDROmccMIJdtddd44ZzdQNc0OjMK666krT2iH6v+GG65tOsVWGuSEdZHBceOEPTWaG+oQ99tijNgJGo7r0uZe3r82NMgJN/t06BhryAiJ+vLbdMjcUYJs6tR6MKzovu55UlzmgRXt1vjoUBfIUGNUT51nBx6wgjUyV97+/Hrh9Yl16oMu1yAt+pnV6aYE7T0vBs7O/a/YP/1AvgwJE7353PR9FtfC0ytwW4SMt8Kf877ZbPUj2+/vMVE9F8qXp4hSM1Rdy1YV0jGlpmpSsgLqC1P82v66bnycNpavyGOu8KOtF8hyPKatttqtDmXXhTEpD1YE03XnnuiHQxjSCheo/qaWevtZUSd62PQ9f/GK93Wdxpf0KImstDvUpyfP15VNPf6cFsj0PsX2rT9ljj8YT+1mGiJ8bt7qGrqVr/v3f13VUOby/k0my4Zli7SOm28prjcY5/bR62/C6VJlk/v7r+WPN52TanRp2np76Y03plaxT6ZJXJwq0a6SERkyoX4llUF+vPiNMNTmGtdiPSXv/13XFktLOq9O0duVpZG2zzA1p0a4OrmPaNpaxWf/m900FULyfFY+6j8ogympXsQ+N5W7lvhnzGdMoWhcqO+ZGd/uLNL7Yh+YlMTAhzI0xN5mSxJkM6fo6G3E7GcpNGRsBT7RACxiAARiAARiAgQnDgIIkPtUNvwmq/aNZgTBNE5MXKKaOe1PH1EVvdIZndIYBGIABGICBlhnA3Jjk0ERTw19PmB+3k7xuqUcCVTAAAzAAAzAAAzAAAzAAAzAAAzAAAzAAAzAAAxOVAcyNSR4Ad0Mjbicq7JSLjhwGYAAGYAAGYAAGYAAGYAAGYAAGYAAGYAAGYAAGJgYDmBuYGxaNDb2mcU+Mxk09Uo8wAAMwAAMwAAMwAAMwAAMwAAMwAAMwAAMwAAMTlQHMDcwNzI1JzsBE7dwoFzduGIABGIABGIABGIABGIABGIABGIABGIABGJi4DGAM8gHpAAAgAElEQVRuTPLAdnLUBu9fHGP2oAmawAAMwAAMwAAMwAAMwAAMwAAMwAAMwAAMwAAMwEB/MYC5gblBMP/F/mqUdJLUBwzAAAzAAAzAAAzAAAzAAAzAAAzAAAzAAAzAAAzkM4C5gbmBuYG5AQMwAAMwAAMwAAMwAAMwAAMwAAMwAAMwAAMwAAMwUCkGMDcwNyoFLG5lvluJPugDAzAAAzAAAzAAAzAAAzAAAzAAAzAAAzAAAzAwGRjA3MDcwNzAkYUBGIABGIABGIABGIABGIABGIABGIABGIABGIABGKgUA5gbk9zcMMpvaDCEBrQDGIABGIABGIABGIABGIABGIABGIABGIABGICBSjGAuQGwlQIWIwIjAgZgAAZgAAZgAAZgAAZgAAZgAAZgAAZgAAZgAAZgAHMDcwNzAwZgAAZgAAZgAAZgAAZgAAZgAAZgAAZgAAZgAAZgAAYqxQDmBsBWClgcWRxZGIABGIABGIABGIABGIABGIABGIABGIABGIABGIABzA3MDcwNGIABGIABGIABGIABGIABGIABGIABGIABGIABGIABGKgUA5gbAFspYHFkcWRhAAZgAAZgAAZgAAZgAAZgAAZgAAZgAAZgAAZgAAYwNzA3MDdgAAZgAAZgAAZgAAZgAAZgAAZgAAZgAAZgAAZgAAZgoFIMYG4AbKWAxZHFkYUBGIABGIABGIABGIABGIABGIABGIABGIABGIABGMDcwNzA3IABGIABGIABGIABGIABGIABGIABGIABGIABGIABGICBSjGAuQGwlQIWRxZHFgZgAAZgAAZgAAZgAAZgAAZgAAZgAAZgAAZgAAZgAHMDcwNzAwZgAAZgAAZgAAZgAAZgAAZgAAZgAAZgAAZgAAZgAAYqxQDmBsBWClgcWRxZGIABGIABGIABGIABGIABGIABGIABGIABGIABGIABzA3MDcwNGIABGIABGIABGIABGIABGIABGIABGIABGIABGIABGKgUA5gbAFspYHFkcWRhAAZgAAZgAAZgAAZgAAZgAAZgAAZgAAZgAAZgAAYwNzA3MDdgAAZgAAZgAAZgAAZgAAZgAAZgAAZgAAZgAAZgAAZgoFIMYG4AbKWAxZHFkYUBGIABGIABGIABGIABGIABGIABGIABGIABGIABGMDcwNzA3IABGIABGIABGIABGIABGIABGIABGIABGIABGIABGICBSjGAuQGwlQIWRxZHFgZgAAZgAAZgAAZgAAZgAAZgAAZgAAZgAAZgAAZgAHMDcwNzAwZgAAZgAAZgAAZgAAZgAAZgAAZgAAZgAAZgAAZgAAYqxQDmBsBWClgcWRxZGIABGIABGIABGIABGIABGIABGIABGIABGIABGIABzA3MDcwNGIABGIABGIABGIABGIABGIABGIABGIABGIABGIABGKgUA5gbAFspYHFkcWRhAAZgAAZgAAZgAAZgAAZgAAZgAAZgAAZgAAZgAAYwNzA3MDdgAAZgAAZgAAZgAAZgAAZgAAZgAAZgAAZgAAZgAAZgoFIMYG4AbKWAxZHFkYUBGIABGIABGIABGIABGIABGIABGIABGIABGIABGMDcwNzA3IABGIABGIABGIABGIABGIABGIABGIABGIABGIABGICBSjGAuQGwlQIWRxZHFgZgAAZgAAZgAAZgAAZgAAZgAAZgAAZgAAZgAAZgAHMDcwNzAwZgAAZgAAZgAAZgAAZgAAZgAAZgAAZgAAZgAAZgAAYqxQDmBsBWClgcWRxZGIABGIABGIABGIABGIABGIABGIABGIABGIABGIABzA3MDcwNGIABGIABGIABGIABGIABGIABGIABGIABGIABGIABGKgUA5gbAFspYHFkcWRhAAZgAAZgAAZgAAZgAAZgAAZgAAZgAAZgAAZgAAYwNzA3MDdgAAZgAAZgAAZgAAZgAAZgAAZgAAZgAAZgAAZgAAZgoFIMYG4AbKWAxZHFkYUBGIABGIABGIABGIABGIABGIABGIABGIABGIABGMDcwNzA3IABGIABGIABGIABGIABGIABGIABGIABGIABGIABGICBSjGAuQGwlQIWRxZHFgZgAAZgAAZgAAZgAAZgAAZgAAZgAAZgAAZgAAZgAHMDcwNzAwZgAAZgAAZgAAZgAAZgAAZgAAZgAAZgAAZgAAZgAAYqxQDmBsBWClgcWRxZGIABGIABGIABGIABGIABGIABGIABGIABGIABGIABzA3MDcwNGIABGIABGIABGIABGIABGIABGIABGIABGIABGIABGKgUA5gbAFspYHFkcWRhAAZgAAZgAAZgAAZgAAZgAAZgAAZgAAZgAAZgAAYwNzA3MDdgAAZgAAZgAAZgAAZgAAZgAAZgAAZgAAZgAAZgAAZgoFIMYG4AbKWAxZHFkYUBGIABGIABGIABGIABGIABGIABGIABGIABGIABGMDcwNzA3IABGIABGIABGIABGIABGIABGIABGIABGIABGIABGICBSjGAuQGwlQIWRxZHFgZgAAZgAAZgAAZgAAZgAAZgAAZgAAZgAAZgAAZgAHMDcwNzAwZgAAZgAAZgAAZgAAZgAAZgAAZgAAZgAAZgAAZgAAYqxQDmBsBWClgcWRxZGIABGIABGIABGIABGIABGIABGIABGIABGIABGIABzA3MDcwNGIABGIABGIABGIABGIABGIABGIABGIABGIABGIABGKgUA5gbAFspYHFkcWRhAAZgAAZgAAZgAAZgAAZgAAZgAAZgAAZgAAZgAAYwNzA3MDdgAAZgAAZgAAZgAAZgAAZgAAZgAAZgAAZgAAZgAAZgoFIMYG4AbKWAxZHFkYUBGIABGIABGIABGIABGIABGIABGIABGIABGIABGMDcwNzA3IABGIABGIABGIABGIABGIABGIABGIABGIABGIABGICBSjGAuQGwlQIWRxZHFgZgAAZgAAZgAAZgAAZgAAZgAAZgAAZgAAZgAAZgAHMDcwNzAwZgAAZgAAZgAAZgAAZgAAZgAAZgAAZgAAZgAAZgAAYqxQDmBsBWClgcWRxZGIABGIABGIABGIABGIABGIABGIABGIABGIABGIABzA3MDcwNGIABGIABGIABGIABGIABGIABGIABGIABGIABGIABGKgUA5gbAFspYHFkcWRhAAZgAAZgAAZgAAZgAAZgAAZgAAZgAAZgAAZgAAYwNzA3MDdgAAZgAAZgAAZgAAZgAAZgAAZgAAZgAAZgAAZgAAZgoFIMYG4AbKWAxZHFkYUBGIABGIABGIABGIABGIABGIABGIABGIABGIABGMDcwNzA3IABGIABGIABGIABGIABGIABGIABGIABGIABGIABGICBSjGAuQGwlQIWRxZHFgZgAAZgAAZgAAZgAAZgAAZgAAZgAAZgAAZgAAZgAHMDcwNzAwZgAAZgAAZgAAZgAAZgAAZgAAZgAAZgAAZgAAZgAAYqxQDmBsBWClgcWRxZGIABGIABGIABGIABGIABGIABGIABGIABGIABGIABzA3MDcwNGIABGIABGIABGIABGIABGIABGIABGIABGIABGIABGKgUA5gbAFspYHFkcWRhAAZgAAZgAAZgAAZgAAZgAAZgAAZgAAZgAAZgAAYwNzA3MDdgAAZgAAZgAAZgAAZgAAZgAAZgAAZgAAZgAAZgAAZgoFIMYG4AbKWAxZHFkYUBGIABGIABGIABGIABGIABGIABGIABGIABGIABGMDcwNzA3IABGIABGIABGIABGIABGIABGIABGIABGIABGIABGICBSjGAuQGwlQIWRxZHFgZgAAZgAAZgAAZgAAZgAAZgAAZgAAZgAAZgAAZgAHMDcwNzAwZgAAZgAAZgAAZgAAZgAAZgAAZgAAZgAAZgAAZgAAYqxQDmBsBWClgcWRxZGIABGIABGIABGIABGIABGIABGIABGIABGIABGIABzA3MDcwNGIABGIABGIABGIABGIABGIABGIABGIABGIABGIABGKgUA5gbAFspYHFkcWRhAAZgAAZgAAZgAAZgAAZgAAZgAAZgAAZgAAZgAAYwNzA3MDdgAAZgAAZgAAZgAAZgAAZgAAZgAAZgAAZgAAZgAAZgoFIMYG4AbKWAxZHFkYUBGIABGIABGIABGIABGIABGIABGIABGIABGIABGMDcwNzA3IABGIABGIABGIABGIABGIABGIABGIABGIABGIABGICBSjGAuQGwlQIWRxZHFgZgAAZgAAZgAAZgAAZgAAZgAAZgAAZgAAZgAAZgAHMDcwNzAwZgAAZgAAZgAAZgAAZgAAZgAAZgAAZgAAZgAAZgAAYqxQDmBsBWClgcWRxZGIABGIABGIABGIABGIABGIABGIABGIABGIABGIABzA3MDcwNGIABGIABGIABGIABGIABGIABGIABGIABGIABGIABGKgUA5gbAFspYHFkcWRhAAZgAAZgAAZgAAZgAAZgAAZgAAZgAAZgAAZgAAYwNzA3MDdgAAZgAAZgAAZgAAZgAAZgAAZgAAZgAAZgAAZgAAZgoFIMYG4AbKWAxZHFkYUBGIABGIABGIABGIABGIABGIABGIABGIABGIABGMDcwNzA3IABGIABGIABGIABGIABGIABGIABGIABGIABGIABGICBSjGAuQGwlQIWRxZHFgZgAAZgAAZgAAZgAAZgAAZgAAZgAAZgAAZgAAZgAHMDcwNzAwZgAAZgAAZgAAZgAAZgAAZgAAZgAAZgAAZgAAZgAAYqxQDmBsBWClgcWRxZGIABGIABGIABGIABGIABGIABGIABGIABGIABGIABzA3MDcwNGIABGIABGIABGIABGIABGIABGIABGIABGIABGIABGKgUA5gbAFspYHFkcWRhAAZgAAZgAAZgAAZgAAZgAAZgAAZgAAZgAAZgAAYwNzA3MDdgAAZgAAZgAAZgAAZgAAZgAAZgAAZgAAZgAAZgAAZgoFIMYG4AbKWAxZHFkYUBGIABGIABGIABGIABGIABGIABGIABGIABGIABGMDcwNzA3IABGIABGIABGIABGIABGIABGIABGIABGIABGIABGICBSjGAuQGwlQIWRxZHFgZgAAZgAAZgAAZgAAZgAAZgAAZgAAZgAAZgAAZgAHMDcwNzAwZgAAZgAAZgAAZgAAZgAAZgAAZgAAZgAAa6ysDJi5+1fvsnOE5wHAaqzQDmBjeurt646CCq3UFQf9QfDMAADMAADMAADMAADMAADMAADMBAGQwMfP0B67f/MspFGrQPGBg/BjA3MDcwN2AABmAABmAABmAABmAABmAABmAABmAABmCgqwz89+88av32T1B6/ILSaI/2ZTCAucGNq6s3rjIgJQ06OxiAARiAARiAARiAARiAARiAARiAARiAARiAARiAgcgA5gbmBuYGDMAADMAADMAADMAADMAADMAADMAADMAADMAADMAADFSKAcwNgK0UsNGZ4zVOLQzAAAzAAAzAAAzAAAzAAAzAAAzAAAzAAAzAAAxMTgYwNzA3MDdgAAZgAAZgAAZgAAZgAAZgAAZgAAZgAAZgAAZgAAZgoFIMYG4AbKWAxYWdnC4s9U69wwAMwAAMwAAMwAAMwAAMwAAMwAAMwAAMwAAMRAYGVq5cafyjAQzAAAzAAAzAAAzAAAzAAAzAAAzAAAzAAAzAAAzAAAzAQFUYwNzA3MHcggEYgAEYgAEYgAEYgAEYgAEYgAEYgAEYgAEYgAEYgIFKMcC0VExLxbRUMAADMAADMAADMAADMAADMAADMAADMAADMAADMAADMFApBjA3ALZSwMY51XjNHHswAAMwAAMwAAMwAAMwAAMwAAMwAAMwAAMwAAMwMDkZwNzA3MDcgAEYgAEYgAEYgAEYgAEYgAEYgAEYgAEYgAEYgAEYgIFKMYC5AbCVAhYXdnK6sNQ79Q4DMAADMAADMAADMAADMAADMAADMAADMAADMBAZwNzA3MDcgAEYgAEYgAEYgAEYgAEYgAEYgAEYgAEYgAEYgAEYgIFKMYC5AbCVAjY6c7zGqYUBGIABGIABGIABGIABGIABGIABGICBajDw37/zqPXbP+xUgx3qiXrKYgBzA3MDcwMGYAAGYAAGYAAGYAAGYAAGYAAGYAAGYAAGusrAwNcfsH77zwqYsp9gOgxUgwHMDW5cXb1x0RFUoyOgnqgnGIABGIABGIABGIABGIABGIABGICBbjJw8uJnrd/+u1le0qY9wUD3GRgw/lAABVAABVAABVAABVAABVAABVAABVAABVAABVAABVAABVCgQgpgblSossgqCqAACqAACqAACqAACqAACqAACqAACqAACqAACqAACqCAGeYGFKAACqAACqAACqAACqAACqAACqAACqAACqAACqAACqAAClRKAcyNSlUXmUUBFEABFEABFEABFEABFEABFEABFEABFEABFEABFEABFMDcgAEUQAEUQAEUQAEUQAEUQAEUQAEUQAEUQAEUQAEUQAEUQIFKKYC5UanqIrMogAIogAIogAIogAIogAIogAIogAIogAIogAIogAIogAKYGzCAAiiAAiiAAiiAAiiAAiiAAiiAAiiAAiiAAiiAAiiAAihQKQUwNypVXWQWBVAABVAABVAABVAABVAABVAABVAABVAABVAABVAABVAAcwMGUAAFUAAFUAAFUAAFUAAFUAAF/h979/tjV1XvD9w/w6c+/D684YGZGNNIUqMEYxTNbYlQ9NIEhas39RIoCAUFRCh4LdULtVAB24vQQpm0SItQfkgFLLS2ILShtApDL1AodIDS3tH1zef07DP77Nnnx8ycOZ2z57WT4Zw5Z++193qt3U2y3rPWIkCAAAECBAgQIEBgoASEGwPVXC6WAAECBAgQIECAAAECBAgQIECAAAECBAgQEG64BwgQIECAAAECBAgQIECAAAECBAgQIECAAIGBEhBuDFRzuVgCBAgQIECAAAECBAgQIECAAAECBAgQIEBAuOEeIECAAAECBAgQIECAAAECBAgQIECAAAECBAZKQLgxUM3lYgkQIECAAAECBAgQIECAAAECBAgQIECAAAHhhnuAAAECBAgQIECAAAECBAgQIECAAAECBAgQGCgB4cZANZeLJUCAAAECBAgQIECAAAECBAgQIECAAAECBIQb7gECBAgQIECAAAECBAgQIECAAAECBAgQIEBgoASEGwPVXC6WAAECBAgQIECAAAECBAgQIECAAAECBAgQEG64BwgQIECAAAECBAgQIECAAAECBAgQIECAAIGBEhBuDFRzuVgCBAgQIECAAAECBAgQIECAAAECBAgQIEBAuOEeIECAAAECBAgQIECAAAECBAgQIECAAAECBAZKQLgxUM3lYgkQIECAAAECBAgQIECAAAECBAgQIECAAAHhhnuAAAECBAgQIECAAAECBAgQIECAAAECBAgQGCgB4cZANZeLJUCAAAECBAgQIECAAAECBAgQIECAAAECBIQb7gECBAgQIECAAAECBAgQIECAAAECBAgQIEBgoASEGwPVXC62lwLnnfutVPZTPEfZPvFZcbPfSU8up+a+Krr7nQABAgQIECBAgAABAgQIECBAgECVBYQbVW5ddWsrIIwQRsQNUpX7oO3N7ksCBAgQIECAAAECBAgQIECAAAECFRMQblSsQVWne4GsU7v7I+xJ4NQLuG9PfRu4AgIECBAgQIAAAQIECBAgQIAAgVMvINw49W3gCk6RgE7iUwTvtNMScN9Oi8/BBAgQIECAAAECBAgQIECAAAECFREQblSkIVVj8gI6iSdv5ohTL+C+PfVt4AoIECBAgAABAgQIECBAgAABAgROvYBw49S3gSs4RQI6iU8RvNNOS8B9Oy0+BxMgQIAAAQIECBAgQIAAAQIECFREQLhRkYZUDQIECBAgQIAAAQIECBAgQIAAAQIECBAgMFcEhBtzpaXVkwABAgQIECBAgAABAgQIECBAgAABAgQIVERAuFGRhlQNAgQIECBAgAABAgQIECBAgAABAgQIECAwVwSEG3OlpdWTAAECBAgQIECAAAECBAgQIECAAAECBAhUREC4UZGGVI3JCzzwwIYUPzYCgyTgvh2k1nKtBAgQIECAAAECBAgQIECAAAECMyUg3JgpWeXOeoHzzv1Wih8bgUEScN8OUmu5VgIECBAgQIAAAQIECBAgQIAAgZkSEG7MlKxyZ72ATuJZ30QusETAfVuC4iMCBAgQIECAAAECBAgQIECAAIE5JyDcmHNNrsKZgE7iTMLrIAm4bweptVwrAQIECBAgQIAAAQIECBAgQIDATAkIN2ZKVrmzXkAn8axvIhdYIuC+LUHxEQECBAgQIECAAAECBAgQIECAwJwTEG7MuSZX4UxAJ3Em4XWQBNy3g9RarpUAAQIECBAgQIAAAQIECBAgQGCmBIQbMyWr3Fkv8MADG1L82AgMkoD7dpBay7USIECAAAECBAgQIECAAAECBAjMlIBwY6ZklUuAAAECBAgQIECAAAECBAgQIECAAAECBAjMiIBwY0ZYFUqAAAECBAgQIECAAAECBAgQIECAAAECBAjMlIBwY6ZklUuAAAECBAgQIECAAAECBAgQIECAAAECBAjMiIBwY0ZYFUqAAAECBAgQIECAAAECBAgQIECAAAECBAjMlIBwY6ZkZ3O5bz+Xvr5gQ/rUgs1p7duz+UJn9trOO/dbKX5sBAZJwH07SK3lWgkQIECAAAECBAgQIECAAAECBGZKQLgxU7KzuVzhRq11dBLP5pvUtbUScN+2kvE5AQIECBAgQIAAAQIECBAgQIDAXBKY0+HGoYc3p0/VRjDEKIaJP5+5YDj926rn0va3T1TrnhBu1Nqzp53Ex0fSnk3r0vJLF6WFXx5KQ0P1ny8vTIsuXZ7WbdqTRo5X6zbqS23GRtOBp9bXXBd9dV7Ddd5XF6VFl65Iw7sO9+UyZtNJenrfzqaKuRYCBAgQIECAAAECBAgQIECAAAECkxAQbpSEGmVBx9fv3Z+OTQJ2Vu8q3Kg1T086iccOpx13XJTmZ2FGu9fTF6XrNh1IMo7u/nUcfn5NuigfFLWwXfL7uRVw9OS+7a4J7EWAAAECBAgQIECAAAECBAgQIEBg1goIN2rhxqNp89Ej6Uju59DBfWnDvQ+n088ZH9Fx4ZNHZm1DTurCOoUbR/6eNmx8NP3bvz+cNlR4TY5pdxJ/vDetuWB8NMHQlxenZb/dkna8PJJGj4ym0SOH04Fd29PwqmVpca6TfuE129LI2KRabM7tfHzXirQwCzO+fFFasWl72nPw8EnXtw6kPU8Np9uuXJTmDQ2lJZuK4cZoOrD15GiPZTMYfBx/c0etbS9asCbt6WMLTfu+7eO1OhUBAgQIECBAgAABAgQIECBAgACBmRIQbtTCjW1peyvhd3enHy6uBxyLn0wvtNpvkD7vFG7s3lafpqvaC45Pq5N4bCQNX5wFG/PS4lU70uF2gcXY4bT9Fyc742PKqoUr9xjB0erfzNjetObrJ6f1mnfx+nTg41Y7ppRe35LWPV4MN/akFfVgZGLw0aasSX51eNOS+jRZK4Qbk7SzOwECBAgQIECAAAECBAgQIECAAIHpCgg3OoUbKaXxtTkq0tkv3Jjuv5t04N7F9Y7teWnJppEuyzue9qxcWD/urLRilwmqSuH2rUln1cKJeWnFrtI9OnxY7XCjQ+V9TYAAAQIECBAgQIAAAQIECBAgQGBOCAg3ugg3UmMkw4Z0ze4K3BfCjek14pFtadnp9ZEFV25Lo5MpLUYlLKgvNn7++tRtLDKZUwz8vrtW1AOgRWn9wanURrgxFTXHECBAgAABAgQIECBAgAABAgQIEBgkAeFGN+HGzkc7T9M0diS9sO3JdOFlG9NnamVuSJ9evDH926rn0va3T7S5J8bSkb/vTqtXPJxOz6a/WrAhfeaC4dqxLxSW+WiMIrniuXSoTamN/RaUTLlVGm68ndZeMb6+SNmi6p8qO+fRkbS5tj7HxvTper0/dd7GdPpPtqW1rxQuvs31DtJX49MRLZ5S5/vo1qUtOu8Pp+ElJ4OP9tMpje83tLLNag9jx9PIsyfXnjizHsYMfXlhuujqdWn7wdaRzJ6V9fClXvbovuG0/IIza+tbDJ2+NG15ZnxkxfJnO4w+yU0xtXhDl1FOY+RG2Xoare+U8XapX3+2ZkfjdUkafqtw/NhoOvDscLrt6ovSoq+OTzN25rlL0/INZVONjQcnMb1Y6U9Jm4we3J7W37g0d46hNH/BorR05XDaW81/JgVovxIgQIAAAQIECBAgQIAAAQIECBDorYBwo2O4cSxtv33jyXCj1Zobh3amH/57u2BgY7r8T++WtNyHafua4fFQIAsHcq/FkSKN0KIsaMidobHfDIYbx3Zva1pwfUIgcvvLuSuqytvRtO3Keqf2VEdevDWcltQ7xpc0LXg9HlpMO9z4eG9a94P55Z3vtXPPS0vuPVC67kc+3Gha2Lt2XAQEI2n9+ScN5t28o7SMRmvvWnEyFBlamrZ03Yk/Xv7Q6YvTmhdbBzGN86SUJh1ujG5P1+UWei8LKuade1va07Tmx2TDjeNpz6rxtVbKzjG1qbfyNfeeAAECBAgQIECAAAECBAgQIECAwNwTEG60DTfG0pGd29JQPWw4e+vbE++QI7vTheedDDY+fcm2tPngu+lYbWHpE+nYyL60+qZ6MLJgc1p7qHnF6SNPPlwPNjamCx/en46cqH8/9mE6MrI/bbhrc1r+YvMpG6FFz8ON3Hka03C1WWPkyM504Tkn6z1003PphSPH6gWcSMeOjtRGsZy9dl+u0Nn39oEHNqT4mdy2J92WTUm1qs2oibaFjpfRPPKiR+HG2N607tz6KIQF16X1u0bS8fqtdfzwgbR91eJ64HBWWvH8xJEXjXDjxhVpxddPLpY+UthtPEhYnrYXvhuv+vG04+aT19ExBCP0ckgAACAASURBVBk/6OS7N4fTkmy0ydC8tOinkxnhMB5AtA2J6iHT/B+sSMO7RtJoVo/jh9Pee5fUjYbSwjv3Fq+u9vu4QesFxUcfXVYvZ2G6btPedDg7x9jxNPr63rTljiVpTeHfeOnJch9O7b7NFeAtAQIECBAgQIAAAQIECBAgQIAAgQoICDdqwcWjafPRI+lI4+ft9NcXd6aVNww3ppg6fc3LKeu+H2/3I2nz9fVgY9lz6bXm7OLkbmPvpg3ZPr98KVfG22nDspPH/std+8eL7PButoQbh7ZuHh/NUlbvDvWYDV+fd+63UvxMaju+PS3PRl1sOjypQ8d3Hg8xhprW7Bj/vG2nfBrfrzkcOXmGvXfWFy1fsKIw6mD8CvbeUd+nZPRJI9w4fV5a+IsWIzOObElL6w7LHm0xsqJhdVZaM5VBPK9vSddlIU3tXPPT4hvXpz3FqaXGq1V/1224sS2tf6pVGx5P22+sB0RfX5PK4o3O4cbhtOXikyNczrqjrIQJF97VB1O6b7sq2U4ECBAgQIAAAQIECBAgQIAAAQIEBkdAuJGbAmrCtEoLYt2MzWn58yUjNqKNR/6Uzqgd32aEQ+y3e1t9hMbW9GgjIRlf4+Jf1g5guPFwLtwYnPu96Uqn1Emcn1KqF+HGkuE03r0+HlpMOdw4viMtr414OCut2JUNE2iq9slfGvWYuGh3I9xoO5XU+KiM5oBm/FyNtUUiHJhqADY2mvZuui4taoziiLBgfrroju1ppGm6qPHzptRluJE/pOT98e3L69N6LUlbxhupsWc34Ua2hspZLUZ/NAqbxJsp3beTKN+uBAgQIECAAAECBAgQIECAAAECBAZBQLjRLtz4j61p80jrxcBf21zv4O8wRVTKL+DdWAV8LL1wV33KqnOG0/Ld3S1IMFtGbqRXnkz/Urc7Y+2+dGSqnden8F/JlDqJD28ZXy+jF+HGL3bkBHoQbjy/4mSH/Okr0p62bTIeAKx4PncJKaVGuHHhcGq7BPjL2cLiZetpjKYtl58ctdD1QuLNl9H829jhtGdDIeT48tK0fn9ZgDNet/YhUfMpJvy2q245VLIQedMaH62npdp7x1n19lic1uxqMcJlwonbfzCl+7Z9kb4lQIAAAQIECBAgQIAAAQIECBAgMHACwo1aB/22tL3RdLFWxkvpmktOThn1qXMmrpWR7br99vo+7QKSwndNC4R/9HK65nvjZXxmyda0ctv+dChbeyM7Ue511oQb6cPxhdajjucNpwvv3ZleONQYmpK76tn5dmqdxOMd51P/a/zxNTfmNa3bMf1wY3w0wclgoWwB6+JnxQCgEW40BS8lbTi2N635+snzLN1a6Lh/fX1aXJtKqiz4KCmr24/GDqcdd1yU5tenxBo6fUkafrN48HgbFetW3LP2+9jxdPjgnrTjqeG0btVtacXVF6VF3144fo5phBvp4z1pxYLxtph//rK0buveVFzDpPS6Wnw4tfu2RWE+JkCAAAECBAgQIECAAAECBAgQIDCgAsKNCeFGvSXHDqW19TUxPvW9bemFkj77aYcbcaqxt9Ojd21O/6++OHc2NdbXVz2f/vrRxLtq9oQbcW0n0qHnn0xnLx4PaOL6P3PZtrRh/4cTL36WfTK1TuKRNHxhvbO6aUqpSVSuMSXUUGper2KWhRsrOy+YPrJh8cmRCQWL7PNJLyTeJePx/evHFxyfsG5Il+HG2EjavjIXlGSByYTXqY/cqFWnFsgsSWcWp9ZauSUdaDm1VmuIqd23rcvzDQECBAgQIECAAAECBAgQIECAAIFBFBButAo3ojXffj6dXQ8dhkrWxWiEG7dPZbXkwu0ydiT99emn04VLckHB97amzYea5xaaXeFGVocT6cjB3U0LsH9qwcZ04ZONObiyHWfV6wMPbEjxM9ntwL2L6msxLE7rX5/s0Sk11qKYMCKgh+FGIWyYzFU2Rm50EW6kxsLi+QDgQFr/7QiA5qXlz5ZNGzWZq2m97/goleK6IV2EG2Mjafji+oLhp5+Zlty4Lg0/tSPtOXg4jR4ZTcfjn10PpqVquvqx0XTgqXVp2fnz6/fPUBpacF3aNmHkSdNRE36Z6n07oSAfECBAgAABAgQIECBAgAABAgQIEBhgAeFGu3AjjaXGuhoLhtPqvzcHDa9tGE61kRaXPJde69lNMJaOvPhkOqMeqnz6ly+l/KCRRrix+Mn0QptzNq5tQX7KrfoB+TVAytZK373tZL0WdFgovez8R/el5Y0pvR7NLaBetvOAftaYcmkozbtxe5pU9/3xPWlFfSqneVduS82TOY2HG+2nvMrCg6E0VAggxhfBXpF2NN+uXWNPKtxIo2nblSdHsjTW1sjW4pjOQuLdXO3B9WlRfZTFil35AzqHG6OPLquvhbGsdLHwWmm9Djdylzj64pq0uD6SY6ZGt+RO5y0BAgQIECBAgAABAgQIECBAgACBygkIN9qGGzFt1P60PFsX44rn0mv5DuPd29Kna8cPp9VtV16e/H3TCFXO2dYUYhx58uF68PBw2tByDfKRtPribARIn8ONqOqh59LXay4b0jUvTr7us/+I42nPyvpC0UPz0pJN3TZ+HLew/lf7C9OafcWajgcFQ5dvKQQfuX1z4Uox3EiNKa+mPmpicuFGSsefXZ7mRchQnx4qW0S7EXbkLr2nb7PF04fOKlh2DjcadWwTTrUeYXOyFuMjR1ovKN6uviMPXlQPWG5LnScAa1eS7wgQIECAAAECBAgQIECAAAECBAjMPQHhRqdwI6V0bOej6V/qnfVnb80NdYjgo77exKeXFYKPpnvp5GiM1ZPo6G+EG//xp+ZRISN/SmfUr+WMDX9vOsvJX8bSaw9vrocuEXBMIdx4MRfalJ2i5KxNHzXCjRjt0vRNdX5pWih6flq6YW8azQdfxZqO7k3D12TBRutAJFurYmhocVp/sFhIhG256ZQiUCiM3EhpNG25vL4myIIVaUfz0JDmAl/fktY9frj5s5RSo+N/QtkTdj35QWNh8UVp/cs70vLaiISpLyR+eOuKtObZkZNTQ7U4ZZPD6cvTjqbhM+MLti+690BpCY06tpq+q6l981NujRd3+PdL6kHV8rS96fzj+7R71wg3vr0+lV9lu6N9R4AAAQIECBAgQIAAAQIECBAgQGBuCwg3ugg3UjqSNl9fHwlxzsNpc27ExLHd29JQPWz49L9vTat3j6QjJ+q93GMfpkOxFsX1w7Ww4Zrd+Zvt5bR8yda0ctv+9NrR3OLbYx+m13Y/3VjrY2KAcSRtuDYblbExXfjw/vHzHRtJ2+99OH1mwcZ09rL6lFlTCTeO7kwX1uv0Lyt2pkNRn7Gj6a9/2peyVTS23zWcLrx3Z3ph5Eg61ujUP5GOjexLK7OF2C/+U/NIl3z1q/D+zW3pugX1IGFoKM376pK0fMOWxroNo0dG0t5nt6T1N+YXk56XFq3a03oqq8YaFifXYxh++XCjk//463vSusvnp6EFS9KS2poWZeFGSunN4fHFtr98UVrz1IF0OFu4eux4Gn19TxquL6S9ZFMPwo2U0t47T45kWXLxkpOjOCZMudV9gzdGRHx5cVr2i/Vpy7N70oG3RmtrYRw+uCdt37QiLflqfb2MGDnz+2IdciNgvr48bXvzZPIwum972lPfdfTx605e59C8tHjVjjSS8xl5dl1aumAoLT6/vlj6hLVR6nXZtyadVZ8Wa8n/1MOtscNp+7NZVLEnrTl/WVq3dW8aOZJLP8aOp5FdaxpttLhFANO9mD0JECBAgAABAgQIECBAgAABAgQIzD0B4UZX4UYsLj4+1dKnV+zOrYMxll57cmsj4KitwVEPBprex+LguUEfKb2crinbL/fZ0E07y8OBQ8+nfzsvCzgmvp694UD668Ob69NXTWHkRjqWXlizsX58rvwrnhsPN27PfZ675kadSxZDn23/vM4791spfqa1fXwgDf90Ub2jfDzoGKp3ek94XbA8bX+r/RlHfr80zW91/OlL0vr9B9Lwkvq5WoyuOP7y+JoOE64hK/v0xWndvlyne/2yGqMaWpRdevX5qbKmuZB4I9zIrrPV6+mL0nVby6cEO/7ibWnhhONyIzCKI2AK+86/fEsaaUx7lTuuqfKH05ZsUfL88Q238emxWrXBwmu2pZFGONhUeMtfenLftizdFwQIECBAgAABAgQIECBAgAABAgQGQ0C4UeuYLwkAJrTfWBpfpHtjunxnbrRF7Htkf9pw19b09Qtynf7nbUyn/+TRtPrpkXRkQgfmh+m1559Ly2/YnE6vT20VwcCnF29MX7/hybR2d1MSMuFq0tEDacOqh5uOHfrJtrT2xXdr+zYWHp/KyI0oYexoemHj1nRGdm3nbUz/tnZfygatHBt5Ka2N+v77xvEpsM7ZmE6/bGta/vC+dGhCfSdW4VR/0tNO4rf2pi0blqel316UzqwvFB0d2vMXLEoXXb0iLf/B/PoURhFKdJ7GanTflrTi0lxZX16Ylq4cro88GF94fOK0VDnV4yNpR1zTuWeOhy+nn5kW/WBZum3TnnS4RRtNKdzIT4fVg4XERw/uSMO/Pem58MvjodG8ry5Kiy5dntZt2pNGJuYyucqnNPri+rTsgqzu89PCS9ekPflpusZG096tK3I+89KZ5y5NK7bWR2F0WFC8drKxkbR95dKUXeO8ry5OyxqBy/E08uxwuu3qi9KixkiTGOET98RtaXhXccRJ0+W3/KWn923Ls/iCAAECBAgQIECAAAECBAgQIECAwOwWmNPhxuxuGlc30wL97iQ+/OyadFG+o/7c69Lwvnxv+0zXeCbLH1/rY8YXEp/JagxA2f2+bweAxCUSIECAAAECBAgQIECAAAECBAjMQQHhxhxsdFU+KXBKOonHDqcdd1yUm3ZqXlr00+G0d9AzjoPr0+La1EyL0/rX3WEzKXBK7tuZrJCyCRAgQIAAAQIECBAgQIAAAQIECExBQLgxBTSHVENAJ3Gv2vF42nFzfYHvy7ekQc9peqUyU+W4b2dKVrkECBAgQIAAAQIECBAgQIAAAQKDJCDcGKTWcq09FdBJ3CPON4fTktqojbPSmpd7VKZiWgq4b1vS+IIAAQIECBAgQIAAAQIECBAgQGAOCQg35lBjqyqBngqMHU+HXx5O1y04ueD3vBu3pw5rfPf09AojQIAAAQIECBAgQIAAAQIECBAgQGDuCgg35m7bqzmBKQrsSStqIzVOhhpDQ0Np3gVr0t6Pp1icwwgQIECAAAECBAgQIECAAAECBAgQIDBJAeHGJMHsToDAnrTmy/XRGl9dnJb9dkc6PEaFAAECBAgQIECAAAECBAgQIECAAAEC/RMQbvTP2pkIECBAgAABAgQIECBAgAABAgQIECBAgACBHggIN3qAqIjBFHjggQ0pfmwEBknAfTtIreVaCRAgQIAAAQIECBAgQIAAAQIEZkpAuDFTssqd9QLnnfutFD82AoMk4L4dpNZyrQQIECBAgAABAgQIECBAgAABAjMlINyYKVnlznoBncSzvolcYImA+7YExUcECBAgQIAAAQIECBAgQIAAAQJzTkC4MeeaXIUzAZ3EmYTXQRJw3w5Sa7lWAgQIECBAgAABAgQIECBAgACBmRIQbsyUrHJnvYBO4lnfRC6wRMB9W4LiIwIECBAgQIAAAQIECBAgQIAAgTknINyYc02uwpmATuJMwusgCbhvB6m1XCsBAgQIECBAgAABAgQIECBAgMBMCQg3ZkpWubNe4IEHNqT4sREYJAH37SC1lmslQIAAAQIECBAgQIAAAQIECBCYKQHhxkzJKpcAAQIECBAgQIAAAQIECBAgQIAAAQIECBCYEQHhxoywKpQAAQIECBAgQIAAAQIECBAgQIAAAQIECBCYKQHhxkzJKpcAAQIECBAgQIAAAQIECBAgQIAAAQIECBCYEQHhxoywKnSQBIaGhpIfBoNyDwzSvy3XSoAAAQIECBAgQIAAAQIECBAgQGCmBIQbMyWr3FkvcN6530rxMyid2q5TABP3QHbfzvp/YC6QAAECBAgQIECAAAECBAgQIECAwAwKCDdmEFfRs1sg6yQWGggNBukeyO7b2f2vy9URIECAAAECBAgQIECAAAECBAgQmFkB4cbM+ip9FgtkncSD1LHtWgUx2X07i/9puTQCBAgQIECAAAECBAgQIECAAAECMy4g3JhxYieYrQJZJ7HAQGAwSPdAdt/O1n9XrosAAQIECBAgQIAAAQIECBAgQIBAPwSEG/1Qdo5ZKZB1Ehdfixdb/D773X4n1yzJPLJXLqfGpejudwIECBAgQIAAAQIECBAgQIAAAQJVFhBuVLl11a2tQNYZX3wtHlT8PvvdfqemEz/zL77O9fYo1t/vBAgQIECAAAECBAgQIECAAAECBKosINyocuuqGwECBAgQIECAAAECBAgQIECAAAECBAgQqKCAcKOCjapKBAgQIECAAAECBAgQIECAAAECBAgQIECgygLCjSq3rroRIECAAAECBAgQIECAAAECBAgQIECAAIEKCgg3KtioqkSAAAECBAgQIECAAAECBAgQIECAAAECBKosINyocuuqGwECBAgQIECAAAECBAgQIECAAAECBAgQqKCAcKOCjapKBAgQIECAAAECBAgQIECAAAECBAgQIECgygLCjSq3rroRIECAAAECBAgQIECAAAECBAgQIECAAIEKCgg3KtioqkSAAAECBAgQIECAAAECBAgQIECAAAECBKosINyocuuqGwECBAgQIECAAAECBAgQIECAAAECBAgQqKCAcKOCjapKBAgQIECAAAECBAgQIECAAAECBAgQIECgygLCjSq3rroRIECAAAECBAgQIECAAAECBAgQIECAAIEKCgg3KtioqkSAAAECBAgQIECAAAECBAgQIECAAAECBKosINyocuuqGwECBAgQIECAAAECBAgQIECAAAECBAgQqKCAcKOCjapKBAgQIECAAAECBAgQIECAAAECBAgQIECgygLCjSq3rroRIECAAAECBAgQIECAAAECBAgQIECAAIEKCgg3KtioqkSAAAECBAgQIECAAAECBAgQIECAAAECBKosINyocuuqGwECBAgQIECAAAECBAgQIECAAAECBAgQqKCAcKOCjapKBAgQIECAAAECBAgQIECAAAECBAgQIECgygLCjSq3rroRIECAAAECBAgQIECAAAECBAgQIECAAIEKCgg3KtioqkSAAAECBAgQIECAAAECBAgQIECAAAECBKosINyocuuqGwECBAgQIECAAAECBAgQIECAAAECBAgQqKCAcKOCjapKBAgQIECAAAECBAgQIECAAAECBAgQIECgygLCjSq3rroRIECAAAECBAgQIECAAAECBAgQIECAAIEKCgg3KtioqkSAAAECBAgQIECAAAECBAgQIECAAAECBKosINyocuuqGwECBAgQIECAAAECBAgQIECAAAECBAgQqKCAcKOCjapKBAgQIECAAAECBAgQIECAAAECBAgQIECgygLCjSq3rroRIECAAAECBAgQIECAAAECBAgQIECAAIEKCgg3KtioqkSAAAECBAgQIECAAAECBAgQIECAAAECBKosINyocuuqGwECBAgQIECAAAECBAgQIECAAAECBAgQqKCAcKOCjapKBAgQIECAAAECBAgQIECAAAECBAgQIECgygLCjSq3rroRIECAAAECBAgQIECAAAECBAgQIECAAIEKCgg3KtioqkSAAAECBAgQIECAAAECBAgQIECAAAECBKosINyocuuqGwECBAgQIECAAAECBAgQIECAAAECBAgQqKCAcKOCjapKBAgQIECAAAECBAgQIECAAAECBAgQIECgygLCjSq3rroRIECAAAECBAgQIECAAAECBAgQIECAAIEKCgg3KtioqkSAAAECBAgQIECAAAECBAgQIECAAAECBKosINyocuuqGwECBAgQIECAAAECBAgQIECAAAECBAgQqKCAcKOCjapKBAgQIECAAAECBAgQIECAAAECBAgQIECgygLCjSq3rroRIECAAAECBAgQIECAAAECBAgQIECAAIEKCgg3KtioqkSAAAECBAgQIECAAAECBAgQIECAAAECBKosINyocuuqGwECBAgQIECAAAECBAgQIECAAAECBAgQqKCAcKOCjapKBAgQIECAAAECBAgQIECAAAECBAgQIECgygLCjSq3rroRIECAAAECBAgQIECAAAECBAgQIECAAIEKCgg3KtioqkSAAAECBAgQIECAAAECBAgQIECAAAECBKosINyocuuqGwECBAgQIECAAAECBAgQIECAAAECBAgQqKCAcKOCjapKBAgQIECAAAECBAgQIECAAAECBAgQIECgygLCjSq3rroRIECAAAECBAgQIECAAAECBAgQIECAAIEKCgg3KtioqkSAAAECBAgQIECAAAECBAgQIECAAAECBKosINyocuuqGwECBAgQIECAAAECBAgQIECAAAECBAgQqKCAcKOCjapKBAgQIECAAAECBAgQIECAAAECBAgQIECgygLCjSq3rroRIECAAAECBAgQIECAAAECBAgQIECAAIEKCgg3KtioqkSAAAECBAgQIECAAAECBAgQIECAAAECBKosINyocuuqGwECBAgQIECAAAECBAgQIECAAAECBAgQqKCAcKOCjapKBAgQIECAAAECBAgQIECAAAECBAgQIECgygLCjSq3rroRIECAAAECBAgQIECAAAECBAgQIECAAIEKCgg3KtioqkSAAAECBAgQIECAAAECBAgQIECAAAECBKosINyocuuqGwECBAgQIECAAAECBAgQIECAAAECBAgQqKCAcKOCjapKBAgQIECAAAECBAgQIECAAAECBAgQIECgygLCjSq3rroRIECAAAECBAgQIECAAAECBAgQIECAAIEKCgg3KtioqkSAAAECBAgQIECAAAECBAgQIECAAAECBKosINyocuuqGwECBAgQIECAAAECBAgQIECAAAECBAgQqKCAcKOCjapKBAgQIECAAAECBAgQIECAAAECBAgQIECgygLCjSq3rroRIECAAAECBAgQIECAAAECBAgQIECAAIEKCgg3KtioqkSAAAECBAgQIECAAAECBAgQIECAAAECBKosINyocuuqGwECBAgQIECAAAECBAgQIECAAAECBAgQqKCAcKOCjapKBAgQIECAAAECBAgQIECAAAECBAgQIECgygLCjSq3rroRIECAAAECBAgQIECAAAECBAgQIECAAIEKCgg3KtioqkSAAAECBAgQIECAAAECBAgQIECAAAECBKosINyocuuqGwECBAgQIECAAAECBAgQIECAAAECBAgQqKCAcKOCjapKBAgQIECAAAECBAgQIECAAAECBAgQIECgygLCjSq3rroRIECAAAECBAgQIECAAAECBAgQIECAAIEKCgg3KtioqkSAAAECBAgQIECAAAECBAgQIECAAAECBKosINyocuuqGwECBAgQIECAAAECBAgQIECAAAECBAgQqKCAcKOCjapKBAgQIECAAAECBAgQIECAAAECBAgQIECgygLCjSq3rroRIECAAAECBAgQIECAAAECBAgQIECAAIEKCgg3KtioqkSAAAECBAgQIECAAAECBAgQIECAAAECBKosINyocuuqGwECBAgQIECAAAECBAgQIECAAAECBAgQqKCAcKOCjapKBAgQIECAAAECBAgQIECAAAECBAgQIECgygLCjSq3rroRIECAAAECBAgQIECAAAECBAgQIECAAIEKCgg3KtioqkSAAAECBAgQIECAAAECBAgQIECAAAECBKosINyocuuqGwECBAgQIECAAAECBAgQIECAAAECBAgQqKCAcKOCjapKBAgQIECAAAECBAgQIECAAAECBAgQIECgygLCjSq3rroRIECAAAECBAgQIECAAAECBAgQIECAAIEKCgg3KtioqkSAAAECBAgQIECAAAECBAgQIECAAAECBKosINyocuuq24wIHDlyJK1cuTL96Ec/Sk899VT65z//OSPn6abQsbGxNDw8nC677LJ01113pY8//ribw+xDgAABAgQIECBAgAABAgQIECBAgACBgRaoRLjx3nvvpcceeyzdcsst6aqrrkqXXHJJ7Wfp0qXppz/9aVq3bl3av39/+sc//jHQjTUoFx/OBw8eTPfee2/NP9oh3ybXXnttWrVqVdq1a1eKzvlB2+Jey+pz/fXXp/fff/+UVeGNN95o3POXXnpp2r179ym7FicmQIAAAQIECBAgQIAAAQIECBAgQIBAvwQGOtyIUGPNmjUpOnWzzuZ2rz/72c/S3r17T+lf2verYU/Vef72t7+lG2+8sav2iODpgw8+OFWXOuXzCjemTOdAAgQIECBAgAABAgQIECBAgAABAgQI9ERgIMONmAYo/kJ92bJlTZ3oMU1QjN743e9+V/u544470o9//OOmfSIIefDBBwdyxEBPWnwGC4mRGNEGWcAUIzYiUFq7dm2tPe6555508803N/YpCzeibQ8fPpz+8Ic/pNtuu61v4ceJEyfSX//619rUTo8//nhbpZmelipGvhw6dKg23VRMNfXJJ5+0vB7TUrWk8QUBAgQIECBAgAABAgQIECBAgAABAhUWGMhwIzrRL7/88kYnenSgv/LKKy2nnYrO8vwIjwg47rvvPgFHD2/sN998M/3kJz+ptUnm++GHH5aeITrvY5qwCDuOHj3atE905P/qV7+qlVMWfjTt3MNf9uzZ07ifIlg5lVuMZom6R0gUFu3CjVN5nc5NgAABAgQIECBAgAABAgQIECBAgACBUyUwcOFGrOVw9dVXNzqif/vb33bV+RsjAp555plGKBId8M8999ypcq/ceR966KFGm8TImamupSHcSLXRKsKNyv0TUSECBAgQHU8fYgAAIABJREFUIECAAAECBAgQIECAAAECBHooMFDhRr7jO/6qfbKd6BFwPPnkk401Om644YYU63bYpidw/PjxdOutt9bCjSuvvDLFuhtT3fJtbOSGkRtTvY8cR4AAAQIECBAgQIAAAQIECBAgQIBAtQUGKtyI6aguu+yyWid6TEUV001Ndou1FW6//fbGKIMYcWCbnkA+kIh1UP7+979PucB8WcIN4caUbyQHEiBAgAABAgQIECBAgAABAgQIECBQaYGBCTdimqPf/OY3jVAiRmBMdYuFo7OQ5Be/+EX66KOPmoqKzvlssfJYDLvTFms0ZItox9oN7bZYb+LFF19Mq1ataiysHVNkXX/99WnTpk1tF9Au6/iP0Sh79+5NN910U21ESqxFEtNtXXfddbVritduQqB82d0ek9UzP3Ij6rJjx47sq65e8+fOHFu9lq2HEfdGuMf9Eet+xDXE8bGgebg89dRTKUKt4pZfZ6PV+eLzYsjS7f2RrS0Si4LnF7bPFr6Pezi7rvw6G+2uJb7L32N5u+J1Fusbv8f9Euuj3H///bXF3sMoyswWf497sNVopvg8vo9gsXhclPfuu++WndJnBAgQIECAAAECBAgQIECAAAECBAgQ6LnAwIQb77zzTrrmmmtqHbHxGr9PdRsdHU3Lly+vlVU2jVK3ndfZ+bsNNyJkWLlyZe28rTqwo+P7hRdeqHVCZ+Vnr8WO7Pfffz899thjjY7mrMzdu3enu+++u3aebsOG1157LV1xxRW1Y9atW1d6/uw6yl7za27EdF+T6ejO1yurQ6vXYrhRXIOl1XERchSvaSbDjQgrsqm6Wl1TPozoR7gRId6dd97ZCH9aXVcx0IvwaMuWLRPus+Lx+dCl7B7xGQECBAgQIECAAAECBAgQIECAAAECBHolMDDhxiuvvNIYbbF69erGX7xPBSL+ej0WIs86Z//85z83FTMT4UZ0rEenf5wzAoef//zntREFO3fuTNu3b0+33XZbo/M4Rl/EFFzFLR8CRMd4jADJL66e1Sc6mfOjUyLo6LTAdxZOxIiWOHayW75+cR0x+iNGlIR1py2ubd++fSksYtTJjTfeWHOKuj399NO1z+O7+Dl06FBTcVlAESMJYhROhB/ZvtEhn/eJ6ciykRJRSIRD2b7Dw8ON+yHujezzeH3ppZeajut0f3z88cdNwUY2eiQrM6zjWmMERIQascV1xXlin6hzdt1hESbZsfEa151txXsiKy/7PnuN9onryO6RuMdiREnc+1FmjG751a9+VbsH8+FGtF+YZqNh4rrCKrueOO6OO+6ojUISbmTaXgkQIECAAAECBAgQIECAAAECBAgQmGmBgQk3ohM265jdsGHDtF22bt3aKK84GqBT53Xx5HF8dm1lHbz5zu7oVH7mmWdKO/0jwMk6taMj+ujRo02nyndkR3gQnfUx0iOmN4rvYhqk6CCPURj50SmdppmKv+iPzvaowy233JLieqeyxXmz64+yokM8QpuYBqnbLV/H/MiGVseH2SOPPFKrf9k++dAlrF599dWy3WpTPWVtWLwfigd0uj9iWq4sDGi36H1M5xVtVtzyozgicAiTVls3Xvn7L+oY03cVp2LLyo+2evTRR7Nfa1Oaxf0Tx7UbkRMB1f/93/81jvOGAAECBAgQIECAAAECBAgQIECAAAECMykwMOFGPkDo1PncDVi+vGJY0qnzulh+vqyycCP+8j46u+Pnj3/8Y/Hwpt8jqMiCgZheKr/lO7KjrOisLxvhkR2TjcaIfdutg5EfFRPHTGd76623aqNSsqAgq0u3IUe+jt2EG91ca2Ya1xLTeJVt2QiQ2KfT/dXp/oj7Kcopm/Ks7NzFz3odbsQ9F/dAXFNMlTWZ8Cp/b0QgaCNAgAABAgQIECBAgAABAgQIECBAgMBsEBBuXHJJyk/DE43SqfO62HDtwo18Z303oyJi2qVs8eli6JIvKzqqY/2EdtNN5esRf63fat+sMz5GXYyMjBSrN+nfY4qlJ554omkUR1xvTB0VIxlajRqIE+Xr2KtwI0ZrRBAU11Bs66xyMxFuTHWKr16GGxFkxH0XdY/F1icziiZs8uHG+vXrS0ccZYZeCRAgQIAAAQIECBAgQIAAAQIECBAg0C8B4cYll6TiX6TnQ4FWneH5BmoXbuTDik2bNuUPK32f79iOv7KPqYuyLd/xH3+JXxzZke2XvUbIsGrVqlrHdqtF2GPqq2yNi3YBSFbmZF7jesMmRjBE53r2E53ssR5H2ZavY6/CjW7as5fhRn5aqpjuKxaSn8yWvwemOy1VPtiZykLxce3ZtFTLli2r3XPdrKMymfralwABAgQIECBAgAABAgQIECBAgAABApMVGJhwI6YTyjrHiyMaJlvp2D8fSMT7/NZNZ3h+/3xZxWmpYg2MbEqg7Pq7fS12bOc7/q+66qr0xhtv5C+j9H1+rZLiwulxQLbweKepq0oL7/LDY8eOpYcffrgxeiLq3+2i6dHR3+0WYU6MPHn++edri17HQtfRMR/nysxbhVW9DDeKa1zE+eO8MWqim2Cgl+FGp/bvZFtcUDzukxUrVtTWKGk1EqhTmb4nQIAAAQIECBAgQIAAAQIECBAgQIDAdAUGJtzIdz6vXr06RUf2VLfosP3tb39b6/COztoIIPJbL8ON/HVnHezdvrYLN7od1ZD/y/viyIxwiL/mj+uJ0RvFBczzJr14/95779XWfMjqXzZNUj7A6aaOsSB3jGCJBdi7CZH6EW6EVQQUa9asmXBNP/vZz2rhS7tgoJfhRrvgrds2jWuNRcazqb2y9osROcPDw+nDDz/stij7ESBAgAABAgQIECBAgAABAgQIECBAoCcCAxNu5Kd3ir/Gn+xUP3mt0dHRtHz58lqnfqxvEWXnt5kKNyJQ2blzZ9c/+/bta1onY7Id/1GnCDBirYTokC5OTZUPPnoxGiZv2Op9cVRD8byTqWN0ut93331NAUKMkoj7I0ZtRMd7jOKI0QvZ1Fj9Cjcy+4MHD9bWvCgGLxEmFe+7zGy2hRv564p7KT8SJu6rCD2effbZrkalZGV5JUCAAAECBAgQIECAAAECBAgQIECAwHQEBibcyHd6R0fxc889N+V6Z1MxRcdsrElRHAUyU+FGcfqryVYgb9DNqIas/Hx981NTZWtDXHHFFem1117Ldp/x1/z1/PKXv0wxbVW2TaaOf/zjHxvBRkyVtH///hQjOYpbN+2ZH2HTqZ26Ka94DTFq5aGHHmqELFnYVBZwzNZwI6tTtFHcO9laLVGXWCz+6aefznbxSoAAAQIECBAgQIAAAQIECBAgQIAAgRkVGJhwIxSefPLJ2giE6EyNaYimMo1SBBm33357rZwISaKDvLjlO69jtEWMfmi3xeiDuKb4iU7y/DbZsvLHFt9PpuM/f2yMlrjllltq15dNTRWjHuJ9XHNZwJM/vtfvjxw50likuhjSdFvHjz76KMVi3XH9nabUyrdBP0dulLnFdWfuce3FkStxTC/DjV27dtWM4lzdLGhfds2tPosg6fHHH2+M5IjRUDEqykaAAAECBAgQIECAAAECBAgQIECAAIGZFhiocCPCjAg1oqM2fn73u981TdvUCStCivir/GyKoFYBSb7zPTrQo0O61ZYPDuKaiuFGfgqs6U6n1W3Hf9m1xqiBuL5sGq78NF8RGvVzi4XQY0H0uJ7iyI3jx4831uUoBh/5a3znnXdq02xFGZ0CqGyESuzbKtzIL/w+EyM38tf+9ttvp1hvJK6nuK5K7Bf3eazN0er7fFmd7ol8O3cKgfLldvs+QrKYAiyuddmyZSmCJBsBAgQIECBAgAABAgQIECBAgAABAgRmWmCgwo3AiL9Ez+b8j5AiOu2jg7XTFsHGM8880zg2yoiFqMu2fIdxTNn06quvlu1W+yzWdLjssstqnbvRwVsMN/JrXsT3999/f8eRIK1Olr+udh3/ZcePjIykq6++unadMVolfuJ6phu4xLmiM37r1q1N00uVXUN8Fh6PPPJIwysWNI/P8lsEEHFtEYBEEFK25Tvts9EoZftF+BQBSpQXP63CjfzojnvuuaesqMZn+X3LyitOc9Y4sP6m08iMfDtHyNFuhFJ+37J7Iv5t3H333Y36h33Ru3h9+d/j+LKpvvL7ZO0l3MireE+AAAECBAgQIECAAAECBAgQIECAwEwKDFy4ER2z+dEX0WEd6y3Ews1lnbbx2ZtvvlmbiiobsRGvUUbZ/hl2NtIhyo/O8eiQLm6xTkUEBu3CjTgmzp/9pX4WyLTqAI+O5Ahdfv/73xdPlzp1ZE84IPdBdFJn0yH9+te/TrfddlutwzsWiG7nkCui5dussz4swvXDDz8s3TeuYdu2bU0B0yuvvDJh3/w0XxFIlW35ETHRqR7rbRS38IpRHVmw0S7cyIcl//Vf/9WyDnGOTuFGLHIeDq3aOB/QlU1LFcetXr26dt2xWHcsLN9q6+aeeP311xvBVqyN8fDDD7e8trhXH3300cbpXnzxxbRmzZoUa4aUbe+++2664YYbatdqWqoyIZ8RIECAAAECBAgQIECAAAECBAgQIDATAgMXbgRCca7/rPM6/tL/1ltvrU1XFVNWxXQ52fRH2T7RWfzUU0917NCPqYOuvfbaRsd4dNwPDw+nnTt3pliU+84776wtohwdu3GurPziyI2s0fId2rFvhB1ZeVHm9u3bax3xV155Za2sshEB3XRkZ+cre82mZ4owJvuJxb2nu2XhRmYQrzH9VfiHTfzEmh9hn+3TLmDKLzgex8RaEWG0ZcuWxqLVEchs3ry5UV6MxAmzGEkT+4ZtGMd54vMIQOLcZa5R/wgUYu2R7PoiMIt2jp8YyZEfPdEp3IhzRDnRljEyJcoo3jfxfVxfhAllW359mbj3HnvssVoZEYbkA6Fu74my+y9GEWVe8W/i5z//ecMru6a4n+NaIxSJKbRiv6hLZhzXFt+Hc9n6NVk5XgkQIECAAAECBAgQIECAAAECBAgQINBLgYEMNzKA6BiOTujoXO32p9Nfrmdlx2v81XrWKV5WfnRO/+1vf6v9lX72fatwIzrjoyO5XXlZGdGhX9ZR3G1Hdr4O+ffRQR/rLmTnicAhpm2a7hbXFR36YZuV3e41OsTDotWIkQgaskXfi+XEiIhsi2uPUSjFfbLf43pi/xjVk7m3CjeizAgNsinPsjLitTjdU7fhRr6M4vuYbirunVZbtFV+fZn88fl7bDL3xN69exsjiPLlFd/fe++9jcvKwo3iPvnf43594oknOk5f1SjUGwIECBAgQIAAAQIECBAgQIAAAQIECExTYKDDjah7dJBHyBF/hR6jKPKd09HpevPNN9e+y3fqR8fsypUr0+HDhzvyxaiEjRs3NhavjmOvueaa2siAY8eO1Y6PDvSsszff8VxWeEzZFH+FHx3X+WuNkQ4x6iRGcLSa1mkyHdll5w6rmIYqu9Z8UFC2/2Q/i+uO648RG9moiThXhAwxCiamxXrhhRdq02t1KjvqGiM1wjrKiJEB0YbRQZ/fYhRPlJn3jHaPaZ2yqco6hRH58iJwiBEKWdtEWWEW15NtncqLfZ977rnaaJX8yKF4H6NDYtRDqymrsnPEa0y9FefOygjHCKRiCq1sm+w9EeeNkSTFkTRx/91111216b3ya2zE+5jyK77Lt2n4hHncQ2VTtmXX55UAAQIECBAgQIAAAQIECBAgQIAAAQIzITDw4Ua3KBFExF/tRyd51rkfIwgijGg1gqDbsgdlv3y4EXWPRcZtBAgQIECAAAECBAgQIECAAAECBAgQIEBg0ATmTLgRDVO2VkeEHcW/zB+0Ruz2evPriNx9990pFvi2ESBAgAABAgQIECBAgAABAgQIECBAgACBQROYU+FG1jgx9dB1113XGMERIzliyqM33ngj26WSrw899FBjiqdYXNxGgAABAgQIECBAgAABAgQIECBAgAABAgQGUWBOhhuD2FDTveb8YuKxVkL8biNAgAABAgQIECBAgAABAgQIECBAgAABAoMoINwYxFab5DXH9FO/+93vGqM2YrFrGwECBAgQIECAAAECBAgQIECAAAECBAgQGFQB4cagtlyH6968eXPaunVr2r59e/r5z3/emILrzjvvtNZGBztfEyBAgAABAgQIECBAgAABAgQIECBAgMDsFhBuzO72mfLVrV27thFoxJoi8bNq1ar00UcfTblMBxIgQIAAAQIECBAgQIAAAQIECBAgQIAAgdkgINyYDa0wA9dw//33p6VLl6ZLL700XX/99emJJ55IJ06cmIEzKZIAAQIECBAgQIAAAQIECBAgQIAAAQIECPRXQLjRX29nI0CAAAECBAgQIECAAAECBAgQIECAAAECBKYpINyYJqDDCRAgQIAAAQIECBAgQIAAAQIECBAgQIAAgf4KCDf66+1sBAgQIECAAAECBAgQIECAAAECBAgQIECAwDQFhBvTBHQ4AQIECBAgQIAAAQIECBAgQIAAAQIECBAg0F8B4UZ/vZ2NAAECBAgQIECAAAECBAgQIECAAAECBAgQmKaAcGOagA4nQIAAAQIECBAgQIAAAQIECBAgQIAAAQIE+isg3Oivt7MRIECAAAECBAgQIECAAAECBAgQIECAAAEC0xQQbkwT0OEECBAgQIAAAQIECBAgQIAAAQIECBAgQIBAfwWEG/31djYCBAgQIECAAAECBAgQIECAAAECBAgQIEBgmgLCjWkCOpwAAQIECBAgQIAAAQIECBAgQIAAAQIECBDor4Bwo7/ezkaAAAECBAgQIECAAAECBAgQIECAAAECBAhMU0C4MU1AhxMgQIAAAQIECBAgQIAAAQIECBAgQIAAAQL9FRBu9Nfb2QgQIECAAAECBAgQIECAAAECBAgQIECAAIFpCgg3pgnocAIECBAgQIAAAQIECBAgQIAAAQIECBAgQKC/AsKN/no7GwECBAgQIECAAAECBAgQIECAAAECBAgQIDBNAeHGNAEdToAAAQIECBAgQIAAAQIECBAgQIAAAQIECPRXQLjRX29nI0CAAAECBAgQIECAAAECBAgQIECAAAECBKYpINyYJqDDCRAgQIAAAQIECBAgQIAAAQIECBAgQIAAgf4KCDf66+1sBAgQIECAAAECBAgQIECAAAECBAgQIECAwDQFhBvTBHQ4AQIECBAgQIAAAQIECBAgQIAAAQIECBAg0F8B4UZ/vZ2NAAECBAgQIECAAAECBAgQIECAAAECBAgQmKaAcGOagA4nQIAAAQIECBAgQIAAAQIECBAgQIAAAQIE+isg3Oivt7MRIECAAAECBAgQIECAAAECBAgQIECAAAEC0xQQbkwT0OEECBAgQIAAAQIECBAgQIAAAQIECBAgQIBAfwWEG/31djYCBAgQIECAAAECBAgQIECAAAECBAgQIEBgmgLCjWkCOpwAAQIECBAgQIAAAQIECBAgQIAAAQIECBDor4Bwo7/ezkaAAAECBAgQIECAAAECBAgQIECAAAECBAhMU0C4MU1AhxMgQIAAAQIECBAgQIAAAQIECBAgQIAAAQL9FRBu9Nfb2QgQIECAAAECBAgQIECAAAECBAgQIECAAIFpCgg3pgnocAIECBAgQIAAAQIECBAgQIAAAQIECBAgQKC/AsKN/no7GwECBAgQIECAAAECBAgQIECAAAECBAgQIDBNAeHGNAEdToAAAQIECBAgQIAAAQIECBAgQIAAAQIECPRXQLjRX29nI0CAAAECBAgQIECAAAECBAgQIECAAAECBKYpINyYJqDDCRAgQIAAAQIECBAgQIAAAQIECBAgQIAAgf4KCDf66+1sBAgQIECAAAECBAgQIECAAAECBAgQIECAwDQFhBvTBHQ4AQIECBAgQIAAAQIECBAgQIAAAQIECBAg0F8B4UZ/vZ2NAAECBAgQIECAAAECBAgQIECAAAECBAgQmKaAcGOagA4nQIAAAQIECBAgQIAAAQIECBAgQIAAAQIE+isg3Oivt7MRIECAAAECBAgQIECAAAECBAgQIECAAAEC0xQQbkwT0OEECBAgQIAAAQIECBAgQIAAAQIECBAgQIBAfwWEG/31djYCBAgQIECAAAECBAgQIECAAAECBAgQIEBgmgLCjWkCOpwAAQIECBAgQIAAAQIECBAgQIAAAQIECBDor4Bwo7/ezkaAAAECBAgQIECAAAECBAgQIECAAAECBAhMU0C4MU1AhxMgQIAAAQIECBAgQIAAAQIECBAgQIAAAQL9FRBu9Nfb2QgQIECAAAECBAgQIECAAAECBAgQIECAAIFpCgg3pgnocAIECBAgQIAAAQIECBAgQIAAAQIECBAgQKC/AsKN/no7GwECBAgQIECAAAECBAgQIECAAAECBAgQIDBNAeHGNAEdToAAAQIECBAgQIAAAQIECBAgQIAAAQIECPRXQLjRX29nI0CAAAECBAgQIECAAAECBAgQIECAAAECBKYpINyYJqDDCRAgQIAAAQIECBAgQIAAAQIECBAgQIAAgf4KCDf66+1sBAgQIECAAAECBAgQIECAAAECBAgQIECAwDQFhBvTBHQ4AQIECBAgQIAAAQIECBAgQIAAAQIECBAg0F8B4UZ/vZ2NAAECBAgQIECAAAECBAgQIECAAAECBAgQmKbAnA03XnvttXTmmWem0047renn6quvTsePH2/J+t5776Vvf/vbTcdEGZdffnk6duxY47hW5RfPt2jRonTkyJHU7f7F41esWFE7Z5QRZRW/z34fGhpK559/fvqf//mfdPjw4cZ15t9EWdn+8fr888/nv256/89//jO98cYb6Y477qiVG+Vnx37lK19J3//+99PmzZvT2NhY03F+IUCAAAECBAgQIECAAAECBAgQINBJYN++felLX/pSo79p4cKF6a233mp5WLFv7YILLkgffPBB0/4fffRRuvjiixtlRl9W9A/Gse22yfSZRTnRp5b1k8Vr1n9XPEf0JUafYrZv8VqKdcr2K75m/YvF8v1OoOoCwo1CuPG1r30tvf766y3bPR5On/3sZxsPnexhMtvDjew64/ULX/hC2rJlS4qAIr91+6B+//33089+9rNSh/x5iib5c3lPgAABAgQIECBAgAABAgQIECBAoJVAMYiI/rh2f4j7hz/8oam/7vbbb5/Q91UMTLJ+rAcffLDVZdQ+77bPLCtEuJFJeCUwswLCjUK4EQ+16Pgv2yIMWLlyZdODMnsIFjvyJ5usdrt/dr7sNUt+O43cyPbPXotJcNS3mwf1yMhI+s53vlNqkJWdvRZNykx9RoAAAQIECBAgQIAAAQIECBAgQKBM4N57723qg4rAomyLmUNuuOGGxr6f//zn01/+8pcJu65bt66xT9Z/Fa8xmiPClFZbN31m+WOFG3kN7wnMnIBw47TT0uc+97l0xhlnNB5uraamyk9J9cUvfjHFgzJ7EBY78othRfH7bpq02wdhlFUMN/LD0eIB/9RTT02Yhise6Pmt04M6hvJdeOGFjTpH3cPhvvvuaxrmd/To0fTMM8/UpqzKT9WVP5f3BAgQIECAAAECBAgQIECAAAECBNoJFEdaLFmypDSEePvtt9M555zT6LMqm5Iq+qu+973vNfb57ne/23gf01/FuVptnfrMisd126c32WmpptK/WLw2vxOokoBwoz5y40c/+lHjgdZqaqp4MGVTUsXDNOb6G4RwI27YGHUS6XZ2vfEaD+b81u5BHcffc889TcfHCI4YyWEjQIAAAQIECBAgQIAAAQIECBAg0GuBGE0RfXBZf9b8+fPTK6+8MuE0+T672LdshMeePXsaf6gcf7Ac69JGeVnZMUqk1dauz6zsGOFGmYrPCPReQLhRDzd+85vfND3QilNTFaekilEP+US4mJzOppEb2W0T8wdmD+x4nUy4UUzAY92O3bt3Z0V7JUCAAAECBAgQIECAAAECBAgQINBzgeJUUmXrY+T/oDeCiwgy8lvxj35jZEf8wW4+OGk1KiTKEW7kNb0nMHsEhBv1cOOJJ55oeqAVp6bKT0kVIzsef/zxpmmeZnu4EVNTXX/99U3hRiy0lN/aPahjWqt8MFL0yZfjPQECBAgQIECAAAECBAgQIECAAIFeCMRIjfwIi2uuuSadOHGiUXRxdEdMPRVTUOW3mGo9Ao2sbyvW1C0GHq1GhUQ57frM8ufJ3hu5kUl4JTCzAsKNergRD538IkXFqanyw9uiYz8erLEod/ZQ7BRuZPsVX8vS5qzJu30Qxv7t1twYHR1Nv/71rxtTasU1xNoZ8WDPb+0e1PkEPI6///7784d6T4AAAQIECBAgQIAAAQIECBAgQKDnAsXwIqaJf+uttxrnKa7LUTYlVb5fL6acj99jy09VFf1dxfVps5O06zPL9sm/dtunN9k1N4r9itnv7foX89flPYGqCQg3cuFG8WGYTU1VnJIqPu807VTx++xhU3xt9/Dp9kEYN2Ux3CieJ//7ueeemw4ePDjhXm73oC5+FyM5bAQIECBAgAABAgQIECBAgAABAgRmWqA4NVW+Xyr61rJ+r7IpqWI2k5tvvrmxTz4cyc/UEmWUjfqIuhX7xbJwpFW9u+3TE260EvQ5ge4EhBu5cCOS4IsvvrjxsMumXsqvN5GN6CiGF7Nt5Eb2UM+/xkiTeOB//PHHpXdHuwd18btnn322tAwfEiBAgAABAgQIECBAgAABAgQIEOilQHFqqmxaqZieKqapyvq/ysKJfL9e7HfDDTekCDxiK/5Bc1k4EvsV+8WEG71sXWURmLqAcCMXbgRjfmqqCAMixHj66acbUzplgcdkw41i+NFNk3Wb8kZZ3YzciGF38fD/5JNPSk/f7kFd/K7diJPSwn1IgAABAgQIECBAgAABAgQIECBAYAoCxampshAjpqeKkRhZuFE2JVVxHdniGrT5fr8oJ8qI0CO/FfvFZiq+gW2cAAAgAElEQVTcWLRoUa2PLzt3p/7HbD+vBOaqgHCjEG4UHxqPPPJILRDIHpLZVFXF/YrhRafvu7nhphNuZA/DWFfjiiuuaDzkox633nprI6HOX0e7B3WssZEZxGs+5c6X4T0BAgQIECBAgAABAgQIECBAgACBXgvkp6bKFv+OvrP4Y97oqyobdREjNKIPK9+n1el9LDw+mXVqy+rZbZ9ezK6ydOnSxvVl/XlZmb3oX8zK8kqgigLCjUK4UZzrLoKBeKjFgy+bkipuhE4Pl07fd3MzdfsgjLKKIzfyD8MYfved73yn8aD8whe+0Fg4KX8d7cKN4gJLMarl1VdfzR/uPQECBAgQIECAAAECBAgQIECAAIEZEShOTbV27dqmP0jORnPkTz4yMpK+8Y1vNPrEOgUb8X2EJH/5y1/yxUx6Wqpiv2BMnRVTaBW3d999N51zzjmN64ugIz+dfLGc4h9XF8vzO4G5JiDcKIQbcQPE6IzsYfe5z32ukQBnU1LFPp0eLp2+7+ZG61W4EeeKEShZkh11u/DCCyeVQhfXI4kyvv/976d4CNsIECBAgAABAgQIECBAgAABAgQIzKRAcWqqH/7wh+m73/1uow+vbEqqfB9f1tfXzWu2pkdWn3Z/EJztk389evRobXHy7FzZ1Pf5feJ9TJmV768r1qEX/YvFc/qdQJUEhBsl4cbrr79eG6WRPYCy12xKqrgBOj1cOn3fzU3Uy3CjOCIl6nTPPfc0zSHY6UEdi4jHqI/MI15jXsPHH388xf9gYos5Cd9777302GOPpdWrV6c4r40AAQIECBAgQIAAAQIECBAgQIDAdAXyU1N98YtfrI2yiP6psimpjh8/nuIPlbN+rLIRGdn1FPvxvv3tb9f6t7LvO/WZZfvlX++8887GueMaYmaY/fv3p3/84x+16eIj2IjQI7u+L33pS+nll1/OF9Gx/7FpZ78QmIMCwo2ScKP48IuHTH5KqrhPig+94rCw4vfZg6rsNUKMsq2X4UaUv3v37qZwoji1VKcHdTx8N27c2JQol9Un+6xoUlZHnxEgQIAAAQIECBAgQIAAAQIECBDoRqA4NVXWB1U2JVWxb64YWOTPV5yxJEZT5Pvrin1m2XmLr/m+sHfeeSctXry4EV4U9y3+XrZGbrEOxWPyv+evN1837wlUWUC4URJuRIMXh63lp6SK74sPl/zDq+z7/MOm+L7Vw6fX4UYsohTD6vLnv+qqqxqjK4oP6rLrioDj97//fYp0PF9O2fuiSZX/IakbAQIECBAgQIAAAQIECBAgQIDAzAoUp6bK+qNiREdxe/DBB5v6ropTTRX3z48KiXJvvvnm2giL2K/YZ5adt/ha7As7ePBgOvfcc5uuo3hMBClxbZ988knxkib0PxaPzf9e1o83oUAfEKiYgHCjRbhRXHAoPyVV3AODGG7EdceUW9/85jcbD9V4gMYwuNiKD+p2D8XR0dG0adOm2rob+aBjaGgoxWLmt9xyS3rppZeapr2qncR/CBAgQIAAAQIECBAgQIAAAQIECExRoBhCzJ8/P8WIjvxWHIkRIUDW/5XfL/++OCokFvp+++23a7sU+8zyoUL+fTHciIMjtIgp3S+66KKmGVXOOuusdNNNN6VXX321Zf9Zsf8xf67i+3b9ePl6ek+gSgJzNtyoUiOqCwECBAgQIECAAAECBAgQIECAAAECBAgQmEsCwo251NrqSoAAAQIECBAgQIAAAQIECBAgQIAAAQIEKiAg3KhAI6oCAQIECBAgQIAAAQIECBAgQIAAAQIECBCYSwLCjbnU2upKgAABAgQIECBAgAABAgQIECBAgAABAgQqICDcqEAjqgIBAgQIECBAgAABAgQIECBAgAABAgQIEJhLAsKNudTa6kqAAAECBAgQIECAAAECBAgQIECAAAECBCogINyoQCOqAgECBAgQIECAAAECBAgQIECAAAECBAgQmEsCwo251NrqSoAAAQIECBAgQIAAAQIECBAgQIAAAQIEKiAg3KhAI6oCAQIECBAgQIAAAQIECBAgQIAAAQIECBCYSwLCjbnU2upKgAABAgQIECBAgAABAgQIECBAgAABAgQqICDcqEAjqgIBAgQIECBAgAABAgQIECBAgAABAgQIEJhLAsKNudTa6kqAAAECBAgQIECAAAECBAgQIECAAAECBCogINyoQCOqAgECBAgQIECAAAECBAgQIECAAAECBAgQmEsCwo251NrqSoAAAQIECBAgQIAAAQIECBAgQIAAAQIEKiAg3KhAI6oCAQIECBAgQIAAAQIECBAgQIAAAQIECBCYSwLCjbnU2upKgAABAgQIECBAgAABAgQIECBAgAABAgQqICDcqEAjqgIBAgQIECBAgAABAgQIECBAgAABAgQIEJhLAsKNudTa6kqAAAECBAgQIECAAAECBAgQIECAAAECBCogINyoQCOqAgECBAgQIECAAAECBAgQIECAAAECBAgQmEsCwo251NrqSoAAAQIECBAgQIAAAQIECBAgQIAAAQIEKiAg3KhAI6oCAQIECBAgQIAAAQIECBAgQIAAAQIECBCYSwLCjbnU2upKgAABAgQIECBAgAABAgQIECBAgAABAgQqICDcqEAjqgIBAgQIECBAgAABAgQIECBAgAABAgQIEJhLAsKNudTa6kqAAAECBAgQIECAAAECBAgQIECAAAECBCogINyoQCOqAgECBAgQIECAAAECBAgQIECAAAECBAgQmEsCwo251NrqSoAAAQIECBAgQIAAAQIECBAgQIAAAQIEKiAg3KhAI6oCAQIECBAgQIAAAQIECBAgQIAAAQIECBCYSwLCjbnU2upKgAABAgQIECBAgAABAgQIECBAgAABAgQqICDcqEAjqgIBAgQIECBAgAABAgQIECBAgAABAgQIEJhLAsKNudTa6kqAAAECBAgQIECAAAECBAgQIECAAAECBCogMBDhxo4dO5IfBu4B94B7wD3gHnAPuAfcA+4B94B7wD3gHnAPuAfcA+4B94B7wD3gHnAPxD0g3BCcCI7cA+4B94B7wD3gHnAPuAfcA+4B94B7wD3gHnAPuAfcA+4B94B7wD0wUPfAQIQbFRghowoECBAgQIAAAQIECBAgQIAAAQIECBAgQIBAjwSEGz2CVAwBAgQIECBAgAABAgQIECBAgAABAgQIECDQHwHhRn+cnYUAAQIECBAgQIAAAQIECBAgQIAAAQIECBDokYBwo0eQiiFAgAABAgQIECBAgAABAgQIECBAgAABAgT6IyDc6I+zsxAgQIAAAQIECBAgQIAAAQIECBAgQIAAAQI9EhBu9AhSMQQIECBAgAABAgQIECBAgAABAgQIECBAgEB/BIQb/XF2FgIECBAgQIAAAQIECBAgQIAAAQIECBAgQKBHAsKNHkEqhgABAgQIECBAgAABAgQIECBAgAABAgQIEOiPgHCjP87OQoAAAQIECBAgQIAAAQIECBAgQIAAAQIECPRIQLjRI0jFECBAgAABAgQIECBAgAABAgQIECBAgAABAv0REG70x9lZCBAgQIAAAQIECBAgQIAAAQIECBAgQIAAgR4JCDd6BKkYAgQIECBAgAABAgQIECBAgAABAgQIECBAoD8Cwo3+ODsLAQIECBAgQIAAAQIECBAgQIAAAQIECBAg0CMB4UaPIBVDgAABAgQIECBAgAABAgQIECBAgAABAgQI9EdAuNEfZ2chQIAAAQIECBAgQIAAAQIECBAgQIAAAQIEeiQg3OgRpGIIECBAgAABAgQIECBAgAABAgQIECBAgACB/ggIN/rj7CwECBAgQIAAAQIECBAgQIAAAQIECBAgQIBAjwSEGz2CVAwBAgQIECBAgAABAgQIECBAgAABAgQIECDQHwHhRn+cnYUAAQIECBAgQIAAAQIECBAgQIAAAQIECBDokYBwo0eQiiFAgAABAgQIECBAgAABAgQIECBAgAABAgT6IyDc6I+zsxAgQIAAAQIECBAgQIAAAQIECBAgQIAAAQI9EhBu9AhSMQQIECBAgAABAgQIECBAgAABAgQIECBAgEB/BIQb/XF2FgIECBAgQIAAAQIECBAgQIAAAQIECBAgQKBHAsKNHkEqhgABAgQIECBAgAABAgQIECBAgAABAgQIEOiPgHCjP87OQoAAAQIECBAgQIAAAQIECBAgQIAAAQIECPRIQLjRI0jFECBAgAABAgQIECBAgAABAgQIECBAgAABAv0REG70x9lZCBAgQIAAAQIECBAgQIAAAQIECBAgQIAAgR4JCDd6BKkYAgQIECBAgAABAgQIECBAgAABAgQIECBAoD8Cwo3+ODsLAQIECBAgQIAAAQIECBAgQIAAAQIECBAg0CMB4UaPIBVDgAABAgQIECBAgAABAgQIECBAgAABAgQI9EdAuNEfZ2cZAIEjR46kRYsWpdNOOy09//zzA3DFLpEAAQIECBAgQIAAAQIECBAgQIAAAQJzU0C4MTfbXa1LBIQbJSg+IkCAAAECBAgQIECAAAECBAgQIECAwCwUmNPhxoMPPlj7K/34S/2yn7POOiutXLkyjYyMzMKmc0ntBEZHR9NDDz2ULr744vSVr3ylqX2HhobS2Wefna699tr00UcfNYoRbjQovCFAgAABAgQIECBAgAABAgQIzCqB6Le5884707e+9a302c9+ttbXE30+0b/z6quvpn/+859Tvt7jx4+nLVu2pAsvvDBFv1H0Ey5YsCCtXr06vfvuu1Mq9/Dhw2nx4sW1si6//PJ07NixKZXTi/7LqfR5xfXGdYfFihUrpnTtDiIw0wLCjRbBRj7siIfa2rVr09jY2Ey3h/KnKfDxxx+n22+/vfE/onw7Ft/HFFTxcM+2qTzos2O9EiBAgAABAgQIECBAgAABAgQI9F4gQouYPvzMM8+sdbQX+3fi9wg77rrrrin13cUfNV9wwQUty/7iF7+YnnnmmUmHJ/lQYibDjcyjXf/lVPq8hBu9v5eV2HsB4cZpp9US37/97W+1ju74xx4/+/fvr3WSxwMse0g+8sgjvW+BOVzie++9VwuNfvCDH6QDBw5MW6L4P6N//dd/rZX/0ksvNdr20KFD6dlnn0133HFH+tGPfpQ++OCDxnmn8qBvHOwNAQIECBAgQIAAAQIECBAgQIBAzwWy/poIMK666qq0d+/eWogRf4Qc/Uk//OEPp9x3F/1CMVoj+v4iPHniiSfSiRMn0j/+8Y/aeaLPKr770pe+lF5++eWu6/a///u/tVlDsuChF+FGjFiZav9lZhjX0+06s8KNrpvbjqdQQLhx2mm1RaTjH3nZ9vrrrzcWmf7e976Xjh49Wrabz6YgEA/T7H8er7322hRKGD/knXfeaQz1i0Aq0vEYUjiZbSoP+smUb18CBAgQIECAAAECBAgQIECAAIHJCUR/TUzv9Pjjj5eOnogpx6+88spaH9Nk++7+8Ic/1I77whe+UPtj2OKVvf322+k73/lObZ+bb765q5EhMdJkzZo1tWN6GW4UZyDJX2un/sup9HkJN/LC3s9WAeFGh3AjGi4bRhYJ7nQ74WfrjXAqrqtX4Ub+f2Jf+9rX0p49e6ZUnak86Kd0IgcRIECAAAECBAgQIECAAAECBAh0JRDrqu7bt6/tvjFLx1T+gDbWkojj2o2suP/++2v7tAsX8hcXIzxipEeMKLn66qs7lp8/tux91i/Z6fzZfmX9l1Pp8xJulLWGz2abgHCji3Aj64SPh123Q7dmW0PPxuvJXMseupO53pguLIYmxs90pg6byoN+MtdpXwIECBAgQIAAAQIECBAgQIAAgd4LxB8jR//SZPuYsnCj3YLZWf9Vp3AhahV/gLt06dIUI0HiuKz8duFJJ40stOh0/uw6y/ovp9LnJdzo1DK+nw0Cwo0uwo1u0t9PPvkkbdmypTZPXyzgEw+Sr3zlK2nlypUp1oLotMU+sW8cE8dGGTHn35/+9KfaPH/tHobZQ67TgzLbr93DMIbOxfx9N91004RriXkH2031FIt5b9q0qckgHuYXXXRRevrpp2tD9/IPxqhn2U+neuQt438aF1988bRT8Ciz+KAPi0jbL7300tr/lLI2/e///u/07rvv5i9jwvuYWzEWoT///PMbi5vHdFmR2EeZUXbZlrVzvMY+sV5I3AcR3Jx11lm1tskfl11jlJutDxPmcc1xnmiT8IxrjzJbbTFPZdzn//mf/9moa5R37bXXpldffbXl9bYqz+cECBAgQIAAAQIECBAgQIAAgX4JvPLKK2n+/PmTDjduv/32jn1K69atq+3Tacqr6KPZuHFjbd/o44u+lqyfZzJ9XUWzbvrz4ph2/ZfFPq/iOcp+z/fhtepTirVJXnjhhVp/V9YvFX1YsT7I3XffnT788MOyon1GoGcCwo0O4UY8iH71q1+1fYgdPHiw1old1lEfn0Vnc6t5AaP8DRs2NDrAi2XEA2HVqlW1sCG+K3sYZg+5su/yd0q2X6twI64lOuSzcKZ4LfF7pM/vv/9+vtja+1iA/Zvf/GbNqey47NryD8ay/eKzbN8JJyn5IPufVxwX8yROZ8s/6P/85z/XpiNrZRF1jTqXbWEY7daqflFmhEBlAUf2P714jf8pxb2TlVP864MI1OJ/lq3OFee59957a20WZbT6H1EENZdccknjPNn5stcoP8qJ+8NGgAABAgQIECBAgAABAgQIEJhtAtnaGeecc07HP0jNX3tMdxVTSEX/S/TDFLf8mhvRN9Juy6ajOvvss1P80WtsWT/PZPq6iufo1J8X+3fqv8z3ecUIj262fB9eWZ9S/MHxj3/845b9ScV+rG7OaR8CkxUQbrQJN6Lzefv27bUHXHTwRod0cYsRFwsXLqz9Q/7BD36Q9u7dW3ugRHL597//PV1zzTW17+IfdPwFfH6L8uMBFWXHz3XXXVc7Jo7Njo/PPve5z9V+orO57GGYPeTKvsufL9uvLNyIa7nzzjtr1xEP9Pvuuy998MEHtcPjYfXoo4/W0u+4hix9zsqO/WJ0QXwXBhH2xPVHmfFdjNq47bbbUjwU81s2XG46D7vsf15nnHFGy7Ahf8527/MP+htuuCGdfvrptbAnc4jXSJ2jraKuMaqhbCRLPPAjrQ7Pt956q2YRHhGGZItQRTgSiz0Vt+x/ehE2xGJZv/71r1PMLVnc4n9at956a+064nrifXau+C7uw5jbMb6L+yeut+x/RFGn//iP/6h9f+6559b+R37ixIla28X/wKPcKOPzn/987d9C8Tr8ToAAAQIECBAgQIAAAQIECBA4lQL5TvhuF/3OrjffNxf9UzFrSfSLRD9OhBUXXHBBrc8kFiyP/rFWW/zhaOwbfShPPfVUY7esn6dTn13jgJI37frzYveoQ6f+y3yfVy/CjThntmh63i2uJ9ojQqPoP4zZYWwEZlJAuHHaabWhUvGPLf6hx088kOIfeqSP8dfv8WCK0RPFv1yPju3o4I6O41YPufgHnQUcxQdsdG5nox2iE7lYfjR8fHbPPffUzhHnKXsYZg+5su/yN0+2X1m4sXv37lqI0yqpjnJ27dpV2ycS7fxCTjt37qwZxWLeZR32+WvIv+9FuDHZRZ3y5y++zz/oozM/Qpl4WOe3aI9sJM83vvGN0inHYnqyVtNWZSl+tGXZSJPsf3oRSPzyl78svSfierL2insz2rV4nbFPjOyI6cXiXPFTDDfy/yOKIOWdd97JV7X2Pv5nng3RjOm/2v2P/P+zd+89d1Tl4/99BvoM4Blg0j8IMUT4AwKGhpraAA2CJW0gwCcghYCAHAyQIAcpIIeComjl0CBgWglBCqjwgYAcSjjKqaUVBEROAjbA/PKe3/fan9V1rznc+953e++935Pc2YeZWbPmtdae3V7XXrNm7OwbCiiggAIKKKCAAgoooIACCiigwDwKENsgLkJ8hLjU66+/PuujEft44IEHBrf7jjgKj5RLkJ4YS9NCrCh+gJr/IDjiPF0xu6ayeT/iedzqaZj4JWWkMa9RJDf4sWz8gJc4mIsCu0vA5EbDvA9xITvssMPqIDcXunyJoWtdIw+4aHAxZIQHv66PheFsHIfA8nvvvRdvz3jkghGZ4tLFMC5ypXVpYbFdntzgIkzihboQuOd1aUkz4dxvMJZIUjQF+2O7/DH26/LL90tfx5dEfk7pNn2fpxd65rAojcqgrPRWWH2/EKIOJAdOOeWUgXW8H49xPm2JorS9utqcZBNl0bZ5coORGQzXJJFTGnoZdYpJubh3JefuooACCiiggAIKKKCAAgoooIACCuxuAWJ1xLr4YTI/1iXIXvrxZ1c9//GPf9R3v4hYYP64ZMmSemREqew0uVL64WjEebriN211jHheXq/0dVv8krLTmFffWFYaB8xjSml5pR/vtp2P6xQYpYDJjZbkBhlIArtNS4wa6LpARXA4vXUSgXNGe3Ah4pfxXUvbxTAucl31iO3yRACjDAhyk4DpusBFPa644orBF0YaQL/44osHt7PqOqeFnNzYuHFjY/XDi7br8soLaftiYNvwZW4TJgMvLWl2vOsLpO14MdHUihUrqvfff790qPq99AurLQnSWIArFFBAAQUUUEABBRRQQAEFFFBAgREKpPOQkthomuu265DcQjx+FMrtveNW6+xH/IWYXdzVhbhanuAgTsLx+eFufjt6yog4T1fMrq2eEc9Lkxnp8674JWWnsZ2+say2mBJxTX4YTD24zfnf//73GTZt5+Q6BUYlYHIjm3ODrC8XMuaO4APKBa5p4ui4QKUXlK7ncQFJLypdAWoaO45VuhjGRa60Lu0osV2e3IjkS1fd0/XpsdIsNdtwUae+XNRLI16iTqNIbsQ5zXbUSNQhfUzbJNopXR/P+2yHCQkDyrnttttqj2OPPbZavHhx3a9wwihfop3T5FG+TbQXIy6effbZfPVOr9u+iMIubdeu5+zjooACCiiggAIKKKCAAgoooIACCuwuAW7NFHc4IbD+/PPPD1UVkhcxhyxzr5bu4JHGvPLbtEdihB8LEy/JEx9UKuI8aRxttpWN+E0az5tN/JLj9Yll5fVqiymxbZw/sSQMSA49+uijrbfwyo/hawXmKmByI0tuBCi3D4qRFVwwS3MoxAWqKyCcro+g+WwvKnGs0sUwLnKldXE+PMZ26cWQ9yNYntaz63l+LC7gzz333ODLJfbnWGSxSxf4USQ3YvRBn1EnqUXped82aduO82QOEs47DJoeadN8iXYurYtto7363M6r7Yso+kNT/Urvs4+LAgoooIACCiiggAIKKKCAAgoosKsFiLkw4feBBx5YB9MvvfTS6pNPPhm6Gkz8TewjT1rkBRIjZB5StmVODerBvKXchor3mubRpZyI8+RxtPwYba8jfpPH89inT/yS7dJYVtvdStJ6pDEl7l5TWoiX0g6Mbok4Eu2zbt06kxwlMN8buYDJjYbkBtJMQhRD02666aYZAfq4QLUFoptaLL2oRMKjaVvej2OVLoZxkSutS8uM7fKL4WyC5Wl5pedc4Ldt21bXlxEcXNhIPNx8880z5vIYRXJj+/btFaM2OE7bfCGluubv9W2Ttu1iOCL1WblyZcXcJJwnX3p84aRfDKV+E+1cWhf1jfZKb3MW6/LHtuNFf+jqN3mZvlZAAQUUUEABBRRQQAEFFFBAAQV2pQAjFe666646xkTwnAnA2+4W0qduxJGI3+RxstK+Ea9hHlXiOxFTYf/Z/rHvbJY4VlM9u+KXHItbn3MLdOqazqPbVo/0tuhdCZGPP/64NmHuj/DAqvRj8bZjuk6B2QqY3Gi5iBGo58LJh5Is7gsvvLCTLxcD1rXNj7DTDsmLjz76qDr++OPr/Zuyn7H5jh07qgsuuKDethSIjosc5VFu0xL1zS+GTHLOZOecC8H5US1kz5mDI/yYgD1dRpHcSCfXbrq/YXrMtudtSYt0v6bt0jb99a9/PSOZQxltyQbWx5dlW3KD4ZeHHnpor/ZK65SXGb9QYL4Vv2zSFva5AgoooIACCiiggAIKKKCAAgosFAHic8S++PEsP0LO40vD1jNiMHmcrFRebBuxt4jFEfOa7R/7zmaJYzXVsyt+ybGIn3HrLepaii2W6oMz8dA+t0WP/Uk4/fGPf6xvWc+xbr/99ljlowLzImByoyW5gXh6/z2SGGRnYyE4z4W1a/habJ8+phcVhral5abb8TydsLt0AWLODi4YXODZtrRQfgyhyy+GacD98ssvLwblS2X2eY+gOcFz6pdneUeR3KAOJJ1oA47BkEBGSQyzNCUt8rKatosRFQcccED14osv5rvVr+lPcV/IPNnABvFlWVoXBdKWZL85X4b+0Zealmeeeab+EmLbvMyoL3344YcfbirC9xVQQAEFFFBAAQUUUEABBRRQQIHdJkCsa9myZXXAfPPmzSOrBz82Jl7SFddLYzn8+JgfIRNLIz7U9XfJJZfUxyAm9/bbb9fbs+9slq7kBmW1xS/jWBE/5E4rXY4kTJhMHR/iWJTfd2Ff5pJlX275X5rLpG9ZbqdAl4DJjY7kBoCPPPJIHSAmCLxhw4aBaXpx+/GPf9x4nz8+1ATymZMiXQgoUyZ/XKjYLl8IZMfcH1wUSsmNyKSy/tZbb51RDuVSPsdhmzy5wTHvvffeeh0XOM63VBe2YzQGBn0vxGlyg5EC6cLcFNSpLRmQbt/0PD8/JpPCuukcKIfheJikF+empEV+3Kbt0mQB7Z0veT3zZAPb90lusB2Zb9qS9moabZPe/5Ft8+Px5XL++efX5ZAU4ku2aWGSqLz9mrb1fQUUUEABBRRQQAEFFFBAAQUUUGBUAhEDYeRB2w88Z3u8NJ5G7K30w+P0dljEsO67775ZHSbiPKV4Xt+C+iQ3KKspfhnHeeeddwY/QD7mmGMqbvVeWohfPfjgg0OPvmD/SG6Mus1K9fW96RYwudEQ7JPtIQ8AACAASURBVE+7BUHgCy+8sA4CkylOR0fkcyzwOgL/ZHIZVXDeeefVQfw84M12rCPwzAWSCYi40HAR4GL90ksvVatXr66WL19enXzyyfV2pYthGqQm2M2ttOKCTPCeSXy4H+GJJ55Yl1FKbqRJFCYBWrt2bcXtqriIU5/333+/TgYsWbJkRoKFERlcrPlSiHNnH87lsssuq4/JOeTB83S+DEYgcH8+zoWkB4+zWfCizpHA4fGkk06qkza0FwkJgv2PPvpoXSeccoempEVej6btqP///M//1OdLgoVRE9QLC859zZo1FbfOijlC8mQDx4kvvdK6tB4kjWIECOeyfv36QaKGfkc/ZM4PkhbHHntsXadSmSQtYl4Z2nbTpk2DW5tRd26BRb3pE3yZuiiggAIKKKCAAgoooIACCiiggAK7SiC9VTsjCYjJdP0RC0vn42DEAnGx008/fafbchOvYY5d4nL8EUfhh8jEXDhGGtNjfVMCpM0i4jyleF7bfum6vsmNtvhllEdyJmJnxJOo37PPPrtT3CzimG3nzDwfbEecDW8sWYgv3nPPPXVihOP4Q9mQ93G+BExu9EhugB+/yueDnd4KiA8vox64ILCu6Y9g99atW2e0IxfMuMVQaV+C4U8++eQg6N10MSRITeKlVAYXE7Lcd9xxR70+D+pHpbrqQtmURbKEwHcscZEtHZv34hxi+3iMhES+X9M5xn5Nj3xx8SVEkD4vM3/NeXALrkjGUGZT0iI/Xtt2abIrPyZfpA899FCdHGJdKdkQX3qldXk93njjjYp+lR8nXpOFp1/g2XQ8yqR/0UaxX+mR9SRrXBRQQAEFFFBAAQUUUEABBRRQQIFdJUDcJuIapXhF6b007pXvn//wmNgUcS5+1FkqK94jsfHBBx/M+rQjzjNsrIsDRtwtPa+mijTFL2P7iGMSo4pza3psO+f0OKX9ibvdfPPNO8UPow4+KjBKAZMbPZMbfPi55RMfWCbSYahXujBK4cYbb6wOP/zwwcWBCwX31PvrX//aOhKBzCpB7xNOOGFwMV28eHF17bXXDjLKfS6GJCfYh32pJxdmjv/000/XGdQ+F0Mu6gToTz311EHChgvSkUceWV1//fXFIWuMiOCLgAx3fBnwyOtbbrmlThqkVulzzp1RBzF6ALPf/va39f0L0+1m8/zzzz+vM8fccmnp0qWD9iABxUiGX/7yl9W2bdsGWeUouy1pEdvw2LUdZTPSJ74oeOQ176dfqqUERrRzaV1ah3jO7bVuu+22asWKFXXiibbiOW3Nuq7jRTmMOknLof/gxWgfbkNGWS4KKKCAAgoooIACCiiggAIKKKDArhRI4xqlIHrpvTwJ0DRyIz0P7i5C3CuN6xFfI57DnVXSkSDpfl3PI86zq5IbXfHLqC+xLWJ2aSyPmNJhhx1W3/Gk65yJvT3wwAN13DHiX7QFcTju4vLKK6/MiLvFsX1UYJQCU53cGCXkfJc1iovhfNfR8heeAMMBY2QQCQ8XBRRQQAEFFFBAAQUUUEABBRRQQAEFFFBgEgRMboxJK5rcGJOGWmDVZL6RGBXDiBwXBRRQQAEFFFBAAQUUUEABBRRQQAEFFFBgEgRMboxJK5rcGJOGWkDVTIciMok5QyxdFFBAAQUUUEABBRRQQAEFFFBAAQUUUECBSRAwuTEmrWhyY0waagFVM50o/JprrnESpwXUNlZFAQUUUEABBRRQQAEFFFBAAQUUUEABBeYmYHJjbn67bG+TG7uMeiwO9Prrr1dnn312xaRYb731Vj1xOBXfsWNHxa2omFg+JndnEnUmfXdRQAEFFFBAAQUUUEABBRRQQAEFFFBAAQUmRcDkxpi0pMmNMWmoXVTN1157rTrkkEOqRYsWtf4dd9xx3o5qF7WJh1FAAQUUUEABBRRQQAEFFFBAAQUUUECBXSdgcmPXWc/pSCY35sQ3cTt/8cUX1ebNm6urrrqqOvroowejNEh2LF26tDr//PMrbkv15ZdfTty5e0IKKKCAAgoooIACCiiggAIKKKCAAgoooIDJDfuAAgoooIACCiiggAIKKKCAAgoooIACCiiggAIKjJWAyY2xai4rq4ACCiiggAIKKKCAAgoooIACCiiggAIKKKCAAiY37AMKKKCAAgoooIACCiiggAIKKKCAAgoooIACCigwVgImN8aquaysAgoooIACCiiggAIKKKCAAgoooIACCiiggAIKmNywDyiggAIKKKCAAgoooIACCiiggAIKKKCAAgoooMBYCZjcGKvmsrIKKKCAAgoooIACCiiggAIKKKCAAgoooIACCihgcsM+oIACCiiggAIKKKCAAgoooIACCiiggAIKKKCAAmMlYHJjrJrLyiqggAIKKKCAAgoooIACCiiggAIKKKCAAgoooIDJDfuAAgoooIACCiiggAIKKKCAAgoooIACCiiggAIKjJWAyY2xai4rq4ACCiiggAIKKKCAAgoooIACCiiggAIKKKCAAiY37AMKKKCAAgoooIACCiiggAIKKKCAAgoooIACCigwVgImN8aquaysAgoooIACCiiggAIKKKCAAgoooIACCiiggAIKmNywDyiggAIKKKCAAgoooIACCiiggAIKKKCAAgoooMBYCZjcGKvmsrIKKKCAAgoooIACCiiggAIKKKCAAgoooIACCihgcsM+oIACCiiggAIKKKCAAgoooIACCiiggAIKKKCAAmMlYHJjrJrLyiqggAIKKKCAAgoooIACCiiggAIKKKCAAgoooIDJDfuAAgoooIACCiiggAIKKKCAAgoooIACCiiggAIKjJWAyY2xai4rq4ACCiiggAIKKKCAAgoooIACCiiggAIKKKCAAmOR3HjiiScq/zSwD9gH7AP2AfuAfcA+YB+wD9gH7AP2AfuAfcA+YB+wD9gH7AP2AfuAfYA+YHLDxImJI/uAfcA+YB+wD9gH7AP2AfuAfcA+YB+wD9gH7AP2AfuAfcA+YB+wD4xVHxiL5IYDbBRQQAEFFFBAAQUUUEABBRRQQAEFFFBAAQUUUECBEDC5ERI+KqCAAgoooIACCiiggAIKKKCAAgoooIACCiigwFgImNwYi2aykgoooIACCiiggAIKKKCAAgoooIACCiiggAIKKBACJjdCwkcFFFBAAQUUUEABBRRQQAEFFFBAAQUUUEABBRQYCwGTG2PRTFZSAQUUUEABBRRQQAEFFFBAAQUUUEABBRRQQAEFQsDkRkj4qIACCiiggAIKKKCAAgoooIACCiiggAIKKKCAAmMhYHJjLJrJSiqggAIKKKCAAgoooIACCiiggAIKKKCAAgoooEAImNwICR8VUEABBRRQQAEFFFBAAQUUUEABBRRQQAEFFFBgLARMboxFM1lJBRRQQAEFFFBAAQUUUEABBRRQQAEFFFBAAQUUCAGTGyHhowIKKKCAAgoooIACCiiggAIKKKCAAgoooIACCoyFgMmNsWgmK6mAAgoooIACCiiggAIKKKCAAgoooIACCiiggAIhYHIjJHxUQAEFFFBAAQUUUEABBRRQQAEFFFBAAQUUUECBsRAwuTEWzWQlFVBAAQUUUEABBRRQQAEFFFBAAQUUUEABBRRQIARMboSEjwoooIACCiiggAIKKKCAAgoooIACCiiggAIKKDAWAiY3xqKZrKQCCiiggAIKKKCAAgoooIACCiiggAIKKKCAAgqEgMmNkPBRAQUUUEABBRRQQAEFFFBAAQUUUEABBRRQQAEFxkLA5MZYNJOVVEABBRRQQAEFFFBAAQUUUEABBRRQQAEFFFBAgRAwuRESPiqggAIKKKCAAgoooIACCiiggAIKKKCAAgoooMBYCJjcGItmspIKKKCAAgoooIACCiiggAIKKKCAAgoooIACCigQAiY3QsJHBRRQQAEFFFBAAQUUUEABBRRQQAEFFFBAAQUUGAsBkxtj0UxWUgEFFFBAAQUUUEABBRRQQAEFFFBAAQUUUEABBULA5EZI+KiAAgoooIACCiiggAIKKKCAAgoooIACCiiggAJjIWByYyyayUoqoIACCiiggAIKKKCAAgoooIACCiiggAIKKKBACJjcCAkfFVBAAQUUUEABBRRQQAEFFFBAAQUUUEABBRRQYCwETG6MRTNZSQUUUEABBRRQQAEFFFBAAQUUUEABBRRQQAEFFAgBkxsh4aMCCiiggAIKKKCAAgoooIACCiiggAIKKKCAAgqMhYDJjbFoJiupgAIKKKCAAgoooIACCiiggAIKKKCAAgoooIACIWByIyR8VEABBRRQQAEFFFBAAQUUUEABBRRQQAEFFFBAgbEQMLkxFs1kJRVQQAEFFFBAAQUUUEABBRRQQAEFFFBAAQUUUCAETG6EhI8KKKCAAgoooIACCiiggAIKKKCAAgoooIACCigwFgImN+bQTFdeeWW1aNGiikcXBRaawL///e/q6KOPrvvo3/72t4VWPeujgAIKKKCAAgoooIACCiiggAIKKKCAAgoMLWByY2i6qk5qTGpy46uvvqo2bNhQ7bvvvtVFF11UffbZZ3OQctfdIWByY3eoe0wFFFBAAQUUUEABBRRQQAEFFFBAAQUU2BUCJjeqqvr888+rv/zlL9Vpp51WLV68uP6lO0kLnv/oRz+qnnzyyerLL7+c0R6TPHLjww8/rFatWlVbHHLIIdVrr7024/zH5Q1GLdCeTX+084UXXli98sorFUmdSVlMbkxKS3oeCiiggAIKKKCAAgoooIACCiiQCxCr27RpU7Vs2bKxiVv961//qmON3gUmb01fKzCcwFQnNwhkP/LII9WSJUsaA98REN+4ceMM4UlObqQjNy6//PKxHrnRldyINt57772ryy67rPrPf/4zo63H8Q2TG+PYatZZAQUUUEABBRRQQAEFFFBAAQW6BEgSXHzxxRWxnHH4US6JmIcffngQgzS50dXCrlegn8BUJzcee+yxav/9968TGyQ47rjjjurVV1+tCAq/9dZb1UMPPVSdffbZ9YXy7rvvniE6ycmNGSc7xm9EcuM73/lO9cwzz9TtSxvz9+abb9btnia4brrppokYwdGV3Pjvf/9bPfjgg9Wpp55alZJ3Y9zkVl0BBRRQQAEFFFBAAQUUUEABBSZQ4NNPP63Wr19fHXjggYMfKi/k5AY/HuZOIatXrx7Ulx/ZmtyYwM7pKe0WgalNbnDbpeOOO66+sHDrqQ8++KCxAUh4cNuqfDG5kYsszNeR3Gj7sqP9uS0ZXzDf+973qu3bty/Mk5lFrbqSG+n6UvJuFodyUwUUUEABBRRQQAEFFFBAAQUUUGDeBIhhrFmzZvAjZUZsHHHEEXUcpy3eM28V6lEwscSVK1cOkhoHH3xwPcrE5EYPPDdRoKfA1CY3nn322XqybC6GBL+HWUxuDKO26/fpk9ygVmxHf+BLZtg+sevPrvmIafKidD7pepMbzY6uUUABBRRQQAEFFFBAAQUUUECB3SvAXLAkMYjZHHbYYfUtnh5//PEFndyIuOE+++xTXXrppfUPac8666y6zo7c2L39yaNPjsDUJjci4H3AAQdUL7744lAtGhcpL0hD8e2ynaKtuzL56RflJAT70+SFyY1d1t08kAIKKKCAAgoooIACCiiggAIKjFjg9ddfr++4wS3kuc02S994z4ir0ru4tWvXVldfffXg7iCfffZZZXKjN58bKtBLYGqTGzFyg4zvsIHsPLnBZEbXXntttXjx4joLy3weZ5xxRvXCCy90zuHwxRdf1BdlbpGV3jfw8MMPr66//vrBhTBtVeaL+O53v1sfi/lDSsuOHTuqCy64oN6GCyr3+ssXJtA+5ZRT6m1SC57jw4WXC3C6RCIgEgZMjPS///u/1QknnFCRkWY/6r5u3brq888/T3ed8Zw6YXT++ecPzj21436Kc7n49/2y4/ZjzMtB3UvJACpOXbds2VJPPB7tzPly3ukX7IyTrKp6jo9bbrmlWrFixWCECG1Nm2/evHmnXaLORx99dL3fTiuTF7FdtEOyqt6P/fPziXbl/dJfqSzaYMOGDTu1L2104okn1r+WoP+6KKCAAgoooIACCiiggAIKKKCAArtKoC0msqvqMJvjmNyYjZbbKtBPYGqTGwT0Y44FgrlcEEuB/zbGNLnx8ssvV8uWLSsGiwl+ExhuKp/5HWL+j1KwmfcogwnP0yByelH8xS9+UawqZTOHBGUcf/zx1UcffTRju9jmoIMOqjiPWCII3pXceP755+v7HjbV/ZxzzqnwLi0kPki6xO2g8jI479tvv71OALBumFEyfb/s4nyb5tzAnmQNdcrrGa+b5m8h+ZQmrWL7eMzPK+q8EJIbJH2a+jb1L/WPUlv7ngIKKKCAAgoooIACCiiggAIKKDAqgYidlH6kOapjjLKcNI6Xx4FGeRzLUmCaBKY2uUEjE7SNkQ8E1y+++OLqnXfe6d3+kdw49dRTq2OOOaY688wzq61bt1aMYmDExCOPPDIon+AwIy3yhWF1UYclS5ZUmzZtGiQgCKa/9NJL1erVq+tgOnUkAJ8mSQj8E2Bm5EUpgcDkRRFAb7oFV2yTlxHB/lLwOkZuMNLhwgsvrO97eP/999d1oH5vv/12ddFFFw2OTT3zhfO77rrrBufG83/+85+1X3runPe3vvWterthLv59vuxI6kQ7MGyQ46cL5/TrX/+6TsIwYmH9+vUVk9Kz4M6582WKNcmadH/aPZIDmGBDefQTRvvce++91W9+85v0cIOhlfOR3IgDpbetoq1LC+fIqBTO66STTqreeOONut7Un3UPP/xwPbIoH9lTKsv3FFBAAQUUUEABBRRQQAEFFFBAgVEJ9In3jOpYoyjH5MYoFC1DgZ0Fpjq5AQUJjpUrV9bBWwK4/CqfJAejGbqWSG6w31VXXTW451+6H7/Y33fffevy//SnP6Wr6u1JDLD/qlWr6qD3Thv8vxdpEiBPkjBfCEmLUpaa/X7605/Wt1ri9lgcJw9iE6QmGM+6fPRHn+QG+3HsV155ZUbVCfozkoFtSqNGuBUTiYJS0iYKY2THZZddVpdBOXNJbpCIeeaZZ+rbNRHY54/bk1Em9aD8n/zkJ8UkUdSV7ZpuAfb000/X5eQjYDZu3FiXzeicSIjE+TU9xhf07k5uPPXUU3X7kPgpJeea6u/7CiiggAIKKKCAAgoooIACCiigwHwKROykFBObz+MOW7bJjWHl3E+BZoGpT25Aw0REBPLT2waR5OAX/KXbOAVnJDfaAr8E+GM+izwwz2gBAuEkP5oC5nEsfu2/fPnyOkieJiioH4kDAvN58uT999+v53fg+A8++GAdpGb+DUaVxBL7UwcC/+nSN7lBUoQkSWmhTtTt0EMPreeqiG1IvFx++eX1utLIkNiOx3Rukdww3a7peXzZUY+mPxIff/jDH4oJqrSu11xzzU6jMtJjpl9Sv/vd7warwrGU4BlslD2JOu/u5EbUo+lWXVm1famAAgoooIACCiiggAIKKKCAAgrsEoGIWZjc2CXcHkSBBSlgciNpFiZN5nZDaZKDkRLPPfdcstX/PY3kBnNKkCApLQT9r7jiijqongfmf//739fv9wl6xygMgvNpgoLySS7wPqM02C4WLvKMimA9t3s64ogj6j+exxIjP5jkmmRIukRQvpR8iNtSUT6/7m9aovz8i4YRDNzKi3rnSZm8rDRpkBvm25Zex5ddU2KD5BTbNCVouHXU97///dqS7dqW6BO0eZRH0ojkEVY33XRT5wTrlB913t3JjTSxxIimviNP2oxcp4ACCiiggAIKKKCAAgoooIACCsxVIGInecxpruXO1/5zjW/NV70sV4FxFjC5UWg9khwkBGLiaILf3L4qXyKQ3RVwb9ou3s+TEvlx4nVTsoGLOYHzNEERSQ+C6tx6idEaJEXYLg3Qxy2TGEWRJkY4ZtPxWBfJja4vkKbt4v2oX5xj6XGuF//Slx0+6bwgbbebiro2JUdK76cJIVxjbhG2ZZQISY5//OMfgwRIft5R592d3MCJfkC/oe440W+5DRlzhrgooIACCiiggAIKKKCAAgoooIACu0MgYiddsamuuqVzkpZiPF2xma7yY/1c41tRjo8KKPB/AiY3/s9ixjOSAiQ2uLCddtppM+ZiiOQEj21L03ZN7zeVFcmG/KLKJOiMLEgTBXG7qXSeh9ifxA1LOhqEScXzJbZPA/WxTQT8u75AmrZrej/KTx/nevFv+7JLEw+0NRO850vUtfQF1/RebkYigMm3DzvssLo/xX5M0s2k8fkSdc7bumm7UjukX86Uly/petq6aSHBwegl+lLUm0fqxu3UWO+igAIKKKCAAgoooIACCiiggAIK7EqBiJ2UYiKzqQd3qWDO2KOOOqr4x7pR3MlirvGt2ZyT2yowLQImNzpaOgL8TNrNLZbSpW9yomm7eH+uIzfSJEXM9RC3g2Ky8Ag+xxwfzMHBXCAxJ0fTfApx7nmgHoMI+Hd9gTRtF+8ziqE0KiZ1nuvFv+vLjttOReCeCd7zW4xFXbvONa1z03OSHCQzmLg8RgYxGuLee+8dtBP7Rp0XQnIjzoV+tG3btp0mYGdEx8033zxj1E/s46MCCiiggAIKKKCAAgoooIACCigwHwIROxlFvGY+6peXOdf4Vl6erxVQoKpMbnT0gkgS8Et1LprpEskJHtuWpu1IRFBuJBvayiCwHHN3lJIhMXF3JCIoO78FVUxuHhd9RqYw2uP888+fEdCnLvOZ3NiyZUs9yTjn3zWZeoxCYdsu65Jhny+7Rx55ZDAvRj6KJeYr6VPX0vGb3mPETUw2z8gbXscSdW5KPMV21JV6RZvG+zymIzPyvpuvbxu5kZYZzz/55JOKOTg49kEHHVSROHNRQAEFFFBAAQUUUEABBRRQQAEFdpVAxE5KMZFdVYfZHMfkxmy03FaBfgImNzqcCLwTwE1v+RS7NCUtYn08Nm0XE01TNs/bFuaHWL58eV2X0gTc27dvrwiE80egmdtoMYF4Onk45cfk45QRyZWmwPZ8Jjci0YLtpZde2vrL/3Bi2/lKbjBag1EbHIOJztNEQ/rlU5qbpK3dutYxaoXRKySi0onZI/HU1jcYsUN9qHPpi3w+kxucV0y0zvGZu8VFAQUUUEABBRRQQAEFFFBAAQUU2FUCJjd2lbTHUWDhCkxtcuP++++v+NU7AeKmhQD8OeecUweP81/Ws09T0iIvr2m7NGi+atWqeoLrfF9ep/NCcPskgsr5kpZFAoNgd2mEBxd+AukE8s8+++yqdLutKHs+kxsc4/bbb69t2ybzfvfddytsCKDzN1/JDerDJNm4cZy1a9fu1De4bRTvU1dGecStvsIqHhnRsGHDhor26LNEciNvh5hHhWM2JX9IvFEfthkmucH9IknksH/czqxPnWObNLmRj3aJbXxUQAEFFFBAAQUUUEABBRRQQAEF5kPA5MZ8qFqmAuMlMLXJjQjc86v5q666qg5Yv/XWW/WtfAg433HHHYPJn0kGELDOl6akxWy241gxafmSJUuqTZs2VdyGiYWkBvMzrF69ehBYb7uFU5wTiRgC1qURHnGLJY5JQL3tllhRXtzqKj2vvvNQtG2XznVBkH79+vWDCZp27NhR365q5cqVdXLj2GOPrc9pPpMbJCxuuummgfXmzZsHp5wmupgrg+QHlsyhwX7MX4IXbZh7kWyi3DfffLPivFjYb+vWrdXpp59eH482/vjjjwfHo8wYZUP/u+GGGwY21IVky8EHH1z98Ic/rPcfJrlBXS644IJ6f+b2YDJ16sXInxjxw4gMzHkvEjbUjeTLZZddVu/LiCJGFrkooIACCiiggAIKKKCAAgoooIACu0rA5MaukvY4CixcgalPbpAEaPs78MADq3vuuacO+ubNOIrkBmU+99xz1bJly1rrQdCcizaB5aYlnR+kaa6GNKDNeRNAb1rmO7nBcd94443qqKOOajx3RhaQACJhQH3nM7lBfd57773BSJE84UAyJubIaOozJCLWrVu306iP6CdN+3D+OOQLo1ZOOOGERps1a9ZUDz/8cL1+mOQGx6NPxeiPqF9aVvSBWJc/su2TTz6ZV93XCiiggAIKKKCAAgoooIACCiigwLwKmNyYV14LV2AsBKY2ucEv1LkN0S9/+cuKUQEkMSJwu3jx4nrOij/+8Y87/Zo+b9EIWncF3Pts9+mnn9ajQ0488cRBsJkRAgS3GTXC+q4lnceiaZJwyojJxwnE80XQtERgOx+JwPZtIzLS8vpsx7nddttt1YoVK+pbZlEvnnN81qW33OqyTo8dz2f7ZcctlqgD/eGuu+7aKaHEaBpGz5x66qmDdmLbI488srr++usr5j7JFxIXrGObKJeEAm3d1bacP8mSww8/vK4P+9Nf//znP9cJlLZz65pzg3qSLGOuD8qkbPrcmWeeOZhzhAQLx2cEDesw4ZHXt9xySz3SKT9fXyuggAIKKKCAAgoooIACCiiggALzLdAWE5nvYw9T/lzjW8Mc030UmHSBqU1uTHrDTtL5pUkbEh4uCiiggAIKKKCAAgoooIACCiiggAIKKKCAAtMtYHJjutt/LM6euSpiXpK2OUfG4mSspAIKKKCAAgoooIACCiiggAIKKKCAAgoooMCcBUxuzJnQAuZTgNsm3XrrrfXtkJrmEZnP41u2AgoooIACCiiggAIKKKCAAgoooIACCiigwMITMLmx8NrEGiUCTFbNpNXM9XDNNdfsNFF3splPFVBAAQUUUEABBRRQQAEFFFBAAQUUUEABBaZIwOTGFDX2QjvV119/vTr77LPrCc7feuuteuJw6rhjx46KW1Fde+21g0msV61aVTG5tYsCCiiggAIKKKCAAgoooIACCiiggAIKKKCAAiY37AO7TeC1114bjMpgZEbT33HHHVdt3759t9XTAyuggAIKKKCAAgoooIACCiiggAIKKKCAAgosLAGT6MSeAgAAIABJREFUGwurPaaqNl988UW1efPm6qqrrqqOPvrowSgNkhxLly6tzj///IrbUn355ZdT5eLJKqCAAgoooIACCiiggAIKKKCAAgoooIACCrQLmNxo93GtAgoooIACCiiggAIKKKCAAgoooIACCiiggAIKLDABkxsLrEGsjgIKKKCAAgoooIACCiiggAIKKKCAAgoooIACCrQLmNxo93GtAgoooIACCiiggAIKKKCAAgoooIACCiiggAIKLDABkxsLrEGsjgIKKKCAAgoooIACCiiggAIKKKCAAgoooIACCrQLmNxo93GtAgoooIACCiiggAIKKKCAAgoooIACCiiggAIKLDABkxsLrEGsjgIKKKCAAgoooIACCiiggAIKKKCAAgoooIACCrQLmNxo93GtAgoooIACCiiggAIKKKCAAgoooIACCiiggAIKLDABkxsLrEGsjgIKKKCAAgoooIACCiiggAIKKKCAAgoooIACCrQLmNxo93GtAgoooIACCiiggAIKKKCAAgoooIACCiiggAIKLDABkxsLrEGsjgIKKKCAAgoooIACCiiggAIKKKCAAgoooIACCrQLmNxo93GtAgoooIACCiiggAIKKKCAAgoooIACCiiggAIKLDABkxsLrEGsjgIKKKCAAgoooIACCiiggAIKKKCAAgoooIACCrQLmNxo93GtAgoooIACCiiggAIKKKCAAgoooIACCiiggAIKLDABkxsLrEGsjgIKKKCAAgoooIACCiiggAIKKKCAAgoooIACCrQLmNxo93GtAgoooIACCiiggAIKKKCAAgoooIACCiiggAIKLDABkxsLrEGsjgIKKKCAAgoooIACCiiggAIKKKCAAgoooIACCrQLmNxo93GtAgoooIACCiiggAIKKKCAAgoooIACCiiggAIKLDABkxsLrEGsjgIKKKCAAgoooIACCiiggAIKKKCAAgoooIACCrQLjEVy44knnqj808A+YB+wD9gH7AP2AfuAfcA+YB+wD9gH7AP2AfuAfcA+YB+wD9gH7AP2AfqAyQ0TJyaO7AP2AfuAfcA+YB+wD9gH7AP2AfuAfcA+YB+wD9gH7AP2AfuAfcA+MFZ9YCySG+2DT1yrgAIKKKCAAgoooIACCiiggAIKKKCAAgoooIAC0yRgcmOaWttzVUABBRRQQAEFFFBAAQUUUEABBRRQQAEFFFBgAgRMbkxAI3oKCiiggAIKKKCAAgoooIACCiiggAIKKKCAAgpMk4DJjWlqbc9VAQUUUEABBRRQQAEFFFBAAQUUUEABBRRQQIEJEDC5MQGN6CkooIACCiiggAIKKKCAAgoooIACCiiggAIKKDBNAiY3pqm1PVcFFFBAAQUUUEABBRRQQAEFFFBAAQUUUEABBSZAwOTGBDSip6CAAgoooIACCiiggAIKKKCAAgoooIACCiigwDQJmNyYptb2XBVQQAEFFFBAAQUUUEABBRRQQAEFFFBAAQUUmAABkxsT0IieggIKKKCAAgoooIACCiiggAIKKKCAAgoooIAC0yRgcmOaWttzVUABBRRQQAEFFFBAAQUUUEABBRRQQAEFFFBgAgRMbkxAI3oKCiiggAIKKKCAAgoooIACCiiggAIKKKCAAgpMk4DJjWlqbc9VAQUUUEABBRRQQAEFFFBAAQUUUEABBRRQQIEJEDC5MQGN6CkooIACCiiggAIKKKCAAgoooIACCiiggAIKKDBNAiY3pqm1PVcFFFBAAQUUUEABBRRQQAEFFFBAAQUUUEABBSZAwOTGBDSip6CAAgoooIACCiiggAIKKKCAAgoooIACCiigwDQJmNyYptb2XBVQQAEFFFBAAQUUUEABBRRQQAEFFFBAAQUUmAABkxsT0IieggIKKKCAAgoooIACCiiggAIKKKCAAgoooIAC0yRgcmOaWttzVUABBRRQQAEFFFBAAQUUUEABBRRQQAEFFFBgAgRMbkxAI3oKCiiggAIKKKCAAgoooIACCiiggAIKKKCAAgpMk4DJjWlqbc9VAQUUUEABBRRQQAEFFFBAAQUUUEABBRRQQIEJEDC5MQGN6CkooIACCiiggAIKKKCAAgoooIACCiiggAIKKDBNAiY3pqm1PVcFFFBAAQUUUEABBRRQQAEFFFBAAQUUUEABBSZAwOTGBDSip6CAAgoooIACCiiggAIKKKCAAgoooIACCiigwDQJmNyYptb2XBVQQAEFFFBAAQUUUEABBRRQQAEFFFBAAQUUmAABkxsT0IieggIKKKCAAgoooIACCiiggAIKKKCAAgoooIAC0yRgcmOaWttzVUABBRRQQAEFFFBAAQUUUEABBRRQQAEFFFBgAgRMbkxAI3oKCiiggAIKKKCAAgoooIACCiiggAIKKKCAAgpMk4DJjWlqbc9VAQUUUEABBRRQQAEFFFBAAQUUUEABBRRQQIEJEDC5MQGN6CkooIACCiiggAIKKKCAAgoooIACCiiggAIKKDBNAiY3pqm1PVcFFFBAAQUUUEABBRRQQAEFFFBAAQUUUEABBSZAwOTGBDSip/D/C3z22WfVWWedVS1atKi68sor543ltddeqw455JD6OH/729/m7TgWrIACCiiggAIKKKCAAgoooIACCiiggAIKKFAWMLlRdhnbd1999dVq2bJl1ZFHHllt2bJlbM9jmIqb3BhGzX0UGE+Bf//739WvfvWrasmSJdWee+5Zfe1rX6v/eM57rGMbFwUUUEABBRRQQAEFFFBAAQUUUECByRSY6uTG3XffXf/6nl/6l/6WLl1aXX311dX27dvHpvWvv/76wblwftO0mNyYptb2XKdZ4Nxzz62+8Y1v1MmMPfbYozr00EMr3uOP57xHsoNtzjvvvGmm8twVUEABBRRQQAEFFFBAgYkV+PLLL6tNmzbVP/LlLhsuCigwfQImNxoSG2myY5999qnWrVtXffHFFwu+h8TIjZUrV1Zbt25d8PUdZQVNboxS07IUWHgCjMTYb7/96sTFt7/97eqBBx5orCTr2IYkB/s4iqORyhUKKKCAAgoooIACCiigwNgJ/Otf/6ouvvjiau+9965vHW5yY+ya0AorMBIBkxuLFg1u4UTwK/5IEvziF7+oDjzwwHokBBfL++67byToaSHvv/9+nTg56aSTqtdffz1d5fNZCpjcmCWYm1f//e9/qwcffLA69dRTq40bNyoyR4H5vJ5xbf7mN79ZJytuuumm3jVlWxIc7GuCozebGyqggAIKKKCAAgoooIACC1Lg008/rdavXz+I1/HjZOZFNbmxIJvLSikw7wImNxYtqo4++ujGoNebb75Zr+diefzxx1cfffTRSBuFCam9EI+G1OTGaBynqRSC3Xz++QxO223c5qOd5/N6FqMwnnrqqVlXnX1IcDAXh4sCCiiggAIKKKCAAgoooMD4CfD/9zVr1lT777//4EfIRxxxhDG18WtKa6zASAVMbnQkN9COuTnmIxM8n8HAkfaUMSjM5MYYNNICq6LJjdE2yHxdz2L0xc9+9rOhK8y+JDhmM+pj6IO5owIKKKCAAgoooIACCiigwEgFGJlBXI4fJx522GHVww8/XD3++OMmN0aqbGEKjJ+AyY0eyY0I2HEB5fkolyh7PhIno6znOJRlcmMcWmlh1dHkxmjbY76uZ0wQzsiNtoVb+/HXtlDGnnvu2baJ6xRQQAEFFFBAAQUUUEABBRagALdyP+2006qHHnqovsU0VZyv/4MuwNO3Sgoo0CBgcqNHcuOxxx7rzAR//vnn1b333ludcMIJFROQkwhZvHhxdfXVV1fbt2/fiT8NwrNd6e+ss86q2C6WK6+8st6Ox6+++qp67rnn6mMxF8jSpUurLVu21JtGJrsrWfLOO+9UN954Y3X44YfX5VLOihUr6lEq3L8wFo7F3CPUkfXcU79twYBtv//971ccI1/6Hjffj9fU5ZVXXqkuvPDCwb0VGY54xhlnVC+88EJFvXHj+DgNuzAPA1+WeVtee+21FRNWhTHHaUt2MQE963/0ox8N6ss+mF9//fUz+kVTfT/++ONqw4YNO9WHPsak8bxPfWOJUUZ5/4n18RjblW7JFuuiDM6Zc6c/U//vfve79TwxaT/h+bp16wb9ifrxjw7ahXZrW3DiM8a8FzG8lLluaGfau2n/9DNB+Xk9o2+89NJLMw4f58j5lP66Pj8zCvx/b1DXbdu21e0bny3K53zoB5s3by7uOpe+Ev+YK7VlerDYrnRuaZKH7TgP2o7PVrQJ7U8/+OCDD9Ji6+tUfO5KlrwXfWmnHXu+uPPOO+sRFzy2LX2SG33LajuO6xRQQAEFFFBAAQUUUEABBRaGQNv/cxdGDa2FAgrMt4DJjY7kBkHHa665pg6ANs258cYbb9SB5qbAHsFBJi2OIO1ckxsEgiPgyDHTYGUE3tP30k5EHUhAxETppTofc8wxOwXeX3zxxeqAAw6oSIAw7K9pSc+LhEicL9sPc9z0OCSPSBRRh1KdCabffvvtdQCZ9cMmN0hEHXfcccVjUO6yZctqP3x5zRdpaekqh32p8x133FHRx0oLZiRZ2toqD2hH0L4rmBzb5ftTj1hHGSTROGfqm/+RjCAo/u6771arVq2asZ7taS/KS/tCeq4kJE4//fTivrE/7VoySpMbzz77bJ10yevIaz4rfGbSJc6xtD3vNX1+0jLy5119lHJL/XKufSX+MVdqy7SOsV3p3NLkBlaYN33WaGvaPJb0c9/k2dUfo6zSI+f19a9/vbRqqPcoizJdFFBAAQUUUEABBRRQQAEFxlug7f+5431m1l4BBfoKmNxoSW4QkH3kkUfq4CiBPn4lny8EJmMCI345zK/ECcR++eWX1datW6sLLrigDtwSUORX6PnS90IcgVwCwQQXb7jhhopf9OdLV3Lj/vvvr4PqnM91111Xj67gPHfs2FEHgI866qi6vvzK/D//+U9dPI/8Cp/A5eWXX14MNLPhyy+/XB100EHVvvvuWxFsTpdhjhv740ldOX7U+5///GdtzDqGJq5evbpe961vfaverhREjvKaHtMgPe1FnWMCeQK4f/nLX+oJiTlGBH5pv3yhPoxuoL5MYLxp06ZBOdSXPkJ943xKwX/ahP5GAoTtGEXyxBNP1O3E8agPv6wn8fbhhx8OqhBB+65gcmxXCojHOpJc9AfmKnjvvffqY3As+l6cP0msc845p04G4MP58ff8889X7E/dSY68+eabgzrGE8o6+eST6204DkF1+iHnzggf2pzj0J/4HOZLfCZIsnAsPmt85vjsUQ6JIdqROjSNJEqD+pz3sAufkZ/85Cf1sagzn5OoC+fDuZLgvPXWW3c6xCj6SlxDSm2ZHiy260pu/PSnP60OPvjgav369YO+lbd703Wg7RhpXWbzfK+99qoOPfTQzl36jNygEMr65je/2VmeGyiggAIKKKCAAgoooIACCixsgfn4P+jCPmNrp4ACuYDJjUWLqiOPPLK+rROBTv74NTkXSIKVBJcJVq5du3ZGUJ/bAXHrHIKnBHgjGZAiE4SOBEcpINj3QhyBXALrP//5z2fUJY7ZltwgwEygmfMhkEvQNV+4vVVsk47S6LrdFOXwa28sSISkFnM5LuVyKx9+fd9Wb9riqquuqo9PHWab3MCCiYbZl8TEq6++mtPUr99+++1B0J5tab90SfsESSi2Ly0kACJhUwr+p0HvNWvWVIwK6LNEYmIUyQ3O79JLL53R16g777Oev9LICOpK8oVkF9v86U9/2qn6qXc+EiA2JEkRt0TL+xTbxGeC8hnVQ73yhaQIyZFSHdh2VMkNElH0TyzSUVp5fdLXo+orcQ0ZVXKjKZmEL85Yfu9739tpdFecV9SllECJbWb7yCTg5557buduzKfRNS8HhVAWZboooIACCiiggAIKKKCAAgqMt8B8/B90vEWsvQLTJzDVEZ4IBBOsa/o77LDD6lsxEWjNlxip0BXI42JL4JMRHow4SJe+F+II5BJ4L/0KPspsS25E8qEt8E3QOQKY/II7AsYcM0Yj8Av9fGGEA7ftwpFESLrM5bgcn6QQ5bbVm+OldZxtcoORAvy6n+N0/YI/Ej1sS/ulS/QJAsT5rZDS7XhO4mP58uUzjkkbRFCfERv8ar7vEn26yyq2KwXEYx2JCc6ntESfxqCUtGMfElynnHJKfX6MMEmX8O5yiv7MbdG4PVq69PlMpP0yrwNljSK5QfvErcxIkNF+fZZR9BWOE9eQUlum9YjtSter1OH888/faR6XtAxGZNFmXM+eeuqpdFX9vO0YMzbu+YbJjZ5QbqaAAgoooIACCiiggAIKTJnAfPwfdMoIPV0Fxl7A5EZLYoNb3RBcbVp+//vf9wq6R4D2O9/5zowRAX0vxBHI5XZR6UTOed3iWHkAk33Yt0/wPoLb6bHSJAMjUbjtT7o888wzddAzv/3PXI9L4Dhub5T/+j89Ps/Te//PNrlBoJaAbdMv0tNjhXEpuRF9oml+lrQcTEkgUU5qmgbkaYvZLNF2o0hutJ1DalBKdlHn9Pzy9iDxw3l3TVKfBt3zZFF8Jhg1xSiI0tJWB7ZPy5+tdRwvAv75Zy7WNz2Ooq9QdlxDRpXc2LhxY1OV6+Rs3IaP4+ZL1GW2Fnk56WuTG6mGzxVQQAEFFFBAAQUUUEABBUJgPv4PGmX7qIAC4yFgciObc4MRGkwQzv3bCb623aIogqts1/cvDwj2vRDHsa644orWX4ZH0DkPLqZB3L51zYOl3KaKBEA+eiQdaZBPJD7X48b58GvxfB6P/CM2l+RGJAXaAvpxvKgTjnl7Rjulo15iv9JjHDdNRkT5fc45L7NUXr4Nr2O7vI3TdWmd8jKijiWDdNvw4DFd4vh9+yLbsU+6NJWdbsPztu3S/pmXn5fT9DrOpU/fScuIes2lr1BeXENKbZkeL7bLrw1skzrkfToto2u7tmOk5czmed85N/reloo5NyjTRQEFFFBAAQUUUEABBRRQYLwF5uP/oOMtYu0VmD4BkxtZciO6ALfU4RfhBFW55QzzcORLBCdnE6DNA4d9L8RxLB7blgg65wHMNCjZt755sDS9/U5666n0FkN5AmKux206n5LBKJIbbQH9OGbUCce8Pfu2U5QVgfHUOsrP2zD2aXuM8rrOI7ZLjxvlxrq2MqKOJYMoh8cmjzhG377IduyTLk1lp9u01YF1af/My8/LaXod59LmVdq3b/1j3zhO3mZxDcnfj/3iMbYr9avUIe/TsT+PXdu1HSMtZzbPOa9vfOMbnbv0TW58/etfryjTRQEFFFBAAQUUUEABBRRQYLwF5uP/oOMtYu0VmD4BkxsNyQ26Qjqpc+le+rMNTpa6V98Lcd9jRdA5D2B2BSVLdSu997vf/a5O+KT35Y8RHaVJn+d63Dif0i298vqNIrmR3oorLz9eR51Kgf1op7n8Gj/K73POUad4jAB4V6A9tisFxGNdWxlRx5JB1IXH8OAxXfocI92+9Lyp7Hzbtu3S/kmdhlniXPr0nbT8qNdc+grlxTWk1Jbp8WK7/NrANqkD2zUtXdu1HaOpzK7377zzznoCcB7blj7Jjb5ltR3HdQoooIACCiiggAIKKKCAAgtDYD7+D7owzsxaKKBAXwGTGy3JDW63dNddd9XBfCZXfuGFF3ZyjUD/bIOaaSF9L8QRCOWxbYmgcx7ATCd35l7/wy4xCXKUn85pkI7miPLnetzt27fX82AQRG+a2yGOlc5V0eUU+8Qj83lwjNKk77FNPMYcC6XAfvQJJtLm3NsW+he3GaOcNMDNpPMxr0HXOeflR6C96xZJUc9SQDzKmM/kBufFeTNHS2lUVH5epdd9PxNt26XB+mGTG3EuffpOeh7RBnPpK5QX15Cu+WKinvHZTeuSOlBe09K1XdSldIymMvu8v8cee1T77bdf66bcSpC/toUECGW5KKCAAgoooIACCiiggAIKjL/AfP0fdPxlPAMFpkfA5EZLcoNuwK2YTjjhhDoQSxIjDVhzEWUOChIfBP2HWfpeiNsCtOlxm5IbBNKvvvrq+jxKIyzSMtqeM3EzozYITN9+++3Vm2++Wc/BkU8kHmXM9bhpcuTSSy+tJ6mOsvPHmNScus02ufHiiy9WBxxwQN2ebQkFzod5RTgGf7RfukQdmC+D523L22+/XS1fvrwuJ50sPTVOR8i0lRXrIkmTz4sS63nElD5A/XdXciP6KZ8fRv4Ms/T9TLRtlwbrh01uxGcAz1KCr+ncRtFXKDuSbW19jiTk5ZdfXrd5KfGQOuR9Oq1/13Z9r2dpmX2eM3KOicV/9rOf9dm8uA37UgZluSiggAIKKKCAAgoooIACCoy/wHz9H3T8ZTwDBaZHwORGQ4A37QKPPPJIReCQQOyGDRsGq9I5KH784x9Xn3zyyWBd+oSAOBfc5557Ln27fv7UU0/V5RJYJ8DetLQFaNN9ImhcCmBGMJXzYEQKk6eXFoLrGzdurBM7pfUEcAnk8sv+P/zhD/XzfCLxdL+5HpckCsfbf//9q8ceeywtevD83XffrVatWlVvx7azTW6kAX/KobzSwvGpB8fgLw8Ep7fGohwSGKWFYPN1111Xl1Ga0yVu9dXVVnnZMbKGut16660zJp+nLxLEp1y22V3JjTSB0+bE+b366qvFUTt9PxNt2/EZPuaYY2oLRlIMs6SJA5JKfROdo+orMecN7dmUAEz7bena0JW0CJeu7fpez6K82Twy6oLkBMeY7RK3o6IMFwUUUEABBRRQQAEFFFBAgckQMLkxGe3oWSgwFwGTGw0B3hSVQOyFF15YB0CXLVtWj1aI9WnQcOXKlXXwnaAly44dO+pbWZ133nl1MDkPhLNNetslApMff/xxxfEI4PEYS1uANrbhsS25kQbUCW5fdNFF1ZYtWwajIbit04MPPlgHvEtB7zhOBFO5DQ63PyLxk08kHtvyONfjctsiEgAEb0ksrF+/fpB4wZg2wJ4g+bHHHltvN9vkBvWkfSJxcdRRR9XlUj4LQXCOe+CBB1Znn312xXwY1KfUpgTjCXKzfsmSJdWmTZsqbFmweOmll6rVq1cPzof650uXGX2MpNE111wzsKCMNGnAuZDEitFGnMO6devqczjxxBPr45faeVfcloq6djnRN9esWVPts88+MyYTZ/++n4m27WjfCy64YGDBPDsk/UhQcHuwvkuaXKOP0Ffef//9OrlEQonnjKoh4ZQuXQZ9+ko6mojP9Q033DDoE7Q9yciDDz64+uEPf1if53wmN/pez1KDvs9JrOy1116zHn0RIzbYlzJcFFBAAQUUUEABBRRQQAEFJkPA5MZktKNnocBcBExu9EhuABxJg/zX0QQWCR5GUJz1pT+C5Vu3bp3RVgSx165dO2OffL6DtgBtWmjUsxTAZDuCnZdccsmM4+V1JtESSZq0fJ5T57jFDfv1uc3VXI/7xhtvVBjm9YzX/PqeQDFuvDdMcqNPWxJsf/755yt8OU4puYERo3RIhEX9So8kPtif45aWzz//vL6VWIyyKJVRSk7g0HRsymIkzB133FHXrbT/rkpucM5PPvnkwLJ0fryHNYmcfOn7mejajjbIP79Nn5+8DulrAvuRhGs6l1K/HEVfIbkSt88rHZt+y2ig8OQ6kS5dIzJi267t+l7PorzZPnL8GMHBHBwPPPBAYxGsYxtGe7CPiY1GKlcooIACCiiggAIKKKCAAmMpYHJjLJvNSiswUgGTGz2TGwSg+dU1wUFGKnCrqnRhNMONN95YHX744YOANr/gJvD/17/+dadRGOl+POfX9vzSO37tz36//e1v65EfsW1XgDa260pusB2/TCegynwOHCuCoUuXLq0uu+yy6pVXXmkMuMdx4lZT7Nt3noG5HvfTTz+tbrvttmrFihX1SBgC9TwnGM+69DY/pSBy1L3rcdu2bbXD4sWLaxsC32eccUYdiOccwphzb0pucAzqxG3MGCURwXNGIRCE5n3Wdy30O9qDdon6cNxoK37ZT53yhdEu11577WAfjktffPrpp+u2jQTG7k5uUG9GK6XtyvnhhVubU9/PRNd2GDNSilE/9CmszjzzzIrP9GwXPst83k899dSd2pyRRbfcckv13nvvFYscRV+hDEbmxDWIc+Gc/vznP9cJybZ/9HUlLaLSfbbrcz2L8oZ9PPfcc6uvf/3rdeJizz33rEdIMUKOP5KGvEdSg23Y1kUBBRRQQAEFFFBAAQUUUGDyBNr+nzt5Z+sZKaBASWCqkxslEN9TQAEFFFj4AiRamBz80EMPrfbYY486mUFCg+e8xzpHayz8drSGCiiggAIKKKCAAgoooIACCiigwLACJjeGlXM/BRRQQAEFFFBAAQUUUEABBRRQQAEFFFBAAQUU2C0CJjd2C7sHVUABBRRQQAEFFFBAAQUUUEABBRRQQAEFFFBAgWEFTG4MK+d+CiiggAIKKKCAAgoooIACCiiggAIKKKCAAgoosFsETG7sFnYPqoACCiiggAIKKKCAAgoooIACCiiggAIKKKCAAsMKmNwYVs79FFBAAQUUUEABBRRQQAEFFFBAAQUUUEABBRRQYLcImNzYLeweVAEFFFBAAQUUUEABBRRQQAEFFFBAAQUUUEABBYYVMLkxrJz7KaCAAgoooIACCiiggAIKKKCAAgoooIACCiigwG4RMLmxW9g9qAIKKKCAAgoooIACCiiggAIKKKCAAgoooIACCgwrYHJjWDn3U0ABBRRQQAEFFFBAAQUUUEABBRRQQAEFFFBAgd0iYHJjt7B7UAUUUEABBRRQQAEFFFBAAQUUUEABBRRQQAEFFBhWwOTGsHLup4ACCiiggAIKKKCAAgoooIACCiiggAIKKKCAArtFwOTGbmH3oAoooIACCiiggAIKKKCAAgoooIACCiiggAIKKDCsgMmNYeXcTwEFFFBAAQUUUEABBRRQQAEFFFBAAQUUUEABBXauA3qMAAAgAElEQVSLgMmN3cLuQRVQQAEFFFBAAQUUUEABBRRQQAEFFFBAAQUUUGBYAZMbw8q5nwIKKKCAAgoooIACCiiggAIKKKCAAgoooIACCuwWAZMbu4XdgyqggAIKKKCAAgoooIACCiiggAIKKKCAAgoooMCwAiY3hpVzPwUUUEABBRRQQAEFFFBAAQUUUEABBRRQQAEFFNgtAiY3dgu7B1VAAQUUUEABBRRQQAEFFFBAAQUUUEABBRRQQIFhBUxuDCvnfgoooIACCiiggAIKKKCAAgoooIACCiiggAIKKLBbBExu7BZ2D6qAAgoooIACCiiggAIKKKCAAgoooIACCiiggALDCpjcGFbO/RRQQAEFFFBAAQUUUEABBRRQQAEFFFBAAQUUUGC3CJjc2C3sHlQBBRRQQAEFFFBAAQUUUEABBRRQQAEFFFBAAQWGFTC5Mayc+ymggAIKKKCAAgoooIACCiiggAIKKKCAAgoooMBuETC5sVvYPagCCiiggAIKKKCAAgoooIACCiiggAIKKKCAAgoMKzAWyY0nnnii8k8D+4B9wD5gH7AP2AfsA/YB+4B9wD5gH7AP2AfsA/YB+4B9wD5gH7AP2AfoAyY3TJyYOLIP2AfsA/YB+4B9wD5gH7AP2AfsA/YB+4B9wD5gH7AP2AfsA/YB+8BY9YGxSG4MOyzF/RRQQAEFFFBAAQUUUEABBRRQQAEFFFBAAQUUUGDyBExuTF6bekYKKKCAAgoooIACCiiggAIKKKCAAgoooIACCky0gMmNiW5eT04BBRRQQAEFFFBAAQUUUEABBRRQQAEFFFBAgckTMLkxeW3qGSmggAIKKKCAAgoooIACCiiggAIKKKCAAgooMNECJjcmunk9OQUUUEABBRRQQAEFFFBAAQUUUEABBRRQQAEFJk/A5MbktalnpIACCiiggAIKKKCAAgoooIACCiiggAIKKKDARAuY3Jjo5vXkFFBAAQUUUEABBRRQQAEFFFBAAQUUUEABBRSYPAGTG5PXpp6RAgoooIACCiiggAIKKKCAAgoooIACCiiggAITLWByY6Kb15NTQAEFFFBAAQUUUEABBRRQQAEFFFBAAQUUUGDyBExuTF6bekYKKKCAAgoooIACCiiggAIKKKCAAgoooIACCky0gMmNiW5eT04BBRRQQAEFFFBAAQUUUEABBRRQQAEFFFBAgckTMLkxeW3qGSmggAIKKKCAAgoooIACCiiggAIKKKCAAgooMNECJjcmunk9OQUUUEABBRRQQAEFFFBAAQUUUEABBRRQQAEFJk/A5MbktalnpIACCiiggAIKKKCAAgoooIACCiiggAIKKKDARAuY3Jjo5vXkFFBAAQUUUEABBRRQQAEFFFBAAQUUUEABBRSYPAGTG5PXpp6RAgoooIACCiiggAIKKKCAAgoooIACCiiggAITLWByY6Kb15NTQAEFFFBAAQUUUEABBRRQQAEFFFBAAQUUUGDyBExuTF6bekYKKKCAAgoooIACCiiggAIKKKCAAgoooIACCky0gMmNiW5eT04BBRRQQAEFFFBAAQUUUEABBRRQQAEFFFBAgckTMLkxeW3qGSmggAIKKKCAAgoooIACCiiggAIKKKCAAgooMNECJjcmunk9OQUUUEABBRRQQAEFFFBAAQUUUEABBRRQQAEFJk/A5MbktalnpIACCiiggAIKKKCAAgoooIACCiiggAIKKKDARAuY3Jjo5vXkFFBAAQUUUEABBRRQQAEFFFBAAQUUUEABBRSYPAGTG5PXpp6RAgoooIACCiiggAIKKKCAAgoooIACCiiggAITLWByY6Kb15NTQAEFFFBAAQUUUEABBRRQQAEFFFBAAQUUUGDyBExuTF6bekYKKKCAAgoooIACCiiggAIKKKCAAgoooIACCky0gMmNiW5eT04BBRRQQAEFFFBAAQUUUEABBRRQQAEFFFBAgckTMLkxeW3qGSmggAIKKKCAAgoooIACCiiggAIKKKCAAgooMNECJjcmunk9OQUUUEABBRRQQAEFFFBAAQUUUEABBRRQQAEFJk/A5MbktalnpIACCiiggAIKKKCAAgoooIACCiiggAIKKKDARAuY3Jjo5p2uk/vss8+qs846q1q0aFF15ZVXztvJv/baa9UhhxxSH+dvf/vbvB3HghVQQAEFFFBAAQUUUEABBRRQQAEFJl8gYk3Em3juooAC/QRMbvRzGputXn311WrZsmXVkUceWW3ZsmVs6j2KiprcGIWiZewKgS+++KJau3Ztte+++1Y33XRTxetJWe68887qBz/4QfXNb36z+trXvjb44zXv33XXXZNyqp6HAgoooIACCiiggAIKKKCAAiMRMLkxEkYLmUKBqU5u3H333fWv7/mlf+lv6dKl1dVXX11t3759bLrG9ddfPzgXzm+aFpMb09Ta432uW7durb773e/Wn9Wjjz66+ve//z3eJ1RVFUmNPffcc5DM+Pa3v12ddNJJ1bnnnls/8jqSHWzH9i4KKKCAAgoooIACCiiggAIK9BX48ssvq+eee646//zzqwMPPLD+P/X+++9fnXHGGdULL7xQffXVV72KKpVDXJA44HXXXVd9+OGHjeV8+umn1W233VatWLGi2nvvves/nvMe64ZdTG4MK+d+0y5gcqMhsZEmO/bZZ59q3bp1Y/Hr6hi5sXLlyooA6jQtJjemqbXH+1zTkRu/+93vxuLa0iZOgobExR577FGPRGlK1vA+I1XYju0ZyeGigAIKKKCAAgoooIACCiigQJfAf/7zn+qSSy4Z/KA3jdvxnEQDd0joujPCBx98UJ1zzjmN5bTdForECndLyY8dr1n38ssvd51Kcb3JjSKLbyrQKWByY9GiwS2cCLzFH0mCX/ziF4NMMBfJ++67rxN0thu8//77deKEXzi//vrrs93d7RMBkxsJhk97Cfz3v/+tHnzwwerUU0+tNm7c2GsfN9pZYK+99qoTFVzDmpIaO+9R1duxPQmOJUuW5Kt9rYACCiiggAIKKKCAAgoooMBAgP+7X3jhhXVSgREb69evr0dXMFLjnXfeqUdbxCgK7mLSNILj3XffrU444YS6HP4vyrbE5dh+x44ddWKCWGDpNu9vvvnmILFx1FFHVc8880ydSCGZ8vjjj1e8R5Jj+fLl1dtvvz2oe98nCyG5wY+kuSPMaaed1vv/933Pz+0UmC8BkxuLFlVtt4Xh4sV6LlDHH3989dFHH420LZiQmrLbMsMjPeAEF2ZyY4Ibd55OjWB8fL6n7TZuoyCNERuMxhhmYT8SHCQ6XBRQQAEFFFBAAQUUUEABBRQoCTz88MP1yAxuQfXYY4/N2ITkBP+nJ8HB6AlieflCEuLSSy+tY3CrVq2adQKCpAfxO24xzQ+i8+WVV16pY3tsc/vtt+erO18vhOQGhtS/LU7aeSJuoMAuFjC50eNDGx/u+UhAmNwYXY83uTE6y2kpyeTG8C3NnBmjSEzECA7n4Bi+LdxTAQUUUEABBRRQQAEFFJhUAUZUXHDBBXXQ/fLLL2+87dTHH39crV69ut6u9ONFkiL77rtvY3KizS+NNzE3b2lkCO9dccUV9fHPOuusin1ms5jcmI2W2yrwfwImN3okNyIBQfaS56Ncouz5SJyMsp7jUFb6ZXPllVfOW5XjC2c++sO8VdqCiwImN4osvd5k3gz+2pannnqq2m+//SoemxbagHKYZNxFAQUUUEABBRRQQAEFFFBAgVTgX//6V/X973+/Thr85S9/SVfNeM6clsRqSIaQFImF21oxCTnrbr311mJyIrYtPabxplLiJPaJH0eb3AgRHxWYfwGTGz2SG2R3uQC2JSA+//zz6t57763v3ccE5Gy/ePHiiozu9u3bd2rJ9KLIdqW//EJIsJ7teCQbzCRG3CeQIXdLly4d3A8wAu9tdaUy3JPwxhtvrA4//PC6XMpZsWJFPYzv008/HdSXY8XQO9ZzL8K2BQPqyRcPx8iXvsfN9+M1dWGYH/dZ5B6LHIchiWeccUb1wgsvVNQbt3AqldHnPb70HnrooRltee2111Z8qYYxx2lLdjHkkfU/+tGPBvVlH8y5h2HeL5rqxq8PNmzYsFN96GNMGs/71DeWvl+ksV1pqGGsiz7IOXPu9GfqzxDMdevW1d5xXOx5L/oT9eMejbQL7da24MRnjHkvaE+OQfvSzrR30/7pZ4Ly83pG33jppZdmHD7OkWOV/ro+PzMKrKraI28n6nDiiSdWDKHlPNMlr3+si/dL9crfYxK0tP2jjLl8zqKMtscYtdF1OyqSGt/+9rdbkxscJ25P5eiNNnXXKaCAAgoooIACCiiggALTJ9A3BoNMxO/yWAe3qSKWMcz/9Sk3HT3SNHKD//P/9Kc/rWMMeXKlT6vFeUYdiYUQUyHmlcdKtm3btlORafKGWAyTr7ctaeyOuAteebwhfU2corQMG3v48ssvqyeffLJOOEV8j7jkkUceWf3mN7+pPvnkk9LhfE+BooDJjY7kBhena665pv6QN8258cYbb9SB5vSDnz7nIsSkxRGknWtyg4t1XNg4Tlz4aOH8Ypi3OnXgIhYXj7Se8fyYY47ZKfD+4osvVgcccECdSCFI27Sk50VCJM6X7Yc5bnockkd8gXCxi3qmjwTTuachiQTeb7rwpmWWnpNwOO6444rHoFzu3Ygf5rxuSm50lcO+1PmOO+6YEfSOemFGkqWtrfIv7AjaR2IiysofY7t8f7aLdZRBEo1zpr75H8kIfnXPhFzcrzJfz2vai/LSvpDWhYTE6aefXtw39qdd88QAZUQSgMdnn322/odKqQ58VvjMpEucY2l73ks/U+l+Tc+532aTE+WV2iOtf1puvN9Ut3if88r731w/Z2k92p7Tb7glFe0/ioVyKI9yXRRQQAEFFFBAAQUUUEABBRQIAeIr3/ve9+q4QdfIjUhuHHrooYMfAVPOn/70p3r/U045pTPwH8fNH2Pej645N4iDtMXO8nLjdRrPe/nll6ubb765MQZGPIDYVBprifoddNBB9cToUW7+mMfu+BEz/xePWEPpkThFuswl9kDi5Sc/+Unj8WYbj0nr5fPpFDC50ZLc4MP6yCOP1IkELk78KjtfuMgeccQR9YeSe8fzK3ECsWQht27dOrgvIB9OsqH5QnCSC0fXhzcCngSCCSTfcMMNFb/oz5f0YsjzfLn//vvroDrnc91119WjKzhPstB8CRx11FF1fUgSRKaXRzK/1LPt/oZcfLmIcg9Dgs3pMsxxY388qSvHj3r/85//rI1Z9/rrr9f3VWTdt771rXq7/MIbZbU9pkF62oM6xwTyXPz5El2yZEl9DI5FffLgMuVTH77sWM/2mzZtGpRDfekjcR9IyikF/2kT+hsJEMphlM4TTzwxGFZJfcjgk3j78MMPB6cVQftSMH2wUZLAaEtukOSiP/zsZz+r3nvvvXp3jkXfi/MnicXoAbzw4fz4e/755yv2p+5Nk3lR1sknn1xvw3Hof/RDzp3sP23OcehPfA7zJT4TJFk4Fr+M4DPHZ49ySAxRL+rQNJKIoHp8iWM3zMJ50D4ch2sAyU7qwHmwjn9gMFKHNkuXqP9s+mraR0tDaefyOUvr1vV8r732qkdkdG3X57ZUUQYjPPhzUUABBRRQQAEFFFBAAQUUUCAEiEmRlOD/3G0xKf4PHnceyWNs8aNl5sTg/+tPP/10cURE290jiHVEbIoYxjPPPDOIgRDPiB88sg3bznZJ43kXX3xxHQvhfEg+cG6UyTG5iwcW+Q8e2Y47rrCO23M1LRG7KyVBIqZUihWl5Q0be+A8uHMDdaSNiNsQv2EhZkLd+GHzli1b0sP5XIFWAZMbixbVw5744BDo5I9fkxO0JpNIcJkA69q1a2dcnBj2xa1z+FAS4I1kQCrOh7Nt4qPZJjcI3v/85z+fUZc4ZnoxzJMbDMPjYtsUUKcMHGKbNNOcDlkj8Fxa+IU9FvkQuLkcl+Ns3rx5kGAqJQLYhra46qqr6uNTh9kEjNk/vcA2ZeHZ7u233x4E7TlOntxI+wRJKLYvLemXYin4nyZI1qxZUzFypc8SX0SjSG5wfpdeeumMvkbdeZ/1/JVGRlBXki98WbINv5JIl9QbJ4L2+cI/OOIfJnmfYttIDlA+X36lfzyQFCE5UqoDZYwiuUEAn88U/Ya+3neJ+vftq2mfKV1v5vo561tvtmOUxbnnntu5ywMPPFBvy2PXEhOLd23negUUUEABBRRQQAEFFFBAgekSiHhTU/wBDRIMrOf//2lyg+B5xOX44SHxPf4Pz3b5X9cdNoj5rF+/fvBD1HT/rn27WizieZTZdp7pjx7T2A9xloihNN15hjrEvCTMQcL5pEvElNqSG3OJPfAD0PghLHFGFwVGIWByo3AxSy9Ohx12WP3LawKt+RLZzvSimW/DawLgXDgZ4cGIg3SZbXKjK4AaF8NSneLLIL34pXXhORdDAsUYcK/ACBhz8YrRCKVhgIxw4OLJfvkFai7H5fhk5im3rd7UPa1j34BxnD8Jm5igiot52xKJHuqUJzeiTxBQ54u1bSHxsXz58vrc0mOmX0iMCODi33eJL6Iuq9iu9IUV60pZ/KhH9GkMmn45kf66gl9JpEt4dzlFf+a2aNweLV0iOdD2mUj7ZV4HyhpFciM+wwyTZSRX3yXq37ev3nfffYMkCsmvfJnL5ywvq+v1fCQ3SJZQrosCCiiggAIKKKCAAgoooIACqUAa0CeJwLygxID4Pz2PvOZ95gElfpDGxPjRMTES4hfMWUt8jmQHP+4l5sQfd9jgB3dsw3r+/11auEtFjJxg2/yPdWwzzBLxD8psirNEuXELqvQ8WZfGpPI7qrCe+FLcij2P3bE+4kGlWFEcey6xhzQGk/8INsr3UYHZCkx1JCk+tPnFKF6TTeTi0rT8/ve/ry9kXYHkuEB95zvfqbg3f7pEYDS/IKXb8DwCodwuKp3wO98ujpWXxz4xHwXn3baES3qsNMnAl0AMG4tyGBpHoDq//c9cj5tmdbsufOkXVt+AcdQ/fn3fJ0AdxvSTPLkRfaItSx7HxLQ02VQakO9qqygrHqPtuvpkbFf6wop1beeQGpSSXdQnPb+8PUj84Nc1SX36xZcni+Iz0TSpdlcdWJ+WP1vrME+Tagwd7ZuMivrnNlFu+sh1gyQO/8gqec/1c5Yeq89zkhD8w69rceRGl5DrFVBAAQUUUEABBRRQQAEF+ghwC2huBxUxu/yRH4cSNyAelsZ20lgR+zTdNoofaEbcjARA/n97ymZEBf8v5//+/GCVH6fyx3PeY13bqIu284w4C2XksaZ8P344HbfIT2MljMRgRAbnySgO6pYuTbG72CbiQaVYEdvMNfaQ1o+2/Pvf/z6jjlEXHxXoK2ByI5tzgxEaXDAjY0tAMU9IBG4EJ/MLatvr/AI12+QG9wfML05RHx7jYpgnN9Igblv90nX5xSwyw/kv5alPDH3LL55zPW6cD4mTUtY5Pff0C6tPwDjdNy7gbQH92D7qhFXentEn0lEvsV/pMY6bJiOi/D7nnJdZKi/fhtexXd7G6bq0TnkZUceSQbpteOTtEcdP+1vXc/ZJl6ay02143rZd2j/z8vNyml7T/9mXf4BwDvxDhmNyr87SiK8op61esQ2P/AOLBA5lN/0jLD2PLsdYX2r79Lhtz/vOuTGb5AbzbVCuiwIKKKCAAgoooIACCiiggAIlAYLr/P+bH0rG/8EZrbFu3bo68B4xNn6sHMmJNFaU/yA3P0bEvfJ4DD9qjDk1OFbp//r8wDPm5Og6Tn5cXkecJY/nlbZNYwB5LCPuNpInaNIfLeexuzgGZREzaIoXpMeN2ELXY15W/HiT/WhD5qR99NFHe9+OPerqowIhYHKj4UObBhS5IDAPR75EcLLrg5yuz4PhceHtunjFsXhsW5ouhqO4APHFUBq+lt5iKE9AzPW4TedTMki/sLqc8v3jAt4W0I99ok60a96efdspyorjphf7KL+rT0QZ6WOU13UesV163Cgn1rWVEXUsGUQ5PDZ5xDHSz0bXc/ZJl6ay023a6sC6tH/m5efltL0mwfHcc88NPh9xLvjyK4pSQrJP/dkvJttqug7l5xHH7nostX3bOabr2JfRG/i1LX2TG5TTdzRI2/Fcp4ACCiiggAIKKKCAAgooML0CGzdurIPz6R1HGC0QPxhM3y8ppSMi0rsmxDwVXUmLiI/x//HZxhgiztInFtQWy4g65CNA4v22W5BHrKYpXpAetyvmEOtLZRFjZS5XbiUW2x144IF1kqrvnLOl9vO96RQwudGQ3KA7pJM6E2DMA5R9gpNd3Wp3JDfygHxXHdP1cUFPJx6KzHZp0uf0wjfMcePiXrqlV1ovno8iuZHeiisvP15HnbgA5+cUfWIUIzf6nHPUKR7ji6gtMcG2sV3pSybWtZXRZhB14TE8eEyXPsdIty89byo737Ztu7R/Uqe5Llwjtm3bVp83IzjoI/yD4uabbx7MXxPHaKtXbBPDXvnHBxO0Ny3peeR9smmfubx/55131skIrottS9/kBuWQ3KBcFwUUUEABBRRQQAEFFFBAAQVmK5DeGpvYVbrE/7+7YjXp/61JlLCkyZG2OAnbpnGprmOl9eN5xFlmm9xIkzCUQ1wi7q7CnLoRy2Q7YhSl2F3UJWI1pVgR26Q+o4g9fPzxx3V8ivmOI8lxyimnFH9gHnX0UYFcwORGS3KDC8Bdd91Vf8BKwcUI9PcJiOfw8ZqLAR/grotXXIh5bFuaLobp5M7MCzHsEpMTRX3TL4/SZERzPS4TNHOvRIzyC3Z+DulcFV1O+b7M58ExSpO+59syOoUhimyfX8yjT3Ax5tzbFvoXtxmjnPRLr+mXAm1lxbr4Iuq6vVbUs/SFFWW0fWlHPysZRF14bOq38aXKrx5Ko6LSMpqeN5Wdb9+2XfrFPIrkRnrsTz75pL7nJkalX0a01Yty+FUFQ2lJjlC3+AdJeox4PtfPWZQzm8c99tij2nPPPVtHbzCXDbeb4rFpoQ0oh/JcFFBAAQUUUEABBRRQQAEFFBhGIObDLP3/O2I+XbGaNB4T8Z40YdEWJ6HO6bZdo0Tyc4w4CxOiv/jii/nqnV6znu2ato24VYw0See6KMXuovCIB5ViRWwzX7EHbvP1xz/+sb7NNzEUJi13UaCvgMmNluQGiNyKiUmJ+HCRxEgD1lzoCDyWLpx9G2BXJTcIjJKx5TzasrRd9U4viFxs4ssjLpj5/nM9bnrhZMgayZSmJSZG4hwJHM9miS8G2rMticL5RAac48SXXRwr6kDyg+dtCxNOLV++vG6TdLL01DgdIdNWVqyLL+x8XpRYzyOm9AHqX/rCii+zti/t+NItGaTHagrgx/54M/JnmKWp7Lystu3mM7lBPUjc8NnAKX71EfVrqxf/IDrvvPPq/Xjkddsy189ZW9lN62L0Rp+JxZvK4H32d9RGm5DrFFBAAQUUUEABBRRQQAEF2gSIFcV8F6U4SsSuuMPC5s2bG4uKO5OkE5Lz/+34YWpT7CsKjOMQAyB2NJsl4iTs2xbcpz7p7atjbpH0WBH3iZhL1Kur/hEPKsWKKH8+Yw+pM7cRIzbmokAfAZMbDQHeFO+RRx6pf6nPRWHDhg2DVekcFD/+8Y8rfqldWviAEgTnnvz5wi+aKbcp2xrbtwVCYxse42IYIyvSdRF453iMSClNgMT2XEAIxJYukKyPyYkIfv/hD3+oA7BNkxGx/VyPy0WdiztfQtymp7S8++671apVq+rt2Bav2Sxx4WdfyqG80hK3CWI7/vLkRpqlpxwSGKUl/eItzaUQX6hdbZWXHSNrqNutt94649f+9EW+rCiXbUpfWPFlNp/JjTSB0+bE+THZVCnh1Pcz0bYdfZzREVjkw1Zz22Fep8mN/Bya6pW2Ecmvpj6U12eun7O8vD6v6T8kJrpuT9VUVtyOinJcFFBAAQUUUEABBRRQQAEFFJitALEtYlzEOUp3XaE8YjCXX355/X9/frhcit+lcSW2TX9cGzEaYgckUdJ1UV/iHNdcc019jK4kSuyTPkY8j2Pwg1ViIaXlpZdequ/+wnZtSZCI3XGnkLh7R1vsjmPFnCVtdzWZr9hDmtxI725SMvA9BVIBkxsNAd4UiQvUhRdeWF+gli1bVo9WiPVpsHvlypV18D1+Zb1jx476Pvn88pqLbB4Ip4z0tkuMTOB+cxyPpAePsTQFQmN9PMbFsJTcSAPq1Oeiiy6qtmzZMrgoc1unBx98sA54l4LecYyYhIhMNrc/YpRCPpF4bMvjXI9LgDgmMucLYv369YPEC8a0AfYEyY899ti6nfCa7UL7UD5fEEcddVRdLuWzEATnuExwdPbZZ1fMh8F2pTblC4gvItYvWbKk2rRpU4UtCxZ8Ea1evbpe35Sw6TKjj/GFwhdnmoSiz/ArBY5N2XzBk7iJc1i3bl19DieeeGK9Tamdd0Vyg/p0OdE316xZU08wRZ3ype9nom072pehonhhwTw7/MOIJBHDUfssfPlzDPaJzz5fynxOLrvssrrsUpKiqV7MrcE/yJr6RlOduvpM3893U/lN73PbKRIcJ598custqtL9GTHzgx/8oN7v0EMPTVf5XAEFFFBAAQUUUEABBRRQQIGdBIh7XHLJJdWjjz5ax0D4P3cecyPOReyAdaUlnVeXGBIxFcrgj+e8R2yg9IPXNC7INsR02If/2/L3xBNP1HclYB1/TQmQUr3ivYjn8ePnww8/vE5g3H///YOYDv+n5/yIS3EM7jKTxoOinHiMeCPxqRUrVnTG7tgvbmdF+cSPmNz7008/rR5//PEodk4xPtqAGGnajhRM3Oqee+6p4yC0Y/7j0MHBfaJAQcDkRo/kBm5xkeEDnt4eiYsm2dAIirO+9EewfOvWrTOagIDk2rVrZ+yT/2q+KRCaFxj1LCU32JYLBtIyq+4AACAASURBVF8IpTqm73GOEajNj0GdI+PNPn1uczXX477xxht1wiGtY/qcX98TLMeN9/Ga7dKnLQm2P//884MseSm5wXEZpUMiLK1j/pzEB/s3ffHyJcKtxLiw5/vG61JyAoemY1MWmf077rijLrO0/65KbuD05JNPDizjnPJH+jL/aMiXvp+Jru3SpFYcu+nzk9eB1+EV++aPlMV55kupXmkiLy+n9Dq/Tsz1c5bXse9r+hEJDubO+NWvftWY5OAffaxnO7af6y2t+tbP7RRQQAEFFFBAAQUUUEABBcZXgP9L8v/O0v+LeY+AP7G5pvhKnHlXrIbYHfGn0sL/t/kBY1uMhnXEcYjnzHZJ43n8iDdukV86Z9Z13eVhmNgdccC4RXZ63DzGNmzsIc4xLTt9jt/NN988+BH2bA3dfjoFTG70TG5wgeQ2P3zoGKnArarShV9p33jjjXV2NT6YXFwJ/P/1r3/daRRGuh/PyQAzKiB+7c9+v/3tb+vscWxbCoTGuvQxLhRtwVl+mc4FnV/4R8aXOi9durS+UL/yyiudXwgEm2NSbb5A+ixzPS7Z4ttuu63OOHPB44/sM8Fl1nERnktyI85h27ZttcPixYvr9iZxdcYZZ9QBas4hjDFrSm5QFnXiNmaMkojk1z777FN/QfE+67sW+h3twRdo1CdtK0aBUKd8IUh+7bXXDvbhuPTFp59+um7bCMjv7uQG9Wa0UtqunB9euLU59f1MdG2HMSOlGPVDn8LqzDPPrEde5K6l1wxd5RcN/MqDfak/j7y+5ZZbGgP9pXrFEFDK6POXJzeo31w/Z6Vz7PMec3AwKThJC/7222+/ejQH/zBiVAevYx3bsb2LAgoooIACCiiggAIKKKCAAl0CxM34/3IeX+H/3cQTiCv0XUiU/PrXvx7E7+L/70xo3ZWUaIvRkNQgnsQ2wywRa4p4HjEjYg0RK6SeJDUeeuih1hhjeuxhYnfcsuv6668fxAs5Pvb5MkzsAd8HHnigjk8NG4/M6+FrBaY6uWHzK6CAAgqMVoCkBUmzvfbaa5DMIKnB7at436TGaL0tTQEFFFBAAQUUUEABBRRQQIGSQCQ3uiYSL+3rewqMi4DJjXFpKeupgAIKKKCAAgoooIACCiiggAIKKKCAAgp0CHBbKm45z10h8gnSO3Z1tQJjJWByY6yay8oqoIACCiiggAIKKKCAAgoooIACCiiggALNAi+//HJ10EEH1beUL81j2rynaxQYLwGTG+PVXtZWAQUUUEABBRRQQAEFFFBAAQUUUEABBRQoCjBqgzlAGLXBfLvMWeKiwKQKmNyY1Jb1vBRQQAEFFFBAAQUUUEABBRRQQAEFFFBgagQ+/PDD6oYbbqj23nvveuTGCy+8MDXn7olOp4DJjelsd89aAQUUUEABBRRQQAEFFFBAAQUUUEABBSZA4O67765HajBag7/999+/uvfee6uvvvpqAs7OU1CgWcDkRrONaxRQQAEFFFBAAQUUUEABBRRQQAEFFFBAgQUtcM8999SjNfbZZ5/qtNNOqxixYWJjQTeZlRuRgMmNEUFajAIKKKCAAgoooIACCiiggAIKKKCAAgoooIACCuwaAZMbu8bZoyiggAIKKKCAAgoooIACCiiggAIKKKCAAgoooMCIBExujAjSYhRQQAEFFFBAAQUUUEABBRRQQAEFFFBAAQUUUGDXCJjc2DXOHkUBBRRQQAEFFFBAAQUUUEABBRRQQAEFFFBAAQVGJGByY0SQFqOAAgoooIACCiiggAIKKKCAAgoooIACCiiggAK7RsDkxq5x9igKKKCAAgoooIACCiiggAIKKKCAAgoooIACCigwIgGTGyOCtBgFFFBAAQUUUEABBRRQQAEFFFBAAQUUUEABBRTYNQImN3aNs0dRQAEFFFBAAQUUUECB/6+9e/+VpSj3x+9/Av8BJv5giDHASSRKJECQAAYRDAYixrtRD4koARJQiBgjF1EEhXAkyNbAORgEvALKRdEjCoe7YhAQEVDQiP3Ju7/fmtTu3T3ds9esvdaseXWymLVmqqurXlXTw36eqW4CBAgQIECAAAECBAgQWJKA5MaSIFVDgAABAgQIECBAgAABAgQIECBAgAABAgQI7BsByY194+woBAgQIECAAAECBAgQIECAAAECBAgQIECAwJIEJDeWBKkaAgQIECBAgAABAgQIECBAgAABAgQIECBAYN8ISG7sG2dHIUCAAAECBAgQIECAAAECBAgQIECAAAECBJYkILmxJEjVECBAgAABAgQIECBAgAABAgQIECBAgAABAvtGQHJj3zg7CgECBAgQIECAAAECBAgQIECAAAECBAgQILAkAcmNJUGqhgABAgQIECBAgAABAgQIECBAgAABAgQIENg3ApIb+8bZUQgQIECAAAECBAgQIECAAAECBAgQIECAAIElCUhuLAlSNQQIECBAgAABAgQIECBAgAABAgQIECBAgMC+EZDc2DfOjkKAAAECBAgQIECAAAECBAgQIECAAAECBAgsSWAlkhv33HNP44eBOWAOmAPmgDlgDpgD5oA5YA6YA+aAOWAOmAPmgDlgDpgD5oA5YA5kDkhuSJxIHJkD5oA5YA6YA+aAOWAOmAPmgDlgDpgD5oA5YA6YA+aAOWAOmAMrNQdWIrmxpFUqqiFAgAABAgQIECBAgAABAgQIECBAgAABAgR2gIDkxg4YRF0gQIAAAQIECBAgQIAAAQIECBAgQIAAAQLrJCC5sU6jra8ECBAgQIAAAQIECBAgQIAAAQIECBAgQGAHCEhu7IBB1AUCBAgQIECAAAECBAgQIECAAAECBAgQILBOApIb6zTa+kqAAAECBAgQIECAAAECBAgQIECAAAECBHaAgOTGDhhEXSBAgAABAgQIECBAgAABAgQIECBAgAABAuskILmxTqOtrwQIECBAgAABAgQIECBAgAABAgQIECBAYAcISG7sgEHUBQIECBAgQIAAAQIECBAgQIAAAQIECBAgsE4CkhvrNNr6SoAAAQIECBAgQIAAAQIECBAgQIAAAQIEdoCA5MYOGERdIECAAAECBAgQIECAAAECBAgQIECAAAEC6yQgubFOo62vBAgQIECAAAECBAgQIECAAAECBAgQIEBgBwhIbuyAQdQFAgQIECBAgAABAgQIECBAgAABAgQIECCwTgKSG+s02vpKgAABAgQIECBAgAABAgQIECBAgAABAgR2gIDkxg4YRF0gQIAAAQIECBAgQIAAAQIECBAgQIAAAQLrJCC5sU6jra8ECBAgQIAAAQIECBAgQIAAAQIECBAgQGAHCEhu7IBB1AUCBAgQIECAAAECBAgQIECAAAECBAgQILBOApIb6zTa+kqAAAECBAgQIECAAAECBAgQIECAAAECBHaAgOTGDhhEXSBAgAABAgQIECBAgAABAgQIECBAgAABAuskILmxTqOtrwQIECBAgAABAgQIECBAgAABAgQIECBAYAcISG7sgEHUBQIECBAgQIAAAQIECBAgQIAAAQIECBAgsE4CkhvrNNr6SoAAAQIECBAgQIAAAQIECBAgQIAAAQIEdoCA5MYOGERdIECAAAECBAgQIECAAAECBAgQIECAAAEC6yQgubFOo62vBAgQIECAAAECBAgQIECAAAECBAgQIEBgBwhIbuyAQdQFAgQIECBAgAABAgQIECBAgAABAgQIECCwTgKSG+s02vpKgAABAgQIECBAgAABAgQIECBAgAABAgR2gIDkxg4YRF0gQIAAAQIECBAgQIAAAQIECBAgQIAAAQLrJCC5sU6jra8ECBAgQIAAAQIECBAgQIAAAQIECBAgQGAHCEhu7IBB1AUCBAgQIECAAAECBAgQIECAAAECBAgQILBOApIb6zTa+kqAAAECBAgQIECAAAECBAgQIECAAAECBHaAgOTGDhhEXSBAgAABAgQIECBAgAABAgQIECBAgAABAuskILmxTqO9A/v6xS9+sXnDG97QnHHGGc0rr7yyA3uoSwQIECBAgAABAgQIECBAgAABAgQIECDQFZDc6Ir4e6UEJDdWarg0docK3HDDDc1JJ53UvP71r29e97rXzX7yd57ftWvXDu25bhEgQIAAAQIECBAgQIAAAQIECGyVgORGJf+vf/2ruffee5vzzz+/Ofroo9sVAVkVcOCBBzannHJK87Wvfa35wx/+0Pz73/+u9vLrVgpIbmylvmOvu0CSGvvvv/8smXHQQQc1H/zgB5szzzyzfczfJdmRcilvI0CAAAECBAgQIECAAAECyxB47bXXmttuu6055phjmkcffXQZVaqDAIEVE5DcaJo2WXHHHXc0Rx555CyhkaRG388b3/jG5rzzzmteeOGFFRvqndlcyY2dOa56tf0F3v3ud7eJi/3226+54oormr/85S+9jc7zeT3lkujISg4bAQIECBAgQIAAAQIECBDYiMCf//znNj6XON3b3/52yY2NYNqXwAoLrH1yI6s1rrrqqiYnw7JK46yzzmruuuuu5tlnn20Ddo888kj7jeME80rC48QTT2wef/zxTR36559/vrn66qvbb0A/9thjm3qsZVX+5JNPNpdeemnz8Y9/fDDYuaxjpR7JjWVqbm1d+3rubG1vN/foOa/dc889zWc/+9nmsssuW/rBDjjggDZRkVUaQ0mN7kFTLuWT4Egi2UaAAAECBAgQIECAAAECBBYV+Pvf/95cd911zaGHHjqL0UluLKqoPIGdI7DWyY1cXuo73/nOLLGRwFsuOzW0Zbnb7bffPjuBvve9720TIEPlN/p8LpGVZMoqnaTjmTYnETQ16LkRJ8mNjehtr3339dzZXr1fbmteeeWV5owzzmjfi3mPLHMrKzayGmNvtuyXBEfOtzYCBAgQIECAAAECBAgQIDBFIDGmiy66qDnkkEPaf+vmS8rHH3/8ysXNpvRVGQIEpgusdXLjt7/9bfPWt761PRF++tOfbv72t79NkvvZz342O5l++ctfbvIt6c3YJDfGVSU3xo1WpYTkxvJGarOSG7lnxjISE2UFh3twLG/M1USAAAECBAgQIECAAIGdLJB7auTLv/lC7bHHHtv89Kc/be6++27JjZ086PpGYILA2iY3/vGPfzTnnHNOexLMjYd+//vfT+D6/4pkxUe+fZwTapIjDz300OR9FykouTGuJbkxbrQqJSQ3ljdSm5XcyH0z8jNv+8UvftEcfPDBTR6HtnzjJvXkJuM2AgQIECBAgAABAgQIECAwJpDLtecS6D/84Q+bxPSyrWLcbKyfXidAYDGBtU1u1Bnfa6+9tr2p+CJ0SYYcddRRbYLjmmuu2W3XcnIduzRTKVdfdqoOSiZ50veTy82kXLYECcu9QFJftlxaK4mbcv3BLNn75Cc/2WSlShIzfVsJLNd1zytX961uQ19789zeXhrnqaeear70pS81hx9+eGtx4IEHNqeffnpz5513NrlM2NTkxnPPPddceeWVzQknnDC7DFlcPvaxjzU/+clPZh+MfX0uz+V4Dz74YHPBBRfM2pO+pW3xfuKJJ0rR3nGZvVj9UttlDLpb6V/x645t+nPzzTfv1v7cVOviiy+etTH9PPvss+decq0c95lnnmkuv/zy5rjjjmu9s8zz5JNPbi/fluta9m3lvVTmcZwyPhmnjFeMUl/uH/Pqq6/uVkXd/2XPnRzrxz/+cTvG9bLVmH3jG99oXn755d3aUv546aWX2v6ecsops/aXeXfjjTc2Qw71e7dvLEv9dbkyruW1PHbfizle7MqYlLZkBVn3/VzOKUOWeb6cJ+pjTvm9rNoYuxxVkhoHHXTQ3ORGjlcuT2X1xhR9ZQgQIECAAAECBAgQIECgK1D+DVziEd3X/U2AwM4XWNvkxve///026PqWt7yl+d3vfrfwSNcBylzSqmSNU1E5udYJgL4DlHL1SbiudyhAWScg6uBw6vve9743u2RWd/8EqnNz4b7LaHUDqn3tzXOlXN23ug3dY5a/+4K4Q8fI82nj9ddfPwsul3rKY+lLEg15rjap6x2rp9R32mmnNUmkDG0vvPBCk3Eu5fse64B2bZJxGdrqcvX+pXyd3EgwuySsusf//Oc/3ya8HnnkkVnSrVsmAf7U0bclSJ65M1R/6nrPe97Ta1QnNx544IH2GpjdY5e/u5d/q/tfynQfF5076d9vfvObJiuyunWVv+v3XPGIQb4BMs8g+6fe1N/d6vdu31iW8nW5vr6V91jmdMYz7qXd9WPeAylbJzjKOaUu1/193nwsbex7zHs+l6TKmC1jSz2pL/XaCBAgQIAAAQIECBAgQIDAogLl38B9/8ZftC7lCRBYTYG1TW7kXhkJ+iVw+Ne//nWvRq/UUQf6U1E5uXaf7x6klBs6CY+9nvrq4HBurJRkzXnnndf88Y9/bFc25Fv0jz/+ePPRj3607W8Covn2eXerA6oJvg5tpdxQ38ZeH6q3fj7B2tSTtmaMsuogqyKSqEh/0rf08U1velP7kzJ9yY2UTzInr6euc889d1ZPjpdxv+6662bB7KEbxD/77LPtKoTUkwRBvnGeFQ5pZ9qTlRJp76233jrrRj0uGcehrS6XOrpbSW4k+ZIbZeUb/FlZkGM//fTTbZ9K/7797W836cOJJ57Y/OpXv2rb9s9//rO54447ZgmPrKbom+9pe1YExOmSSy6Z9S/7JyGSOnOcT33qU3vcm6YkNw477LB2BUvmc+rLPWy67Uwd3/rWt7rdbP9extxJRXUSKGY/+MEPZm1OfzKXvvrVr+620ib75X1R5lzeL1nplPLZ0pfbbrutOfLII1uHrNpK4qHe6qRF31iWsnW5ecmNjNX73//+9sbbWTGU+Zyf+++/fzYeQ5fFGztGacsijwcccEC7ImNsnymXpSp1ZIVHfmwECBAgQIAAAQIECBAgQGBRgSlxs0XrVJ4AgdUSWMvkRgKE559/fhuk7AuKTx3CEox9xzvesds32svJdSgBUOov5ZaV3EhgNm1KQLm7JThbVh4kAJ7LNNVb6cuYRyk31Lex1+tjDv2eS36Vb90n0J7x6m5JKmRlR4Ll+elrdwL8SUbEZdeuXW2wv1tP/q5XOyRxUfvl2CVBkoD2r3/9674q9niuTlosI7mRPvZdPi2JjpK4Spm+oHsal8szxeHNb37zHn0o3vPmTxICGZOUyU276q0kN3L8zOWHH364frn9PfMviZGUed/73te8+OKLe5RZxtxJoimJoBwnx8uKmylbMch+SVrWK7Hq/ZPoyvsn5XIpsrpcnVBIX4a2uty85EbpQ+y6W4xjnTJJ1HS3sWN0y0/5O6sszjzzzNGit99+e7siI49jW7mx+Fg5rxMgQIAAAQIECBAgQIAAga7AWFytW97fBAjsPIG1TG7Ugb++oPjUYS7B2G5yopxchxIApf5Srrv/1NdTrg6i58ZKfYHQUl9ufJ5veidA3Q24l76MeZRyQ30be720Zd5jvtmfoG1fEqbeLysQSiC72+4kJS688MK2nu5rdR35PcmMJA5yzNxf4vnnn58VKfdWidktt9wye37sl3pcutb1vnW52HW3snLjXe96V7uaovt6/i7maf/Qqog//elP7cqPlLnpppt2q6Z4z3OKUe59kv2TGKwTTnVyI4H2OjlUH6hcCu6II47YY9VE3Y+huVXXNfR7Lq2VNiYRk7GbuhWDsTmX+kqiqPu+rc8rfWNZ2lKXm5fcSCIqqzT6tqwoyYqm9LV7WbyUHztGX51jz21GciPJktRrI0CAAAECBAgQIECAAAECiwqMxdUWrU95AgRWT2Ato0r5tnVZxTAvoDs2nCWonMBzvjFetnJyHQvSlnLdIGm3nqHXU24sOF7qymMSHx/5yEfagGguYVRvpS9jHqXcUN/GXq+P2fd7PTZ930jv7lOC/912ZzwyLgn+Jqg+tuW+K7mkV3dlQwnId5MeY/XV47KM5EYC2eUSSd1jl3k07/4x9dhnjMqWm1WXFRX18+X1+rGMbcrXN9UuyY0kgHJJoqGtGA/N51L/0Nwaqrc8Xwf8k4gZSrKU8uWxNpgy5+pEUT236oTCPMu63Lzkxtgl86655pp2fnfnfvo1dozS90Uek4TISouxzcqNMSGvEyBAgAABAgQIECBAgMAyBEo8ZCjOsIxjqIMAge0tsJbJjQxJCYoPXSJnyrCVe250g5Dl5DoWpC3lhk7CY6+njVOD6Ck7L+BZAst9gdLaopQb6tvY63Vdfb/X/akDx31l81wZx267S8B9XsC/rrM+btzLVuqfl1woZevHofrqMvm9LtcXEC/Hz+PQNmWe1GNfH6c+fhJBU366Y1+sh+ZxafdYuX09d0q7aoOsyhjbhiyHnu/WV5frG9fi0J3T3XrmlRs7RreuKX9PvefGIsmN3G8j9doIECBAgAABAgQIECBAgMCiAlPiIYvWqTwBAqslsLbJjaxcSCB3LCA7NJx18LAb+C4n124QuFtXKTfUhrHXU18dmE35eVvd5m5QdV6gtK6zlBvq29jrdV19vy/Sn+xfgv/dQPBYIL177Pq46UPZSv1dr/L60GNd37xxqcvVxy31Tjn+lHlSj319nPr4UxIbKdMd+6nWY+X29dwpxrXBvLEq5WvLel7Uz9fGZb/yWJer9y+vF4funC6vl8d55caOUepY5DHjntUb8Zq3TU1upJ6pq0HmHc9rBAgQIECAAAECBAgQILCeAlPiIespo9cE1kdgbZMb5RI5CdYO3adg3jQo92LI/t1AZjm5doPA3fpKua1IbuSSNvU2L1DaV26ob6Weodfruvp+rwPNP/vZz/qK7PZcCf53A8ElkL6slRtf+MIXJl/mKA2s+zEvYF6X686j1FP61xcELxBj8yjl6mB3fZz6+PPaWY7V91ish+Zx2Wes3L6eO6VdtYGVG0Vlz8cbbrihTUZcccUVe75YPTM1uZF6ktxIvTYCBAgQIECAAAECBAgQILCowJR4yKJ1Kk+AwGoJrG1yI/cgyA24k5x45zvf2Tz99NOTRy43Uy6XpDrqqKP2uHFxObm+4x3vaJ566qnBehNIzfGHgsKlnqHXU/Eigdn6XgHdIG4JLI9dpqtc538oeVHqGXp9EOP/f+HFF19s0oa4dBMw3X3reyx0kxvz+tqtJ38/8sgjzWGHHdbedyOJr7KV/uZeJfNu1l7Kl8d6XOZdXqtuZ510KPVsdnKjvhdH9z4spQ1jj2NJi7L/WLmNzp26L2Nzp7Qpj4vuV9/PpX4f1QmkeffuqI/Xl7QqDt05Xbc5v88rV7el7xjduqb+vd9++zX777//3NUbue9KLjc17/4reX+kntRnI0CAAAECBAgQIECAAAECeyMwJW62N/XahwCB1RFY2+RGhigrA3ID6QTSc4PxBB2nbNnvkEMOaffLt4+7Ny7+9a9/3dabuu+///7eKpMgufDCC5ea3Eh9qXdou+WWW5rc9LkvIVNunN33WqkvPiUhNJS8KAHXoddLXUOPaf/555/funz0ox9tXnrppaGibVIp7c34dQPBuTH5Zz/72fa1PObvoS3jd+2117Zlu8mdjF/Gcd5Y9tVbJ2kS6O7OkbLPT3/603ZM0ofYdbfNTm6kXbn5do6fsZ36HqjbOZa0KGXHym107qQvsU5fTjvttOavf/1rOfTcx0X3S0Ij76Nu8rJOts2bcw899FDz1re+tW1nX+KhOHTndLcT88ptVnKjrN6YcmPxbnvrv7O/VRu1iN8JECBAgAABAgQIECBAYFEByY1FxZQnsPME1jq5kUD6JZdc0gYZExBNgiPfyh7aEiBPQLEkNoYSIs8880zzrne9q63385//fG/CoU6QDK3MyDefE0Sdd2mleoVA2jV0KaesTMmNz9PPviRIHXBNoL8bjM/f6XvakzqGkhc33XRT+/rxxx/fZFXC3mwl4J9j5ZjdtqTOBOHjn7bkpy8QXJJXqWfXrl3Na6+91tucrNpIkiTlbrzxxt3K1Amd9773vZNX+NTJq6GVQc8++2yTOksf0tfuttnJjRyvJHDGnDL/M77dpMFY0qL0aazcMuZOPY+zumpeUqu0K4+lbRmLefvVY3bZZZft8d7OJe5SR5IXv/3tb+tDtL935+1mJTfS7/L+SLJwXtJzj0aOPJH3fhITY5enGqqmXI4q9dgIECBAgAABAgQIECBAgMDeCkhu7K2c/QjsHIG1Tm5kGF999dXmoosumgWYkyC44IILmpwgk+hI8uA3v/lNc/XVVzfHHnvsrNzpp5/eJNDZt9XfBE/A+Ctf+cosIJzg5ve+973mbW97W/PhD3+4rW8ouZFLWuXb4QmWJkmSVQwJWibpUYK2dXIjyYu0/7rrrpsdL9/gzjfNjzzyyLaeY445Zo/LaKUPqa+sdEgdSQakrdkSzE7/Dz300Ob9739/W89QcqOsWkmbs098//73vzd33313H1Xvc2nzZz7zmfY48UsCKgmjuCZI++CDDzZZ1ZGkwYc+9KG2XF9yo05epZ5zzz23eeKJJ2aB3vQrVulX2juUrCrJj5SJ42233dZkZUa2JEySxMk32m+99dbd+lOSBtkv31R//PHH2/Jp1wMPPNCuLjjllFPay5KlzFYlN8ac0tcf/OAHbUKrb9xLYmBoHheUsXLLmDvdJFzmSZIMWVWRLY9JgGSFR+ZC2cb2y3sh417eR0lK9b3/63vxnHjiiW3iKL6ZJ08++WTzn//5n81xxx3Xzt2M+WYlN9Kvsool43Lfffe1bUif636X/i/6mMtOJcGR91/OQVO2lDvppJPa/Y444ogpuyhDgAABAgQIECBAgAABAgQGBSQ3Bmm8QGBtBNY+uZGRTvDxu9/97izInaDj0M+BBx7YBg0TsJ+3JfCZBMhQPUmoZIVCXh8KCqdd+XZ4t446kF8nN370ox81Z5111h7ly/5JbCSwO7QliJ8ypXz9mORAvpV+/fXXt6/3BblTb52YqPfvqxV+EAAAIABJREFUC+IOtSPPJ7GU+1zUddS/Z6VFguFlZUNtUteb5Eouu5T21/vXv+e1JI9efvnletfdfk+Ca8im1NVNTpTxGzp2klHpQyxTR3f/NKD0b57flA/z+jJFfcdJ8P5zn/vcoFHpY5xSV72NJS1K2bFyy5o7cc88zXu1tLv72Peem7Jf6vnEJz7RJttKv+rHJEmy+mfo2Jm3P//5z9uVRqmrb1wzPnltaE6X442Ve+yxx9oVSd2+Z74sY8u8TYIj9874+te/PpjkyDkqr6dcym/0klbLaLs6CBAgQIAAAQIECBAgQGD1BabEQ1a/l3pAgMA8AcmNSicJi3w7O/ceOPzww2eB0Xyz/wMf+EAbfH7uueeqPeb/mvqyeiHf1E6AMUHuU089tUkSIoHUKSfhrKjI6oJyb4m05Zvf/Obsm+h1ciP1pfzNN9/cnHzyye3xcsz8nkDoWEImvUlS4eKLL571P0HaePzyl79sV06UgOpQciN1JElw6aWXzpJFaXsuObTolr5klUuSRCVYHMsrr7xyFkgtwf95geAEnB9++OF2Rc7RRx89G9eMcVbp5LWUGdvil8B13Z6scslqljzfd3+QfGP/zjvv3G2feKQPWRFRj19su1vpX18QvJSdMo/GkhupK21NEicreMpqlszbmM1zGktalHZOKbesuZNjZuVT5mF5/6UvGfP0L2Z5D/ZtZb8TTjhhlhSLR/YrKyD69ivPZS5ltcgnP/nJ2SXssn+SbFnlU49F37iW99i8OZ1jTSmXBEfev3n/lPNPxmFZW1Ys5abgSVrk5+CDD25Xc2TlVVZ15O/yWsqlvI0AAQIECBAgQIAAAQIECCxDYEo8ZBnHUQcBAttXQHJj+47NpJbVwfGc1G0ECBDY1wJJWiThecABB8ySGUlq5PJVeV5SY1+PiOMRIECAAAECBAgQIECAAAECBHa+gOTGio+x5MaKD6DmEyBAgAABAgQIECBAgAABAgQIECBAgMDCApIbC5Ntrx0kN7bXeGgNAQIECBAgQIAAAQIECBAgQIAAAQIECGy+gOTG5htv6hEkNzaVV+UECBAgQIAAAQIECBAgQIAAAQIECBAgsA0FJDe24aAs0iTJjUW0lCVAgAABAgQIECBAgAABAgQIECBAgACBnSAgubHioyi5seIDqPkECBAgQIAAAQIECBAgQIAAAQIECBAgsLCA5MbCZNtrB8mN7TUeWkOAAAECBAgQIECAAAECBAgQIECAAAECmy8gubH5xo5AgAABAgQIECBAgAABAgQIECBAgAABAgQILFFAcmOJmKoiQIAAAQIECBAgQIAAAQIECBAgQIAAAQIENl9AcmPzjR2BAAECBAgQIECAAAECBAgQIECAAAECBAgQWKKA5MYSMVVFgAABAgQIECBAgAABAgQIECBAgAABAgQIbL6A5MbmGzsCAQIECBAgQIAAAQIECBAgQIAAAQIECBAgsEQByY0lYqqKAAECBAgQIECAAAECBAgQIECAAAECBAgQ2HwByY3NN3YEAgQIECBAgAABAgQIECBAgAABAgQIECBAYIkCkhtLxFQVAQIECBAgQIAAAQIECBAgQIAAAQIECBAgsPkCkhubb+wIBAgQIECAAAECBAgQIECAAAECBAgQIECAwBIFJDeWiKkqAgQIECBAgAABAgQIECBAgAABAgQIECBAYPMFJDc239gRCBAgQIAAAQIECBAgQIAAAQIECBAgQIAAgSUKSG4sEVNVBAgQIECAAAECBAgQIECAAAECBAgQIECAwOYLSG5svrEjECBAgAABAgQIECBAgAABAgQIECBAgAABAksUkNxYIqaqCBAgQIAAAQIECBAgQIAAAQIECBAgQIAAgc0XkNzYfGNHIECAAAECBAgQIECAAAECBAgQIECAAAECBJYoILmxRExVESBAgAABAgQIECBAgAABAgQIECBAgAABApsvILmx+caOQIAAAQIECBAgQIAAAQIECBAgQIAAAQIECCxRQHJjiZiqIkCAAAECBAgQIECAAAECBAgQIECAAAECBDZfYCWSG/fcc0/jh4E5YA6YA+aAOWAOmAPmgDlgDpgD5oA5YA6YA+aAOWAOmAPmgDlgDmQOSG5InEgcmQPmgDlgDpgD5oA5YA6YA+aAOWAOmAPmgDlgDpgD5oA5YA6YAys1B1YiubH5C1gcgQABAgQIECBAgAABAgQIECBAgAABAgQIEFgVAcmNVRkp7SRAgAABAgQIECBAgAABAgQIECBAgAABAgRaAckNE4EAAQIECBAgQIAAAQIECBAgQIAAAQIECBBYKQHJjZUaLo0lQIAAAQIECBAgQIAAAQIECBAgQIAAAQIEJDfMAQIECBAgQIAAAQIECBAgQIAAAQIECBAgQGClBCQ3Vmq4NJYAAQIECBAgQIAAAQIECBAgQIAAAQIECBCQ3DAHCBAgQIAAAQIECBAgQIAAAQIECBAgQIAAgZUSkNxYqeHSWAIECBAgQIAAAQIECBAgQIAAAQIECBAgQEBywxwgQIAAAQIECBAgQIAAAQIECBAgQIAAAQIEVkpAcmOlhktjCRAgQIAAAQIECBAgQIAAAQIECBAgQIAAAckNc4AAAQIECBAgQIAAAQIECBAgQIAAAQIECBBYKQHJjZUaLo0lQIAAAQIECBAgQIAAAQIECBAgQIAAAQIEJDfMAQIECBAgQIAAAQIECBAgQIAAAQIECBAgQGClBCQ3Vmq4NJYAAQIECBAgQIAAAQIECBAgQIAAAQIECBCQ3DAHCBAgQIAAAQIECBAgQIAAAQIECBAgQIAAgZUSkNxYqeHSWAIECBAgQIAAAQIECBAgQIAAAQIECBAgQEBywxwgQIAAAQIECBAgQIAAAQIECBAgQIAAAQIEVkpAcmOlhktjCRAgQIAAAQIECBAgQIAAAQIECBAgQIAAAckNc4AAAQIECBAgQIAAAQIECBAgQIAAAQIECBBYKQHJjZUaLo0lQIAAAQIECBAgQIAAAQIECBAgQIAAAQIEJDfMAQIECBAgQIAAAQIECBAgQIAAAQIECBAgQGClBCQ3Vmq4NJYAAQIECBAgQIAAAQIECBAgQIAAAQIECBCQ3DAHCBAgQIAAAQIECBAgQIAAAQIECBAgQIAAgZUSkNxYqeHSWAIECBAgQIAAAQIECBAgQIAAAQIECBAgQEBywxwgQIAAAQIECBAgQIAAAQIECBAgQIAAAQIEVkpAcmOlhktjCRAgQIAAAQIECBAgQIAAAQIECBAgQIAAAckNc4AAAQIECBAgQIAAAQIECBAgQIAAAQIECBBYKQHJjZUaLo0lQIAAAQIECBAgQIAAAQIECBAgQIAAAQIEJDfMAQIECBAgQIAAAQIECBAgQIAAAQIECBAgQGClBCQ3Vmq4NJYAAQIECBAgQIAAAQIECBAgQIAAAQIECBCQ3DAHVlrgi1/8YvOGN7yhOeOMM5pXXnllpfui8QQIECBAgAABAgQIECBAgAABAgQWFXj00Uebt7/97e1PfrcRWBcByY11Gekd2k/JjR06sPuwW4888khzzDHHNCeccELzxBNP7MMjb/6hbrjhhuakk05qXv/61zeve93rZj/5O8/v2rVr8xvhCAQIECBAgAABAgQIECBAgMCmCkhubCqvyrexgORGNTj/+te/mnvvvbc5//zzm6OPPrpdEZBVAQceeGBzyimnNF/72teaP/zhD82///3vai+/bqWA5MZW6u+MY1966aWz9/p3vvOdHdGpJDX233//WTLjoIMOaj74wQ82Z555ZvuYv0uyI+VS3kaAAAECBAgQIECAAAECBFZJ4LXXXmtuu+229guLU1cr/PnPf24uv/zy5rjjjmtjAYn5nX766c0Pf/jD5h//+MfC3c+XJN/znvc08+IJeS3xxUV+Fr1CieTGwkNnhx0iILnRNG2y4o477miOPPLI0RPNG9/4xua8885rXnjhhR0yBVa7G5Ibqz1+26H1ZeVGEphPPvnkdmjShtrw7ne/u01c7Lfffs0VV1zR/OUvf+mtL8/n9ZRLoiMrOWwECBAgQIAAAQIECBAgQGAVBJKkSHwucbpcjmlKcuNnP/tZc+ihhw7G/j71qU9NjvclEZKkRalv2cmNCy+8sMmXsKdukhtTpZTbaQJrn9zIieKqq65qT4ZllcZZZ53V3HXXXc2zzz7bBgYT/Mw3mxM0LFnWE088sXn88cc3dT48//zzzdVXX91+0/qxxx7b1GMtq/IEh/NN+I9//OODQdVlHSv1SG4sU3Nr69rXc2dre7s5Rz/ggAPaREVWaQwlNbpHTrmUT4IjCV4bAQIECBAgQIAAAQIECBDYrgJ///vfm+uuu26WVEicbkpy47e//W3z1re+tY3rnX322e2XG7Py429/+1t7yeZDDjmkfe1LX/rS3KRC9rnnnnvaK7yUGGEe5yU3co/Y/Nt77CexyP/4j/+Y1J/u+GyH5MYqxjG7jv5ePYG1Tm7k8lI5+STLmxNRAny57NTQlhPY7bffPjuBvve9720TIEPlN/p8LpE19SS90WMta/94ps1JBE0Nrm7k2JIbG9HbXvvu67mzvXq/8daUFRtZjbE3W/ZLgiPnQRsBAgQIECBAgAABAgQIENhOAokxXXTRRU1JQiSWd/zxx0+KmyW5kMs8JV716U9/uk1o1H2r44Op/1e/+lX9cvt7vhz93e9+tzn22GPbelJXLmlf2jMvubFHZT1PZCXIOeec09adf58vekn87ZDcWMU4Zs9QeGrFBNY6uVFnbftObkNjmWVs5eT15S9/eW5Gd6iOKc+v4klhXweoJTemzKTVKLOv585qqExrZVaWLSMxUVZwuAfHNHelCBAgQIAAAQIECBAgQGDfCJTgfZIKSTD89Kc/be6+++5JyY3777+/efOb39yu3HjooYd6G/zXv/61Oe2009r6snqjm1yoEySJCX71q19tnnrqqdlVXjaa3EhCJfUec8wxze9///veNs57svhMWcUyr56NvLaKccyN9Ne+20NgbZMbdUZ00RNHTnDJouaEmiVtQyfGjQ7xKp4U9nWAWnJjo7Ns++y/r+fO9un5xluS+2bkZ972i1/8ojn44IObPA5t+SZM6slNxm0ECBAgQIAAAQIECBAgQGC7CORy7bkEen3j76lxsyQiEsP77Gc/O/em4ddcc01b7n3ve1/z4osv7tb1JDfOP//85sorr5xdqST/hi6XsN9IcqNOnOzNqo00VHJjt+HyxxoJrG1yo7zpc3K79tpr98jIjs2BZFGPOuqo9qSXk1+9lZPr2KWZSrk6q1qf0NK2vp8spUu5bPWJNPVly6W1spSt3NQomd9PfvKTTVaqdDPP7Q5N016eK8eq6y6v1Y99Aei6DX3tzXNJQuzNlix4MuaHH354a3HggQc2p59+enPnnXc2uUzY1OTGc889134AnXDCCbPLkMXlYx/7WPOTn/xk7odbaXeO9+CDDzYXXHDBrD3pW9oW7yeeeKIU7R2X2YvVL7Vd3wdh6V/x645t+nPzzTfv1v7cVOviiy+etTH9zPUk511yrTTpmWeeaS6//PLmuOOOa72zzPPkk09u50eua9m3lfdSmcdxyvhknDJeMUp9uX/Mq6++ulsVdf+XNXcyxx9++OE9xinLRTOXMhfqrdv+8lp5fqhd9fNx6ksaZNlqVnplnmUcsk/el5kvaePQ+7G0YcpjWbWR/wGat6V9Bx10UG876/1ST1aBWL1Rq/idAAECBAgQIECAAAECBLabQF9crdvGxDJyo/D8e7wbv+uWzb/fU+6II47YLcbTLVf+rmMafTGdUm7sMcfNypJFv3xd11tiGCU2k3hD4oCJB3bjEd34UMqWBNC73vWuJrGheVu9EuZ///d/Z5f8quMk9e9Dsca9iUGlXYk73XfffW2yqsQ+E5dJjOwb3/hG8/LLL89rvtd2mMDaJje+//3vtyest7zlLc3vfve7hYe1TkLkklZZCVK2cnLdiuTG9773vdlJqz6R5Pe80S+77LLey2iVpMXQCaf0rZSr+1afzLvHLH+X4HypZ+wxQeHrr79+Fhwv9ZTH0pckGvLcULvH6in1ZelhEilD2wsvvNBel7GU73usP8hqk5J06qu7LlfvX8rWyY182JWTdvf4n//859uE1yOPPDJLunXL5MMsdfRt+SDL3BmqP3W95z3v6TWqP0AfeOCB9hqY3WOXv7uXf6v7X8p0HxeZOxnvzPHMj2495e/ueNTtz+9lK8+X/eY9fuYzn5klHMv+STJ94hOfGGxH2vitb32r9/1Y6pjymPdikhGxXMaWelJf6rURIECAAAECBAgQIECAAIHtKlDibyWg39fOOu4wFBMp+5U4QP693vcFxlKuPNZ198V0Srl5j4knZkVJYg5JMOztlyBL22ORK8xcddVVg7GRxIcSA6qPlX1ydZr0PZf8GtqyT744mvam3bmcV2Jy82Im3ZjdRmJQuQH8WWedNXi8eXNhqE+eX22BtU1u5F4ZeeMlYJs34t5spY460J96ysm1+3z3GKXc0Btv7PXUV59Ic2OlJGvOO++85o9//GObyUw28/HHH28++tGPtv3NSerGG2/sNmVDKzfqyvqSH/XrU37PSS71pK0Zo6w6yKqIBK7Tn/QtfXzTm97U/qRM90SZ45RAd15PXeeee+6snryecb/uuutmAf2hG8Q/++yz7SqE1JMPgHyzPdnltDPtSRA77b311ltn3avHJeM4tNXl+j4IS3IjyZfcKCurH1566aX22E8//XTbp9K/b3/72036cOKJJ7Y3v0rb/vnPfzZ33HHHLOGR1RR98z1tzyqLOF1yySWz/mX/fPinzhwn33bIB0m9lQ/Qww47rF2RkPmc+lIuRnU7U0cC+n3bMubOLbfc0vYh47Rr165ZW9OPrLa69NJLm3zDoN5K+4feh3XZ8ns9R9/5zne2fSyv5THGH/rQh1qz2MUwbch+mTsxjnW+mZHx2ch2wAEHtCsyxurI/5iNXZaq1JEVHvmxESBAgAABAgQIECBAgACB7SowJW5W/s2ff4OPJSz+9Kc/zW5SPi+WUzzGYjql3LzHsgoiV4fZm3ttlLpLPxPbSMws8YYkS55//vk2FpEYWY51yimntLGKxE3qPtZf4s7lt1K+b0tMI6s74tlNgkwZj9S5tzGoxFQSk0tsKf3MJcoSa8mW9idBk8RLfWWVvj54bmcJrGVyI2/QvFHzZugLik8d4hKMfcc73rHbN9rLm3lfJzdyYkmb8mbvbgk051vz6XMC4N1L85S+jHmUckN9G3u9266+v3Myz1K8tDVB4L4TagL3WdmRMkPjWG7GFJcEurNP31avdshJsvbLsbMSIMfIB82vf/3rvir2eK7+gKs/LLoF63Kx624luZHj910+LYmOkrgqbUx/utuPf/zjWTC924fiPW/+5IMhY9L34VU+QHP8fLjkckvdLfOvLAPtu3Zlym907uTbDmWOL/Jth9L+RZIbZc7kfwa63/yoP2yHEmaZi2XJZ64Z2k0Ydf3m/Z1VFmeeeea8Iu1rt99+e7siI49jW7mx+Fg5rxMgQIAAAQIECBAgQIAAga0SKPG3ef+eX+Tf/HWM5qabbhrtVl2+L6YzVkFiTrkSR+IpF154YW/8a6yO8nrpZ+rqi1WUcvkCb2IVKdeNAWY1R57vxjnLvnlMfCll8iXc7pdnp4zHRmJQOV6+pJ7jp602AhFYy+RGnY3svpEXmRYlGNs9iZY381ACoByjlOvuP/X1lKtPpGNB0nqJWY5db6UvYx6l3FDfxl6vjzn0e77ZnxNVXxKm3icntZxMU7bb7nxA5IOh77W6jvyeYHQSBymb+0skq122nHST1EhQP6sCpm71uHSt6zrqcrHrbiW5Me+ah8U87R9aFVF/+6D7AV28u4Z1W2JUlh12M/j1B+i8pEK5FNzQtStLP4bmVt2evt/r93XaMXUr7R96H3brybzLCph4913mrXyLId+S6CY+6rrKcff20nilrs1IbiRZknptBAgQIECAAAECBAgQIEBguwqMxdXS7vJv7yn/5h+L0XQdFi3f3b/E6ZKMyBd0N7KVfiZWMZYoyYqLxLm6JiWekToSw+luY5fQmjIeG4lB1d597eu219/rIbCW0av6G97zArpjU6AEYxN4zqWJylbezGNB2lKuezLp1jP0esrVb+y+4HipK4/5dvhHPvKRNiibSxjVW+nLmEcpN9S3sdfrY/b9Xo/NlAB1Cf53253xyLgMnZC7x859VxJkTkC6XtlQAvLdpEd3/+7f9bhknIe2ulzf+JX+5dJcZaldt64yj+YFyeuxr49T31irfr57jPxdxjYrMOqbi5cP0HwwzlviWYyH5nOpf2hu9bWpfi4JmLIaIsf4+c9/Prhap96vtH+oXXXZJM2ymijzKitmsnKmuyWhkdfH5kw99vOSIN36u38nCZGVFmOblRtjQl4nQIAAAQIECBAgQIAAgVUSKPGQef+eX+Tf/PW/07NCYWyry4/FVLp11TGMsS8rd/ft+7v0M7GZeXGo7Ft/AbaOR9Rtyv00EqOrt/IF4NybI4mZ7jY2HhuNQdXJlVwC/P/+7/92u/pKtz3+Xg+BtUxuZGhL0HjoEjlThr/cc6N7347yZh4L0pZyQyfhsdfTxvpEmvLztvqb7el/vZXAcjdJUJfJ76XcUN/GXu/W1/277s+ULGwZx267y0l9XsC/PnZ93Nqx1D8vuVDXU34fqq+8Xh7rcn0fhOX43fEq++dxyjypx74+Tn38BOSn/HTHvlgPzePS1rFyG507OU69vDJ9ybUkM4/6khBT21XK5TEf+vlGRVbz9F3+K2VKP6ZYljL1mNTHm/L71HtuLJLcyP02Uq+NAAECBAgQIECAAAECBAhsV4Ep8ZASi5gSH6q/KFvHhob6X8dUFv13fa4aki9FJi6wjEsslX6OxWbSl3ntnncPkLLqoi/xkXrHxqM+bomHjD12Y1DlMuHZL4mcfPH0rrvual599dWhYfL8DhdY2+RGVi7kjTDlTd83B+pgcTfwXd7M3Tdgt55SbqgNY6+nvvrEkPLztrrN3WB5Cch2kwTd+kq5ob6Nvd6tr/v3Iv3JviX43233Iif11FMft/5AKvV3vbrt7v5d1zdvXOpy9XFLfVOOP2We1GNfH6c+/tgHSnm9O/ZTrcfKbXTuFLN8EyArOJKEKG3OzdJzWa0XXnihFJs9jrWrFKyvC3njjTeWp/d4LP0ox57yWI/JHhWOPJHxyOqNjOW8bWpyI/VMXQ0y73heI0CAAAECBAgQIECAAAECmykwJR7y1FNPtfeQyL/N58Vn0s4SH5iSCEn5Oqay6L/ry6Wh5t3fYhG70vahGGNd17x258ofWUkSr7pP5fkkFLo3Ei91j41HfdwpsZKU6cagcqwkoXKvksR6Sj2HHnpoc/XVV0tylMFYo8e1TW6US+TkTTB0n4J586Asxcr+9Zs9+5Q3c98bsK6zlBs68Yy9nrrqE0PKz9vqAPc111yzW9H0IX3pJgl2K1R9K32ob6Weode79XX/rvtTL43rlit/l+B/t93lpL43H0i1Y6n/C1/4wkJL3ep+1PWVdpfHulx3HqVMOX4eh7Yp86Qe+/o49fHntXPo2Hm+WA/N47LvWLmNzp1ynPKYrP0PfvCDdvVG+bDLssXHH3+8FGkfx9qVQvkQLzcrzwdoLk81tJV+dOfkUPmNPn/DDTe0yYgrrrhiblVTkxupJ8mN1GsjQIAAAQIECBAgQIAAAQLbVWBKPKS+CXUdD+nrUy61neD98ccf3166qa9M/VwdUxmru94vMYXczzSxiu59Tetyi/w+JbZR6qvb3Xf5rXJj8TquUeKo8+4JOzYe9XH3NgZV+pDHXKUj7scee+wsyZHL8de3DqjL+31nCqxtcqNkHHMieec739k8/fTTk0c4J6FySapcniaJjnorb+ax7GtOIDn+UFC41DP0eo5Znxj6Tkh1u+pr6nXLloDs2GW6khRJm4eSF6Weodfr9vT9/uKLLzZpQ47RTcB0y+ceFFk1k7L1CTfl5vW1W0/+zrK2ww47rL3vRk7YZSv9zckxc2bqVo/LvMtr1e3s+yDc7ORG+jR0H5apfZ36ATpWbqNzZ6i9uWZk3kt5H2WudG+sNdau7L9r165239zkPpe+mreV93X3Xjzz9tnoa/vtt1+z//77z129kf9Jy+Wm5t0XJfM29aQ+GwECBAgQIECAAAECBAgQ2M4CU+JmiyQSSgxo6LJLXYs69tMX0+mWL3/XsaB5MaNSfspjiW1M+ZJvSVQMlS2rXcq9Nep7ceRKGfm7bxsbj2XEoPqO+9prrzX//d//PbuCx958ib2vXs+thsDaJjcyPFkZkBtIJ+CZb2VPDV6X6+5nv3zLufumzg2pU29+cq26vi0n1wRZU8dQ8mLspJB66xNpN2jbPe4tt9zSZqD7EjI5maYtfa+VeuJTlqYNJS82GqCuP3SGbthc2lOvnukmN+qbDI19KGX8rr322rb/3eROudbgvLEs7akf6yTNvBN/WYYY+74Pws1ObqTvuVxTjr+3N7AqH6BD87i4jJXb6Nwpxxl6LJei694jZ6xdeR/mElf5ye9jW6lv3lLNsToWfb2s3phyY/F5dWd/qzbmCXmNAAECBAgQIECAAAECBLaLwJS4Wdo6JeaVOM6HPvShNj4y9R4YdUyuL6Yz5FRiQWNfih7av+/5EotIfGdecD9xoMQyU+60005rsrKlu9Uxy9SVMilbkh3d8uXvsfFYRgyqHKv7mLpz1ZX0KzHe7s3Qu+X9vXME1jq5kTfrJZdc0k78MvnnLV3KGyMnq3It/6GEyDPPPNPkW9upc+gSNnWCZCgoXJbDDWVSMw3rE2naNXQpp6xMSVA3bepLgjz00EPtSSqvJ9Cfk0K95e/0PQHblBlKbtx0003t61OX8NXHKL+Xk3yOlWN225Lwvfc5AAAQhklEQVRySbSUywSlPd3kRsqU5FXqyTfvk8nt28rNiFKuey+FOqGTb+1PXeFTfxAMrQzq3vy674Nws5Mb8SgJnDGnzP+Mb/eDr3yADs3jYj5Wbhlzpxyr77EkN7qrcOa1qx6jvvdF33HqxNrYnMnc666i6qtzynN5TyYxMXZ5qqG6yuWoUo+NAAECBAgQIECAAAECBAhsd4GxYHpp/3PPPdfk3+eJHyUOmJhNvdUxr5RL+SlbHZPri+n01ZFjlS+ZfupTn2py39BlbCW2kT7mi8uJN/RtDz744OzKFvOSICVWlBhKkj2JGY19eXhKHLPUu7cxqL4+5bm4luTGsi71NXQsz28vgbVObmQocl3+iy66qD3B5QSQBMEFF1zQfkM7iY6cqH7zm9+0N6Wpr+F2+umnD16eJm+ofFs/9eXN+pWvfGUWEE6wPCeFt73tbc2HP/zhtsxQULgsA0s9SZLkWnIJnOZkkcds9Yk0yYu0/7rrrpsdL/daSPD0yCOPbI91zDHH7HEZrdRTB2RTR5IBaWu2BLNzU57cnOf9739/W89QcqOsWkmby418cqK+++6727qm/Cdt/sxnPjPzywdPEkZxzQdQTsRZ1ZGkQcmq9yU36uRVxuHcc89tnnjiidmHWPoVq/Qr7R1KVpXkR8rE8bbbbmuS0c+WhEmWE+ab87feeutu3Ssn7OyXb8TnXg8pn3Y98MADbdb7lFNOmX2o9H0Q7ovkxphT+pp7V2TM+8a9fIAOzeOCMlZuo3Mn74XMm3wjI+/dkszK5cvuuOOO9sM9Y9FNUgy1Ky55382bG6Vv3cd5cyb1Zh7mvJObX/WNe7e+qX/nslNJcOR9EY8pW8qddNJJ7X5HHHHElF2UIUCAAAECBAgQIECAAAECWy4wNbmRhparmSQ+dN555zV//OMf27hBiXnl3+d5bZEvINYxuan/tk+srVwePLHDZW0ltpEvSB933HFtrClxqhLbS2wnbSwxsMQ1u19erduS8rm6SWI9iV0lNjJ2Ca0pccyNxKAee+yxNu5z1113tW1PnDBb+vg///M/bUx00TGs++z31RRY++RGhi1vrO9+97uzN3jesEM/Odnl5DOWWc03vnOiGKongc2sUMjrQ0HhtOuyyy7bo446kF+fSH/0ox81Z5111h7lSxuS2MgKjaEtAdmUKeXrx5wcktG9/vrr29f7gtypt05M1PsnSL/IluB0OdnX9ZTfk4VOMLwE/2uT+jhJXiUjnvaXfbuPeS1B7Jdffrnedbffk+Aasin1dT/IyvgNHTvJqPQhlqmju38aUPo3z2/Kh/nQDcVLJ/NB8LnPfW7QqPQxTqmr3soH6NA8LmXHym107tTvhdLe7mP6WD7Yx9qVVTxDY9etN39nHOrtvvvumyWu+srnuZglCbbMLfMpCY7cO+PrX//6YJIjXnk95VJ+o5e0WmYf1EWAAAECBAgQIECAAAECBMYEpsRDSh2J0SSuNfTv/MT7EgcoAfOy37zHOg7RF9Pp27dOAIwlC/r2H3qujrnkSibzYpJ5bcqVSeJV4hnzbiRe2lTiYGWf8tiN2e1tDKr0sdTbfczYXnXVVbMvNZd2edzZApIb1fgmYZFv5efeA4cffvjsDZys5gc+8IE2+Dx1aVqqTX1ZvZCMad5weZOdeuqpTZIQecNPOQlnRUVWFySYnzrSlm9+85tNvo2erT6Rpr6Uv/nmm5uTTz65PV6Omd9zkh1LyKS+JBUuvvjiWf9zco/HL3/5y/YEn3rSjqHkRupIkuDSSy+dJYvS9lxyaNEtfckql5x0044cN5ZXXnnlLGBbgv/dE2V9rHwwPfzww+2KnKOPPrqtJ3VljLNKJ69N+fCKXz7o6vZklUtWs+T5rKzpblk9cOedd+62TzzSh2TB6/Hr+yAs/dvs5EbanbYmiZNlhiWTH6eYzXMqHy4bTW6kDRuZO3lP5QM87a/fv/k9zyXZUFZz1OPU1/58e6Fcxi0GU366yY0cI3Piv/7rv2bvx9RTz5kp78m6rVN/z0qi3BQ8SYv8HHzwwe1qjqxsyaqO/F1eS7mUtxEgQIAAAQIECBAgQIAAgVUSmBJXq/tT4kNnn312+2/z/Bs98Y9zzjmn+cMf/lAXnfT7WEynr5Jy6abc2zVfeF3W1o1tlJhkiScmrpZ41g9/+MPZ1WDGjl3f63be/WTresbimKXs3sSg8gXm22+/vY1TLhK3Ksf0uDMFJDdWfFzrE2lfcHXFu6f5BAhsQCBJiyQiDzjggFkyI0mNXL4qz0tqbADXrgQIECBAgAABAgQIECBAYAcLlOTG2I3EdzCBrq2AgOTGCgzSvCZKbszT8RoBAgQIECBAgAABAgQIECBAgAABAosIZJVL7lma1S25okv3Et+L1KUsgc0UkNzYTN19ULfkxj5AdggCBAgQIECAAAECBAgQIECAAAECayLwzDPPNLnPRpIbuWS8jcB2FZDc2K4jM7FdkhsToRQjQIAAAQIECBAgQIAAAQIECBAgQGCuQFZt7Nq1q01snHbaaU3uS2ojsF0FJDe268hMbJfkxkQoxQgQIECAAAECBAgQIECAAAECBAgQGBTI5aeS2DjkkEOaN77xjc2Pf/zjwbJeILAdBCQ3tsMobKANkhsbwLMrAQIECBAgQIAAAQIECBAgQIAAgTUXuPfee9uVGrkMVX6S2Ljqqquaf/3rX2suo/vbXUByY7uP0Ej7JDdGgLxMgAABAgQIECBAgAABAgQIECBAgMCgwP33398ceOCBbVLj1FNPbe68887mtddeGyzvBQLbRUByY7uMhHYQIECAAAECBAgQIECAAAECBAgQIECAAAECkwQkNyYxKUSAAAECBAgQIECAAAECBAgQIECAAAECBAhsFwHJje0yEtpBgAABAgQIECBAgAABAgQIECBAgAABAgQITBKQ3JjEpBABAgQIECBAgAABAgQIECBAgAABAgQIECCwXQQkN7bLSGgHAQIECBAgQIAAAQIECBAgQIAAAQIECBAgMElAcmMSk0IECBAgQIAAAQIECBAgQIAAAQIECBAgQIDAdhGQ3NguI6EdBAgQIECAAAECBAgQIECAAAECBAgQIECAwCQByY1JTAoRIECAAAECBAgQIECAAAECBAgQIECAAAEC20VAcmO7jIR2ECBAgAABAgQIECBAgAABAgQIECBAgAABApMEJDcmMSlEgAABAgQIECBAgAABAgQIECBAgAABAgQIbBcByY3tMhLaQYAAAQIECBAgQIAAAQIECBAgQIAAAQIECEwSkNyYxKQQAQIECBAgQIAAAQIECBAgQIAAAQIECBAgsF0EJDe2y0hoBwECBAgQIECAAAECBAgQIECAAAECBAgQIDBJQHJjEpNCBAgQIECAAAECBAgQIECAAAECBAgQIECAwHYRkNzYLiOhHQQIECBAgAABAgQIECBAgAABAgQIECBAgMAkAcmNSUwKESBAgAABAgQIECBAgAABAgQIECBAgAABAttFQHJju4yEdhAgQIAAAQIECBAgQIAAAQIECBAgQIAAAQKTBCQ3JjEpRIAAAQIECBAgQIAAAQIECBAgQIAAAQIECGwXgZVIbtxzzz2NHwbmgDlgDpgD5oA5YA6YA+aAOWAOmAPmgDlgDpgD5oA5YA6YA+aAOZA5ILkhcSJxZA6YA+aAOWAOmAPmgDlgDpgD5oA5YA6YA+aAOWAOmAPmgDlgDqzUHFiJ5MZ2WeaiHQQIECBAgAABAgQIECBAgAABAgQIECBAgMDWC0hubP0YaAEBAgQIECBAgAABAgQIECBAgAABAgQIECCwgIDkxgJYihIgQIAAAQIECBAgQIAAAQIECBAgQIAAAQJbLyC5sfVjoAUECBAgQIAAAQIECBAgQIAAAQIECBAgQIDAAgKSGwtgKUqAAAECBAgQIECAAAECBAgQIECAAAECBAhsvYDkxtaPgRYQIECAAAECBAgQIECAAAECBAgQIECAAAECCwhIbiyApSgBAgQIECBAgAABAgQIECBAgAABAgQIECCw9QKSG1s/BlpAgAABAgQIECBAgAABAgQIECBAgAABAgQILCAgubEAlqIECBAgQIAAAQIECBAgQIAAAQIECBAgQIDA1gtIbmz9GGgBAQIECBAgQIAAAQIECBAgQIAAAQIECBAgsICA5MYCWIoSIECAAAECBAgQIECAAAECBAgQIECAAAECWy8gubH1Y6AFBAgQIECAAAECBAgQIECAAAECBAgQIECAwAICkhsLYClKgAABAgQIECBAgAABAgQIECBAgAABAgQIbL2A5MbWj4EWECBAgAABAgQIECBAgAABAgQIECBAgAABAgsISG4sgKUoAQIECBAgQIAAAQIECBAgQIAAAQIECBAgsPUCkhtbPwZaQIAAAQIECBAgQIAAAQIECBAgQIAAAQIECCwgILmxAJaiBAgQIECAAAECBAgQIECAAAECBAgQIECAwNYLSG5s/RhoAQECBAgQIECAAAECBAgQIECAAAECBAgQILCAgOTGAliKEiBAgAABAgQIECBAgAABAgQIECBAgAABAlsvILmx9WOgBQQIECBAgAABAgQIECBAgAABAgQIECBAgMACApIbC2ApSoAAAQIECBAgQIAAAQIECBAgQIAAAQIECGy9gOTG1o+BFhAgQIAAAQIECBAgQIAAAQIECBAgQIAAAQILCEhuLIClKAECBAgQIECAAAECBAgQIECAAAECBAgQILD1ApIbWz8GWkCAAAECBAgQIECAAAECBAgQIECAAAECBAgsICC5sQCWogQIECBAgAABAgQIECBAgAABAgQIECBAgMDWC0hubP0YaAEBAgQIECBAgAABAgQIECBAgAABAgQIECCwgIDkxgJYihIgQIAAAQIECBAgQIAAAQIECBAgQIAAAQJbLyC5sfVjoAUECBAgQIAAAQIECBAgQIAAAQIECBAgQIDAAgKSGwtgKUqAAAECBAgQIECAAAECBAgQIECAAAECBAhsvYDkxtaPgRYQIECAAAECBAgQIECAAAECBAgQIECAAAECCwhIbiyAtZlF77333uYNb3hD8/a3v7159NFHN/NQS6v7O9/5TtvmM844o3nllVeWVu9WVrSK47CVXo5NgAABAgQIECBAgAABAgQIECBAgACBrRCQ3NgKdcckQIAAAQIECBAgQIAAAQIECBAgQIAAAQIE9lpAcmOv6exIgAABAgQIECBAgAABAgQIECBAgAABAgQIbIWA5MZWqDsmAQIECBAgQIAAAQIECBAgQIAAAQIECBAgsNcCkht7TWdHAgQIECBAgAABAgQIECBAgAABAgQIECBAYCsEJDe2Qt0xCRAgQIAAAQIECBAgQIAAAQIECBAgQIAAgb0WkNzYazo7EiBAgAABAgQIECBAgAABAgQIECBAgAABAlshILmxFeqOSYAAAQIECBAgQIAAAQIECBAgQIAAAQIECOy1gOTGXtPZkQABAgQIECBAgAABAgQIECBAgAABAgQIENgKAcmNrVB3TAIECBAgQIAAAQIECBAgQIAAAQIECBAgQGCvBSQ39prOjgQIECBAgAABAgQIECBAgAABAgQIECBAgMBWCEhubIW6YxIgQIAAAQIECBAgQIAAAQIECBAgQIAAAQJ7LfD/AHA2URmHIeEnAAAAAElFTkSuQmCC;" vertex="1" parent="1">
          <mxGeometry x="740" y="380.00000000000006" width="551" height="378.19" as="geometry" />
        </mxCell>
        <mxCell id="YBjTQArVUFeNYg_c9qIM-15" value="Required RUs" style="rounded=0;whiteSpace=wrap;html=1;fontSize=14;align=left;fillColor=#e1d5e7;strokeColor=#9673a6;" vertex="1" parent="1">
          <mxGeometry x="740" y="320" width="550" height="40" as="geometry" />
        </mxCell>
        <mxCell id="YBjTQArVUFeNYg_c9qIM-16" value="Partition key consideration" style="rounded=0;whiteSpace=wrap;html=1;fontSize=14;align=left;fillColor=#e1d5e7;strokeColor=#9673a6;" vertex="1" parent="1">
          <mxGeometry x="740" y="780" width="550" height="40" as="geometry" />
        </mxCell>
        <mxCell id="YBjTQArVUFeNYg_c9qIM-18" value="- Avoid hot partitions&lt;br&gt;&lt;br&gt;- Estimate the scale of your data needs&lt;br&gt;&lt;br&gt;- Understand the workload&lt;br&gt;&lt;br&gt;- Propose some partition key options&lt;br&gt;&lt;br&gt;-&amp;nbsp;" style="text;whiteSpace=wrap;html=1;fontSize=14;fillColor=#f5f5f5;strokeColor=#666666;fontColor=#333333;" vertex="1" parent="1">
          <mxGeometry x="740" y="830" width="550" height="215" as="geometry" />
        </mxCell>
      </root>
    </mxGraphModel>
  </diagram>
</mxfile>
